<?xml version="1.0" encoding="UTF-8" ?>
<!DOCTYPE svg PUBLIC "-//W3C//DTD SVG 1.1//EN" "http://www.w3.org/Graphics/SVG/1.1/DTD/svg11.dtd">
<svg width="370pt" height="383pt" viewBox="0 0 370 383" version="1.1" xmlns="http://www.w3.org/2000/svg">
<g id="#ffffffff">
<path fill="#ffffff" opacity="1.00" d=" M 0.00 0.00 L 370.00 0.00 L 370.00 383.00 L 0.00 383.00 L 0.00 0.00 M 172.31 19.46 C 132.68 22.17 94.20 39.05 65.35 66.36 C 39.50 90.39 21.30 122.52 13.94 157.04 C 6.57 191.23 9.60 227.67 22.93 260.04 C 38.17 297.81 67.20 329.78 103.24 348.73 C 125.91 360.81 151.31 367.67 176.96 368.81 C 207.97 370.28 239.37 363.34 266.77 348.73 C 294.00 334.39 317.25 312.66 333.53 286.56 C 347.97 263.51 356.89 237.02 359.25 209.92 C 362.13 178.90 356.56 147.12 343.15 119.00 C 333.56 98.82 320.08 80.50 303.62 65.38 C 282.53 45.83 256.50 31.64 228.64 24.50 C 210.31 19.77 191.19 18.13 172.31 19.46 Z" />
<path fill="#ffffff" opacity="1.00" d=" M 172.35 26.48 C 191.35 25.04 210.59 26.86 228.98 31.85 C 260.74 40.47 289.81 58.68 311.41 83.51 C 333.37 108.42 347.64 140.03 351.65 172.99 C 353.97 190.63 353.25 208.62 349.92 226.08 C 343.94 257.08 328.92 286.27 307.17 309.15 C 287.79 329.86 263.01 345.42 236.01 354.08 C 197.92 366.32 155.42 364.32 118.72 348.34 C 81.50 332.42 50.54 302.55 33.22 265.97 C 22.98 244.50 17.41 220.82 17.06 197.04 C 16.42 168.06 23.62 138.98 37.54 113.57 C 50.13 90.58 68.15 70.59 89.73 55.73 C 114.03 38.87 142.86 28.62 172.35 26.48 M 61.02 108.95 C 60.99 161.32 60.98 213.69 61.03 266.06 C 60.88 271.35 65.66 276.10 70.95 275.98 C 88.96 276.03 106.98 275.98 125.00 276.00 C 125.03 287.02 124.95 298.04 125.03 309.06 C 124.88 314.37 129.67 319.11 134.96 318.98 C 168.65 319.01 202.35 319.01 236.04 318.98 C 241.33 319.10 246.12 314.35 245.98 309.05 C 246.03 298.03 245.98 287.02 246.00 276.00 C 263.68 275.98 281.35 276.03 299.03 275.98 C 303.61 276.07 307.90 272.55 308.78 268.07 C 309.14 265.73 308.98 263.36 309.01 261.00 C 308.98 210.32 309.03 159.63 308.98 108.95 C 309.10 104.02 304.95 99.50 300.06 99.10 C 297.38 98.88 294.68 99.02 292.00 99.00 C 220.33 99.00 148.66 99.00 77.00 99.00 C 74.64 99.01 72.28 98.90 69.93 99.09 C 65.05 99.51 60.89 104.02 61.02 108.95 Z" />
<path fill="#ffffff" opacity="1.00" d=" M 66.03 108.90 C 65.97 105.83 69.07 103.56 71.99 103.99 C 147.33 104.00 222.67 104.01 298.01 103.99 C 300.94 103.56 304.04 105.83 303.97 108.90 C 304.05 121.93 303.97 134.97 304.00 148.00 C 224.67 148.00 145.33 148.00 66.00 148.00 C 66.02 134.96 65.95 121.93 66.03 108.90 M 85.33 122.37 C 82.52 123.46 82.19 127.82 84.78 129.33 C 86.93 130.93 90.32 129.59 90.89 127.00 C 91.87 123.92 88.18 120.80 85.33 122.37 M 103.32 122.38 C 100.51 123.46 100.20 127.82 102.77 129.33 C 104.93 130.93 108.32 129.59 108.89 126.99 C 109.87 123.92 106.16 120.79 103.32 122.38 M 123.32 122.38 C 120.51 123.46 120.19 127.82 122.78 129.33 C 124.93 130.93 128.32 129.58 128.89 127.00 C 129.86 123.92 126.17 120.79 123.32 122.38 M 202.01 127.00 C 201.73 128.39 203.20 129.06 203.87 130.02 C 231.95 129.98 260.04 129.98 288.12 130.03 C 288.80 129.06 290.21 128.38 290.00 126.99 C 290.21 125.61 288.79 124.95 288.13 123.98 C 260.04 124.01 231.95 124.02 203.86 123.98 C 203.19 124.94 201.73 125.60 202.01 127.00 Z" />
<path fill="#ffffff" opacity="1.00" d=" M 66.00 153.00 C 145.33 153.00 224.67 153.00 304.00 153.00 C 303.98 190.70 304.04 228.40 303.97 266.10 C 304.02 268.68 301.68 271.03 299.09 270.97 C 281.40 271.04 263.70 270.98 246.00 271.00 C 245.98 256.99 246.03 242.97 245.98 228.96 C 246.12 223.66 241.34 218.94 236.07 219.03 C 230.05 218.94 224.03 219.03 218.02 219.00 C 218.25 212.74 217.29 206.31 214.25 200.76 C 209.27 190.94 199.03 184.11 188.08 183.14 C 176.77 181.98 165.09 187.25 158.42 196.45 C 153.60 202.89 151.56 211.03 151.98 219.00 C 146.31 219.03 140.63 218.95 134.96 219.02 C 129.69 218.93 124.87 223.64 125.02 228.95 C 124.97 242.97 125.02 256.98 125.00 271.00 C 106.97 270.98 88.94 271.04 70.91 270.97 C 67.83 271.05 65.56 267.94 65.99 265.01 C 66.01 227.67 65.99 190.34 66.00 153.00 Z" />
<path fill="#ffffff" opacity="1.00" d=" M 162.44 199.46 C 168.19 191.51 178.34 186.99 188.10 188.17 C 197.71 189.20 206.54 195.57 210.47 204.41 C 212.65 208.94 213.17 214.03 213.02 219.00 C 194.34 219.00 175.66 219.00 156.98 219.00 C 156.61 212.12 158.23 205.02 162.44 199.46 Z" />
<path fill="#ffffff" opacity="1.00" d=" M 133.23 224.33 C 134.76 223.82 136.41 224.04 138.00 223.98 C 170.70 224.04 203.40 223.95 236.10 224.03 C 239.17 223.96 241.43 227.06 241.01 229.98 C 240.97 256.35 241.04 282.73 240.97 309.10 C 241.04 312.17 237.94 314.43 235.02 314.01 C 201.65 313.97 168.28 314.04 134.91 313.97 C 132.32 314.02 129.98 311.69 130.03 309.11 C 129.95 282.74 130.03 256.36 129.99 229.99 C 129.73 227.65 130.95 225.16 133.23 224.33 M 176.60 257.60 C 173.35 261.17 173.13 267.05 176.14 270.85 C 177.53 272.86 179.81 273.89 181.99 274.82 C 182.00 277.92 182.02 281.02 181.97 284.13 C 182.94 284.80 183.60 286.27 185.01 286.00 C 186.41 286.26 187.06 284.76 188.02 284.09 C 187.98 281.00 188.00 277.91 188.01 274.83 C 190.18 273.89 192.47 272.86 193.87 270.84 C 196.87 267.04 196.67 261.17 193.40 257.59 C 189.23 252.75 180.77 252.75 176.60 257.60 Z" />
<path fill="#ffffff" opacity="1.00" d=" M 182.37 259.44 C 185.10 258.36 188.82 259.03 190.28 261.80 C 191.81 264.32 190.79 267.92 188.20 269.29 C 185.24 270.88 180.75 270.00 179.44 266.65 C 178.20 263.97 179.63 260.50 182.37 259.44 Z" />
</g>
<g id="#192d3eff">
<path fill="#192d3e" opacity="1.00" d=" M 172.31 19.46 C 191.19 18.13 210.31 19.77 228.64 24.50 C 256.50 31.64 282.53 45.83 303.62 65.38 C 320.08 80.50 333.56 98.82 343.15 119.00 C 356.56 147.12 362.13 178.90 359.25 209.92 C 356.89 237.02 347.97 263.51 333.53 286.56 C 317.25 312.66 294.00 334.39 266.77 348.73 C 239.37 363.34 207.97 370.28 176.96 368.81 C 151.31 367.67 125.91 360.81 103.24 348.73 C 67.20 329.78 38.17 297.81 22.93 260.04 C 9.60 227.67 6.57 191.23 13.94 157.04 C 21.30 122.52 39.50 90.39 65.35 66.36 C 94.20 39.05 132.68 22.17 172.31 19.46 M 172.35 26.48 C 142.86 28.62 114.03 38.87 89.73 55.73 C 68.15 70.59 50.13 90.58 37.54 113.57 C 23.62 138.98 16.42 168.06 17.06 197.04 C 17.41 220.82 22.98 244.50 33.22 265.97 C 50.54 302.55 81.50 332.42 118.72 348.34 C 155.42 364.32 197.92 366.32 236.01 354.08 C 263.01 345.42 287.79 329.86 307.17 309.15 C 328.92 286.27 343.94 257.08 349.92 226.08 C 353.25 208.62 353.97 190.63 351.65 172.99 C 347.64 140.03 333.37 108.42 311.41 83.51 C 289.81 58.68 260.74 40.47 228.98 31.85 C 210.59 26.86 191.35 25.04 172.35 26.48 Z" />
<path fill="#192d3e" opacity="1.00" d=" M 61.02 108.95 C 60.89 104.02 65.05 99.51 69.93 99.09 C 72.28 98.90 74.64 99.01 77.00 99.00 C 148.66 99.00 220.33 99.00 292.00 99.00 C 294.68 99.02 297.38 98.88 300.06 99.10 C 304.95 99.50 309.10 104.02 308.98 108.95 C 309.03 159.63 308.98 210.32 309.01 261.00 C 308.98 263.36 309.14 265.73 308.78 268.07 C 307.90 272.55 303.61 276.07 299.03 275.98 C 281.35 276.03 263.68 275.98 246.00 276.00 C 245.98 287.02 246.03 298.03 245.98 309.05 C 246.12 314.35 241.33 319.10 236.04 318.98 C 202.35 319.01 168.65 319.01 134.96 318.98 C 129.67 319.11 124.88 314.37 125.03 309.06 C 124.95 298.04 125.03 287.02 125.00 276.00 C 106.98 275.98 88.96 276.03 70.95 275.98 C 65.66 276.10 60.88 271.35 61.03 266.06 C 60.98 213.69 60.99 161.32 61.02 108.95 M 66.03 108.90 C 65.95 121.93 66.02 134.96 66.00 148.00 C 145.33 148.00 224.67 148.00 304.00 148.00 C 303.97 134.97 304.05 121.93 303.97 108.90 C 304.04 105.83 300.94 103.56 298.01 103.99 C 222.67 104.01 147.33 104.00 71.99 103.99 C 69.07 103.56 65.97 105.83 66.03 108.90 M 66.00 153.00 C 65.99 190.34 66.01 227.67 65.99 265.01 C 65.56 267.94 67.83 271.05 70.91 270.97 C 88.94 271.04 106.97 270.98 125.00 271.00 C 125.02 256.98 124.97 242.97 125.02 228.95 C 124.87 223.64 129.69 218.93 134.96 219.02 C 140.63 218.95 146.31 219.03 151.98 219.00 C 151.56 211.03 153.60 202.89 158.42 196.45 C 165.09 187.25 176.77 181.98 188.08 183.14 C 199.03 184.11 209.27 190.94 214.25 200.76 C 217.29 206.31 218.25 212.74 218.02 219.00 C 224.03 219.03 230.05 218.94 236.07 219.03 C 241.34 218.94 246.12 223.66 245.98 228.96 C 246.03 242.97 245.98 256.99 246.00 271.00 C 263.70 270.98 281.40 271.04 299.09 270.97 C 301.68 271.03 304.02 268.68 303.97 266.10 C 304.04 228.40 303.98 190.70 304.00 153.00 C 224.67 153.00 145.33 153.00 66.00 153.00 M 162.44 199.46 C 158.23 205.02 156.61 212.12 156.98 219.00 C 175.66 219.00 194.34 219.00 213.02 219.00 C 213.17 214.03 212.65 208.94 210.47 204.41 C 206.54 195.57 197.71 189.20 188.10 188.17 C 178.34 186.99 168.19 191.51 162.44 199.46 M 133.23 224.33 C 130.95 225.16 129.73 227.65 129.99 229.99 C 130.03 256.36 129.95 282.74 130.03 309.11 C 129.98 311.69 132.32 314.02 134.91 313.97 C 168.28 314.04 201.65 313.97 235.02 314.01 C 237.94 314.43 241.04 312.17 240.97 309.10 C 241.04 282.73 240.97 256.35 241.01 229.98 C 241.43 227.06 239.17 223.96 236.10 224.03 C 203.40 223.95 170.70 224.04 138.00 223.98 C 136.41 224.04 134.76 223.82 133.23 224.33 Z" />
<path fill="#192d3e" opacity="1.00" d=" M 85.33 122.37 C 88.18 120.80 91.87 123.92 90.89 127.00 C 90.32 129.59 86.93 130.93 84.78 129.33 C 82.19 127.82 82.52 123.46 85.33 122.37 Z" />
<path fill="#192d3e" opacity="1.00" d=" M 103.32 122.38 C 106.16 120.79 109.87 123.92 108.89 126.99 C 108.32 129.59 104.93 130.93 102.77 129.33 C 100.20 127.82 100.51 123.46 103.32 122.38 Z" />
<path fill="#192d3e" opacity="1.00" d=" M 123.32 122.38 C 126.17 120.79 129.86 123.92 128.89 127.00 C 128.32 129.58 124.93 130.93 122.78 129.33 C 120.19 127.82 120.51 123.46 123.32 122.38 Z" />
<path fill="#192d3e" opacity="1.00" d=" M 202.01 127.00 C 201.73 125.60 203.19 124.94 203.86 123.98 C 231.95 124.02 260.04 124.01 288.13 123.98 C 288.79 124.95 290.21 125.61 290.00 126.99 C 290.21 128.38 288.80 129.06 288.12 130.03 C 260.04 129.98 231.95 129.98 203.87 130.02 C 203.20 129.06 201.73 128.39 202.01 127.00 Z" />
<path fill="#192d3e" opacity="1.00" d=" M 176.60 257.60 C 180.77 252.75 189.23 252.75 193.40 257.59 C 196.67 261.17 196.87 267.04 193.87 270.84 C 192.47 272.86 190.18 273.89 188.01 274.83 C 188.00 277.91 187.98 281.00 188.02 284.09 C 187.06 284.76 186.41 286.26 185.01 286.00 C 183.60 286.27 182.94 284.80 181.97 284.13 C 182.02 281.02 182.00 277.92 181.99 274.82 C 179.81 273.89 177.53 272.86 176.14 270.85 C 173.13 267.05 173.35 261.17 176.60 257.60 M 182.37 259.44 C 179.63 260.50 178.20 263.97 179.44 266.65 C 180.75 270.00 185.24 270.88 188.20 269.29 C 190.79 267.92 191.81 264.32 190.28 261.80 C 188.82 259.03 185.10 258.36 182.37 259.44 Z" />
</g>
</svg>
