<?xml version="1.0" encoding="UTF-8" ?>
<!DOCTYPE svg PUBLIC "-//W3C//DTD SVG 1.1//EN" "http://www.w3.org/Graphics/SVG/1.1/DTD/svg11.dtd">
<svg width="380pt" height="371pt" viewBox="0 0 380 371" version="1.1" xmlns="http://www.w3.org/2000/svg">
<g id="#ffffffff">
<path fill="#ffffff" opacity="1.00" d=" M 0.00 0.00 L 380.00 0.00 L 380.00 371.00 L 0.00 371.00 L 0.00 0.00 M 174.37 10.52 C 151.14 12.33 128.25 18.75 107.60 29.57 C 82.58 42.45 60.82 61.57 44.67 84.60 C 26.45 110.49 15.45 141.43 13.45 173.03 C 10.55 212.85 21.93 253.51 45.10 286.03 C 61.95 309.82 84.80 329.38 111.02 342.17 C 140.55 356.78 174.30 362.56 207.03 358.97 C 245.36 354.92 282.15 337.64 309.70 310.69 C 334.48 286.89 351.93 255.55 359.07 221.94 C 364.29 197.68 364.30 172.30 359.07 148.05 C 352.02 114.90 334.94 83.97 310.72 60.28 C 289.06 38.86 261.66 23.28 232.17 15.64 C 213.37 10.72 193.74 9.07 174.37 10.52 Z" />
<path fill="#ffffff" opacity="1.00" d=" M 175.35 17.48 C 194.34 16.04 213.58 17.86 231.96 22.84 C 263.73 31.46 292.81 49.67 314.41 74.52 C 335.72 98.70 349.81 129.20 354.27 161.13 C 359.41 196.16 353.02 232.79 336.24 263.98 C 317.14 299.91 284.57 328.42 246.38 342.52 C 209.59 356.31 167.92 356.47 131.00 343.04 C 89.01 327.97 53.70 295.45 35.22 254.84 C 25.62 233.94 20.39 211.04 20.06 188.04 C 19.35 156.36 28.04 124.56 44.61 97.56 C 59.52 73.18 80.72 52.65 105.65 38.65 C 126.94 26.55 150.93 19.28 175.35 17.48 M 90.84 85.63 C 75.04 89.37 61.24 100.65 54.38 115.36 C 47.21 130.03 47.21 147.97 54.38 162.64 C 59.91 174.52 69.96 184.17 81.96 189.39 C 82.06 215.59 81.97 241.79 82.00 268.00 C 82.04 270.68 81.81 273.40 82.23 276.07 C 83.09 280.54 87.38 284.06 91.95 283.99 C 161.63 284.02 231.32 283.98 301.01 284.01 C 303.66 283.94 306.48 284.33 308.96 283.16 C 312.53 281.66 315.04 277.93 314.99 274.04 C 315.01 230.02 315.01 185.99 314.99 141.97 C 315.13 136.67 310.35 131.94 305.07 132.02 C 256.25 131.97 207.42 132.02 158.59 132.00 C 156.87 119.12 150.57 106.82 140.82 98.19 C 127.63 86.04 108.20 81.16 90.84 85.63 Z" />
<path fill="#ffffff" opacity="1.00" d=" M 97.30 89.45 C 110.60 87.60 124.59 91.45 135.06 99.86 C 144.50 107.30 151.11 118.27 153.18 130.12 C 155.93 144.53 151.73 160.03 142.23 171.19 C 133.79 181.32 121.20 187.77 108.07 188.84 C 92.70 190.17 76.90 183.86 66.71 172.27 C 58.36 162.99 53.72 150.47 54.01 137.99 C 54.22 126.17 58.81 114.50 66.73 105.73 C 74.54 96.87 85.61 91.04 97.30 89.45 M 134.69 119.65 C 120.88 132.75 107.14 145.93 93.37 159.08 C 87.45 152.85 81.52 146.62 75.57 140.41 C 74.74 139.52 73.47 138.30 72.22 139.33 C 71.13 139.86 70.43 141.66 71.45 142.60 C 77.15 148.87 83.13 154.88 88.93 161.07 C 90.08 162.37 91.52 163.35 93.00 164.26 C 95.39 162.60 97.34 160.41 99.46 158.44 C 111.75 146.74 123.99 134.99 136.29 123.30 C 137.12 122.43 138.49 121.50 137.93 120.08 C 137.20 119.04 135.59 118.49 134.69 119.65 Z" />
<path fill="#ffffff" opacity="1.00" d=" M 159.01 137.00 C 207.71 137.00 256.41 136.97 305.11 137.02 C 308.16 136.96 310.45 140.06 310.01 142.98 C 309.98 186.69 310.04 230.40 309.98 274.11 C 310.04 277.16 306.93 279.45 304.02 279.01 C 233.31 278.97 162.60 279.04 91.89 278.98 C 88.84 279.05 86.55 275.92 86.99 273.01 C 87.06 245.78 86.90 218.54 87.07 191.31 C 99.37 195.38 113.06 194.77 125.02 189.83 C 137.46 184.71 147.93 174.86 153.62 162.64 C 157.52 154.71 159.22 145.81 159.01 137.00 M 244.44 143.54 C 237.13 145.51 230.80 150.83 227.64 157.71 C 223.73 166.05 224.62 176.49 230.12 183.92 C 235.97 192.20 247.02 196.60 256.91 194.14 C 267.05 192.06 275.44 183.32 277.00 173.07 C 278.43 165.13 275.86 156.59 270.25 150.78 C 263.85 143.82 253.52 141.03 244.44 143.54 M 108.21 206.34 C 104.19 207.80 104.99 212.64 104.99 216.02 C 104.56 218.93 106.83 222.04 109.89 221.98 C 134.29 222.02 158.71 222.01 183.12 221.98 C 185.68 222.01 188.02 219.68 187.98 217.11 C 188.05 215.04 188.05 212.97 187.98 210.90 C 188.02 208.32 185.68 205.98 183.11 206.02 C 159.74 205.96 136.37 206.03 113.01 205.99 C 111.41 206.06 109.74 205.77 108.21 206.34 M 212.22 206.34 C 208.20 207.79 208.98 212.63 208.99 216.01 C 208.56 218.92 210.83 222.04 213.89 221.98 C 238.30 222.02 262.71 222.01 287.11 221.98 C 289.68 222.01 292.02 219.68 291.98 217.11 C 292.05 215.04 292.05 212.97 291.98 210.90 C 292.02 208.32 289.68 205.98 287.10 206.02 C 263.74 205.96 240.37 206.03 217.00 205.99 C 215.41 206.06 213.74 205.77 212.22 206.34 M 108.21 229.33 C 104.21 230.81 104.98 235.63 104.99 239.01 C 104.56 241.93 106.82 245.04 109.88 244.98 C 134.29 245.01 158.70 245.01 183.11 244.98 C 185.68 245.02 188.02 242.68 187.98 240.10 C 188.05 238.03 188.05 235.95 187.98 233.88 C 188.01 231.31 185.68 228.98 183.11 229.02 C 159.74 228.96 136.36 229.03 112.99 228.99 C 111.40 229.06 109.74 228.77 108.21 229.33 M 212.21 229.34 C 208.20 230.82 208.98 235.64 208.99 239.02 C 208.56 241.93 210.83 245.04 213.88 244.98 C 238.29 245.01 262.70 245.01 287.11 244.98 C 289.69 245.02 292.02 242.67 291.98 240.10 C 292.05 238.03 292.05 235.96 291.98 233.89 C 292.02 231.32 289.68 228.98 287.11 229.02 C 263.74 228.96 240.37 229.03 217.00 228.99 C 215.41 229.06 213.73 228.77 212.21 229.34 M 108.22 250.34 C 104.20 251.80 104.98 256.63 104.99 260.01 C 104.55 262.92 106.82 266.04 109.88 265.98 C 134.29 266.01 158.70 266.01 183.11 265.98 C 185.69 266.02 188.02 263.67 187.98 261.10 C 188.05 259.03 188.05 256.96 187.98 254.89 C 188.02 252.31 185.68 249.98 183.10 250.02 C 159.73 249.96 136.37 250.03 113.00 249.99 C 111.41 250.06 109.74 249.77 108.22 250.34 M 212.22 250.33 C 208.20 251.79 208.98 256.64 208.99 260.02 C 208.55 262.93 210.83 266.05 213.90 265.98 C 238.30 266.01 262.71 266.02 287.11 265.98 C 289.69 266.02 292.02 263.68 291.98 261.10 C 292.05 259.03 292.05 256.95 291.98 254.88 C 292.01 252.31 289.68 249.98 287.11 250.02 C 263.74 249.96 240.37 250.03 217.00 249.99 C 215.41 250.06 213.74 249.77 212.22 250.33 Z" />
<path fill="#ffffff" opacity="1.00" d=" M 230.59 166.17 C 231.61 156.18 240.88 147.65 251.00 147.92 C 261.63 147.32 271.48 156.48 272.10 167.03 C 272.60 172.08 270.86 177.07 268.01 181.19 C 263.82 177.10 257.88 175.75 252.26 175.08 C 245.93 175.21 239.33 176.88 234.47 181.13 C 231.61 176.73 229.85 171.45 230.59 166.17 M 248.40 153.48 C 244.80 154.62 242.15 158.19 242.11 161.96 C 241.90 166.02 244.89 169.94 248.81 170.95 C 250.58 171.20 252.41 171.26 254.18 170.88 C 258.50 169.47 261.54 164.52 260.24 160.05 C 259.21 154.99 253.24 151.58 248.40 153.48 Z" />
<path fill="#ffffff" opacity="1.00" d=" M 247.48 161.71 C 247.64 158.11 253.20 157.11 254.72 160.31 C 256.00 162.45 254.67 164.86 252.73 166.02 C 252.00 166.02 250.55 166.03 249.82 166.03 C 248.48 164.98 247.14 163.55 247.48 161.71 Z" />
<path fill="#ffffff" opacity="1.00" d=" M 250.41 180.49 C 255.01 180.51 259.90 181.48 263.61 184.35 C 263.66 184.59 263.77 185.07 263.82 185.31 C 256.78 190.91 245.59 191.13 238.83 185.09 L 238.86 184.42 C 242.07 181.74 246.36 180.93 250.41 180.49 Z" />
<path fill="#ffffff" opacity="1.00" d=" M 110.00 211.00 C 134.33 211.00 158.67 211.00 183.00 211.00 C 183.00 213.00 183.00 215.00 183.00 217.00 C 158.67 217.01 134.33 217.00 110.00 217.00 C 110.00 215.00 110.00 213.00 110.00 211.00 Z" />
<path fill="#ffffff" opacity="1.00" d=" M 214.00 211.00 C 238.33 211.00 262.67 211.00 287.00 211.00 C 287.00 213.00 287.00 215.00 287.00 217.00 C 262.67 217.01 238.33 217.00 214.00 217.00 C 214.00 215.00 214.00 213.00 214.00 211.00 Z" />
<path fill="#ffffff" opacity="1.00" d=" M 110.00 234.00 C 134.33 234.00 158.67 234.00 183.00 234.00 C 183.00 236.00 183.00 238.00 183.00 240.00 C 158.67 240.00 134.33 240.00 110.00 240.00 C 110.00 238.00 110.00 236.00 110.00 234.00 Z" />
<path fill="#ffffff" opacity="1.00" d=" M 214.00 234.00 C 238.33 234.00 262.67 234.00 287.00 234.00 C 286.99 236.00 286.99 238.00 287.00 240.00 C 262.67 240.00 238.33 240.00 214.00 240.00 C 214.00 238.00 214.00 236.00 214.00 234.00 Z" />
<path fill="#ffffff" opacity="1.00" d=" M 110.00 255.00 C 134.33 255.00 158.67 255.00 183.00 255.00 C 183.00 257.00 183.00 259.00 183.00 261.00 C 158.67 261.00 134.33 261.00 110.00 261.00 C 110.00 259.00 110.00 257.00 110.00 255.00 Z" />
<path fill="#ffffff" opacity="1.00" d=" M 214.00 255.00 C 238.33 255.00 262.67 254.99 287.00 255.00 C 287.00 257.00 287.00 259.00 287.00 261.00 C 262.67 261.00 238.33 261.00 214.00 261.00 C 214.00 259.00 214.00 257.00 214.00 255.00 Z" />
</g>
<g id="#192d3eff">
<path fill="#192d3e" opacity="1.00" d=" M 174.37 10.52 C 193.74 9.07 213.37 10.72 232.17 15.64 C 261.66 23.28 289.06 38.86 310.72 60.28 C 334.94 83.97 352.02 114.90 359.07 148.05 C 364.30 172.30 364.29 197.68 359.07 221.94 C 351.93 255.55 334.48 286.89 309.70 310.69 C 282.15 337.64 245.36 354.92 207.03 358.97 C 174.30 362.56 140.55 356.78 111.02 342.17 C 84.80 329.38 61.95 309.82 45.10 286.03 C 21.93 253.51 10.55 212.85 13.45 173.03 C 15.45 141.43 26.45 110.49 44.67 84.60 C 60.82 61.57 82.58 42.45 107.60 29.57 C 128.25 18.75 151.14 12.33 174.37 10.52 M 175.35 17.48 C 150.93 19.28 126.94 26.55 105.65 38.65 C 80.72 52.65 59.52 73.18 44.61 97.56 C 28.04 124.56 19.35 156.36 20.06 188.04 C 20.39 211.04 25.62 233.94 35.22 254.84 C 53.70 295.45 89.01 327.97 131.00 343.04 C 167.92 356.47 209.59 356.31 246.38 342.52 C 284.57 328.42 317.14 299.91 336.24 263.98 C 353.02 232.79 359.41 196.16 354.27 161.13 C 349.81 129.20 335.72 98.70 314.41 74.52 C 292.81 49.67 263.73 31.46 231.96 22.84 C 213.58 17.86 194.34 16.04 175.35 17.48 Z" />
<path fill="#192d3e" opacity="1.00" d=" M 90.84 85.63 C 108.20 81.16 127.63 86.04 140.82 98.19 C 150.57 106.82 156.87 119.12 158.59 132.00 C 207.42 132.02 256.25 131.97 305.07 132.02 C 310.35 131.94 315.13 136.67 314.99 141.97 C 315.01 185.99 315.01 230.02 314.99 274.04 C 315.04 277.93 312.53 281.66 308.96 283.16 C 306.48 284.33 303.66 283.94 301.01 284.01 C 231.32 283.98 161.63 284.02 91.95 283.99 C 87.38 284.06 83.09 280.54 82.23 276.07 C 81.81 273.40 82.04 270.68 82.00 268.00 C 81.97 241.79 82.06 215.59 81.96 189.39 C 69.96 184.17 59.91 174.52 54.38 162.64 C 47.21 147.97 47.21 130.03 54.38 115.36 C 61.24 100.65 75.04 89.37 90.84 85.63 M 97.30 89.45 C 85.61 91.04 74.54 96.87 66.73 105.73 C 58.81 114.50 54.22 126.17 54.01 137.99 C 53.72 150.47 58.36 162.99 66.71 172.27 C 76.90 183.86 92.70 190.17 108.07 188.84 C 121.20 187.77 133.79 181.32 142.23 171.19 C 151.73 160.03 155.93 144.53 153.18 130.12 C 151.11 118.27 144.50 107.30 135.06 99.86 C 124.59 91.45 110.60 87.60 97.30 89.45 M 159.01 137.00 C 159.22 145.81 157.52 154.71 153.62 162.64 C 147.93 174.86 137.46 184.71 125.02 189.83 C 113.06 194.77 99.37 195.38 87.07 191.31 C 86.90 218.54 87.06 245.78 86.99 273.01 C 86.55 275.92 88.84 279.05 91.89 278.98 C 162.60 279.04 233.31 278.97 304.02 279.01 C 306.93 279.45 310.04 277.16 309.98 274.11 C 310.04 230.40 309.98 186.69 310.01 142.98 C 310.45 140.06 308.16 136.96 305.11 137.02 C 256.41 136.97 207.71 137.00 159.01 137.00 Z" />
<path fill="#192d3e" opacity="1.00" d=" M 134.69 119.65 C 135.59 118.49 137.20 119.04 137.93 120.08 C 138.49 121.50 137.12 122.43 136.29 123.30 C 123.99 134.99 111.75 146.74 99.46 158.44 C 97.34 160.41 95.39 162.60 93.00 164.26 C 91.52 163.35 90.08 162.37 88.93 161.07 C 83.13 154.88 77.15 148.87 71.45 142.60 C 70.43 141.66 71.13 139.86 72.22 139.33 C 73.47 138.30 74.74 139.52 75.57 140.41 C 81.52 146.62 87.45 152.85 93.37 159.08 C 107.14 145.93 120.88 132.75 134.69 119.65 Z" />
<path fill="#192d3e" opacity="1.00" d=" M 244.44 143.54 C 253.52 141.03 263.85 143.82 270.25 150.78 C 275.86 156.59 278.43 165.13 277.00 173.07 C 275.44 183.32 267.05 192.06 256.91 194.14 C 247.02 196.60 235.97 192.20 230.12 183.92 C 224.62 176.49 223.73 166.05 227.64 157.71 C 230.80 150.83 237.13 145.51 244.44 143.54 M 230.59 166.17 C 229.85 171.45 231.61 176.73 234.47 181.13 C 239.33 176.88 245.93 175.21 252.26 175.08 C 257.88 175.75 263.82 177.10 268.01 181.19 C 270.86 177.07 272.60 172.08 272.10 167.03 C 271.48 156.48 261.63 147.32 251.00 147.92 C 240.88 147.65 231.61 156.18 230.59 166.17 M 250.41 180.49 C 246.36 180.93 242.07 181.74 238.86 184.42 L 238.83 185.09 C 245.59 191.13 256.78 190.91 263.82 185.31 C 263.77 185.07 263.66 184.59 263.61 184.35 C 259.90 181.48 255.01 180.51 250.41 180.49 Z" />
<path fill="#192d3e" opacity="1.00" d=" M 248.40 153.48 C 253.24 151.58 259.21 154.99 260.24 160.05 C 261.54 164.52 258.50 169.47 254.18 170.88 C 252.41 171.26 250.58 171.20 248.81 170.95 C 244.89 169.94 241.90 166.02 242.11 161.96 C 242.15 158.19 244.80 154.62 248.40 153.48 M 247.48 161.71 C 247.14 163.55 248.48 164.98 249.82 166.03 C 250.55 166.03 252.00 166.02 252.73 166.02 C 254.67 164.86 256.00 162.45 254.72 160.31 C 253.20 157.11 247.64 158.11 247.48 161.71 Z" />
<path fill="#192d3e" opacity="1.00" d=" M 108.21 206.34 C 109.74 205.77 111.41 206.06 113.01 205.99 C 136.37 206.03 159.74 205.96 183.11 206.02 C 185.68 205.98 188.02 208.32 187.98 210.90 C 188.05 212.97 188.05 215.04 187.98 217.11 C 188.02 219.68 185.68 222.01 183.12 221.98 C 158.71 222.01 134.29 222.02 109.89 221.98 C 106.83 222.04 104.56 218.93 104.99 216.02 C 104.99 212.64 104.19 207.80 108.21 206.34 M 110.00 211.00 C 110.00 213.00 110.00 215.00 110.00 217.00 C 134.33 217.00 158.67 217.01 183.00 217.00 C 183.00 215.00 183.00 213.00 183.00 211.00 C 158.67 211.00 134.33 211.00 110.00 211.00 Z" />
<path fill="#192d3e" opacity="1.00" d=" M 212.22 206.34 C 213.74 205.77 215.41 206.06 217.00 205.99 C 240.37 206.03 263.74 205.96 287.10 206.02 C 289.68 205.98 292.02 208.32 291.98 210.90 C 292.05 212.97 292.05 215.04 291.98 217.11 C 292.02 219.68 289.68 222.01 287.11 221.98 C 262.71 222.01 238.30 222.02 213.89 221.98 C 210.83 222.04 208.56 218.92 208.99 216.01 C 208.98 212.63 208.20 207.79 212.22 206.34 M 214.00 211.00 C 214.00 213.00 214.00 215.00 214.00 217.00 C 238.33 217.00 262.67 217.01 287.00 217.00 C 287.00 215.00 287.00 213.00 287.00 211.00 C 262.67 211.00 238.33 211.00 214.00 211.00 Z" />
<path fill="#192d3e" opacity="1.00" d=" M 108.21 229.33 C 109.74 228.77 111.40 229.06 112.99 228.99 C 136.36 229.03 159.74 228.96 183.11 229.02 C 185.68 228.98 188.01 231.31 187.98 233.88 C 188.05 235.95 188.05 238.03 187.98 240.10 C 188.02 242.68 185.68 245.02 183.11 244.98 C 158.70 245.01 134.29 245.01 109.88 244.98 C 106.82 245.04 104.56 241.93 104.99 239.01 C 104.98 235.63 104.21 230.81 108.21 229.33 M 110.00 234.00 C 110.00 236.00 110.00 238.00 110.00 240.00 C 134.33 240.00 158.67 240.00 183.00 240.00 C 183.00 238.00 183.00 236.00 183.00 234.00 C 158.67 234.00 134.33 234.00 110.00 234.00 Z" />
<path fill="#192d3e" opacity="1.00" d=" M 212.21 229.34 C 213.73 228.77 215.41 229.06 217.00 228.99 C 240.37 229.03 263.74 228.96 287.11 229.02 C 289.68 228.98 292.02 231.32 291.98 233.89 C 292.05 235.96 292.05 238.03 291.98 240.10 C 292.02 242.67 289.69 245.02 287.11 244.98 C 262.70 245.01 238.29 245.01 213.88 244.98 C 210.83 245.04 208.56 241.93 208.99 239.02 C 208.98 235.64 208.20 230.82 212.21 229.34 M 214.00 234.00 C 214.00 236.00 214.00 238.00 214.00 240.00 C 238.33 240.00 262.67 240.00 287.00 240.00 C 286.99 238.00 286.99 236.00 287.00 234.00 C 262.67 234.00 238.33 234.00 214.00 234.00 Z" />
<path fill="#192d3e" opacity="1.00" d=" M 108.22 250.34 C 109.74 249.77 111.41 250.06 113.00 249.99 C 136.37 250.03 159.73 249.96 183.10 250.02 C 185.68 249.98 188.02 252.31 187.98 254.89 C 188.05 256.96 188.05 259.03 187.98 261.10 C 188.02 263.67 185.69 266.02 183.11 265.98 C 158.70 266.01 134.29 266.01 109.88 265.98 C 106.82 266.04 104.55 262.92 104.99 260.01 C 104.98 256.63 104.20 251.80 108.22 250.34 M 110.00 255.00 C 110.00 257.00 110.00 259.00 110.00 261.00 C 134.33 261.00 158.67 261.00 183.00 261.00 C 183.00 259.00 183.00 257.00 183.00 255.00 C 158.67 255.00 134.33 255.00 110.00 255.00 Z" />
<path fill="#192d3e" opacity="1.00" d=" M 212.22 250.33 C 213.74 249.77 215.41 250.06 217.00 249.99 C 240.37 250.03 263.74 249.96 287.11 250.02 C 289.68 249.98 292.01 252.31 291.98 254.88 C 292.05 256.95 292.05 259.03 291.98 261.10 C 292.02 263.68 289.69 266.02 287.11 265.98 C 262.71 266.02 238.30 266.01 213.90 265.98 C 210.83 266.05 208.55 262.93 208.99 260.02 C 208.98 256.64 208.20 251.79 212.22 250.33 M 214.00 255.00 C 214.00 257.00 214.00 259.00 214.00 261.00 C 238.33 261.00 262.67 261.00 287.00 261.00 C 287.00 259.00 287.00 257.00 287.00 255.00 C 262.67 254.99 238.33 255.00 214.00 255.00 Z" />
</g>
</svg>
