<?xml version="1.0" encoding="UTF-8" ?>
<!DOCTYPE svg PUBLIC "-//W3C//DTD SVG 1.1//EN" "http://www.w3.org/Graphics/SVG/1.1/DTD/svg11.dtd">
<svg width="400pt" height="395pt" viewBox="0 0 400 395" version="1.1" xmlns="http://www.w3.org/2000/svg">
<g id="#ffffffff">
<path fill="#ffffff" opacity="1.00" d=" M 0.00 0.00 L 400.00 0.00 L 400.00 395.00 L 0.00 395.00 L 0.00 0.00 M 184.36 23.53 C 145.06 26.44 106.98 43.27 78.36 70.35 C 52.50 94.39 34.29 126.52 26.93 161.05 C 19.86 193.95 22.38 228.94 34.49 260.38 C 46.94 293.36 69.81 322.24 98.84 342.20 C 119.77 356.65 143.89 366.42 168.98 370.60 C 195.64 375.05 223.35 373.31 249.20 365.37 C 274.42 357.68 297.88 344.16 317.13 326.14 C 335.96 308.73 350.83 287.08 360.40 263.29 C 373.53 230.76 376.48 194.22 368.82 159.99 C 361.37 125.84 343.22 94.15 317.64 70.35 C 302.91 56.37 285.60 45.21 267.00 37.13 C 241.10 25.96 212.47 21.36 184.36 23.53 Z" />
<path fill="#ffffff" opacity="1.00" d=" M 185.35 30.48 C 204.99 28.99 224.88 30.99 243.83 36.36 C 274.87 45.18 303.24 63.16 324.42 87.52 C 346.36 112.42 360.63 144.02 364.65 176.97 C 366.97 194.61 366.26 212.61 362.91 230.08 C 356.94 261.08 341.92 290.27 320.16 313.15 C 300.79 333.87 276.01 349.41 249.01 358.08 C 215.76 368.74 179.17 368.63 145.99 357.75 C 117.14 348.34 90.94 330.93 71.12 307.94 C 46.09 279.37 31.30 242.01 30.14 204.02 C 29.06 176.78 34.89 149.32 46.81 124.81 C 59.43 98.78 78.92 76.13 102.74 59.72 C 127.03 42.88 155.85 32.62 185.35 30.48 M 98.26 109.41 C 95.44 110.22 92.97 112.30 91.84 115.03 C 90.69 117.52 91.05 120.34 90.99 123.00 C 91.03 172.69 90.97 222.38 91.02 272.06 C 90.89 277.35 95.68 282.10 100.96 281.99 C 164.98 282.02 228.99 281.98 293.01 282.01 C 296.92 282.32 300.87 280.26 302.76 276.81 C 304.35 274.16 303.96 270.95 304.01 268.00 C 303.97 218.32 304.03 168.64 303.98 118.96 C 304.08 114.37 300.54 110.10 296.05 109.25 C 293.39 108.81 290.68 109.04 287.99 109.00 C 227.66 109.00 167.32 109.00 106.99 109.00 C 104.08 109.07 101.12 108.73 98.26 109.41 Z" />
<path fill="#ffffff" opacity="1.00" d=" M 99.24 114.33 C 100.77 113.82 102.42 114.05 104.00 113.98 C 167.38 114.04 230.75 113.94 294.12 114.03 C 297.17 113.98 299.43 117.06 299.00 119.97 C 298.97 170.69 299.05 221.41 298.97 272.13 C 299.03 275.19 295.92 277.41 293.02 277.00 C 229.34 277.00 165.66 277.00 101.97 277.00 C 99.07 277.42 95.97 275.17 96.03 272.12 C 95.95 221.40 96.03 170.68 96.00 119.97 C 95.74 117.63 96.96 115.15 99.24 114.33 M 182.27 130.29 C 180.56 131.18 180.10 133.21 180.24 134.98 C 180.28 153.33 180.18 171.67 180.28 190.02 C 180.24 192.40 182.65 194.33 184.97 194.09 C 214.31 194.16 243.65 194.08 272.99 194.13 C 274.67 194.17 276.59 194.16 277.82 192.82 C 279.15 191.60 279.03 189.64 279.10 188.00 C 279.07 170.33 279.11 152.66 279.08 134.99 C 279.41 132.45 277.74 129.68 274.99 129.67 C 245.66 129.57 216.33 129.68 187.00 129.61 C 185.42 129.74 183.64 129.31 182.27 130.29 M 138.37 138.51 C 129.41 140.76 122.31 148.79 121.10 157.93 C 119.26 168.86 126.44 180.35 136.98 183.66 C 145.89 186.72 156.46 183.80 162.44 176.49 C 169.70 168.21 169.80 154.75 162.66 146.37 C 157.01 139.32 147.09 136.01 138.37 138.51 M 183.22 208.33 C 178.85 210.04 180.09 215.45 180.03 219.12 C 179.97 222.18 183.06 224.43 185.98 224.01 C 215.36 223.97 244.75 224.04 274.13 223.97 C 276.70 224.00 279.02 221.68 278.97 219.11 C 279.06 217.04 279.06 214.96 278.97 212.89 C 279.02 210.31 276.69 207.99 274.12 208.03 C 245.41 207.95 216.71 208.04 188.00 207.98 C 186.41 208.04 184.76 207.82 183.22 208.33 M 138.36 213.51 C 129.74 215.69 122.81 223.20 121.26 231.94 C 119.63 239.99 122.74 248.74 128.97 254.07 C 135.98 260.40 146.94 261.64 155.26 257.23 C 162.70 253.44 167.88 245.41 167.93 237.01 C 168.28 230.17 165.29 223.33 160.19 218.79 C 154.44 213.48 145.90 211.39 138.36 213.51 M 183.21 231.33 C 178.86 233.05 180.09 238.45 180.03 242.12 C 179.97 245.19 183.06 247.43 185.98 247.01 C 215.35 246.97 244.73 247.04 274.11 246.97 C 276.69 247.02 279.00 244.69 278.97 242.12 C 279.06 240.03 279.06 237.95 278.97 235.87 C 279.01 233.29 276.68 230.99 274.12 231.03 C 245.41 230.95 216.70 231.04 188.00 230.98 C 186.40 231.04 184.75 230.82 183.21 231.33 M 183.22 252.33 C 178.84 254.03 180.10 259.44 180.03 263.11 C 179.96 266.18 183.06 268.44 185.98 268.01 C 215.36 267.97 244.74 268.05 274.13 267.97 C 276.70 268.01 279.01 265.69 278.97 263.12 C 279.06 261.04 279.06 258.95 278.97 256.88 C 279.01 254.31 276.69 251.98 274.12 252.03 C 245.41 251.95 216.71 252.04 188.00 251.98 C 186.41 252.04 184.75 251.82 183.22 252.33 Z" />
<path fill="#ffffff" opacity="1.00" d=" M 183.18 132.30 C 184.52 131.25 186.43 131.95 188.01 131.73 C 216.68 131.78 245.36 131.72 274.03 131.76 C 275.44 131.44 277.04 132.38 276.85 133.95 C 276.87 152.64 276.94 171.34 276.82 190.04 C 277.00 191.55 275.24 192.05 274.06 191.90 C 244.35 191.92 214.63 191.93 184.92 191.89 C 183.64 192.08 182.20 191.20 182.40 189.79 C 182.28 171.86 182.41 153.92 182.34 135.98 C 182.60 134.80 181.83 132.98 183.18 132.30 M 187.87 139.96 C 187.82 155.59 187.87 171.22 187.84 186.86 C 201.84 186.84 215.84 186.85 229.84 186.85 C 229.80 171.21 229.86 155.56 229.82 139.92 C 230.10 138.33 228.65 136.90 227.07 137.28 C 214.71 137.27 202.35 137.21 190.00 137.31 C 188.54 137.09 187.74 138.71 187.87 139.96 M 236.35 139.50 C 234.51 140.59 236.68 141.92 237.93 141.50 C 248.95 141.51 259.96 141.52 270.97 141.49 C 272.27 141.76 273.30 140.71 272.40 139.51 C 260.39 139.28 248.35 139.31 236.35 139.50 M 236.39 147.57 L 235.79 148.00 L 235.79 148.98 L 236.38 149.44 C 247.90 149.72 259.45 149.50 270.98 149.54 C 272.30 149.89 273.27 148.69 272.37 147.55 C 260.39 147.37 248.37 147.35 236.39 147.57 M 236.47 156.45 C 236.18 156.87 235.60 157.72 235.31 158.15 C 239.51 158.74 243.77 158.37 248.00 158.46 C 256.07 158.38 264.15 158.63 272.21 158.35 C 273.56 157.24 272.34 156.19 270.99 156.36 C 259.49 156.39 247.97 156.20 236.47 156.45 M 235.41 165.86 C 235.65 166.32 236.14 167.23 236.39 167.69 C 248.57 167.78 260.78 167.99 272.95 167.57 C 272.76 167.11 272.36 166.20 272.16 165.74 C 259.91 165.69 247.65 165.48 235.41 165.86 M 235.82 173.88 C 235.92 174.34 236.12 175.25 236.22 175.70 C 248.13 175.95 260.08 175.85 271.99 175.76 C 272.26 175.35 272.81 174.53 273.08 174.13 C 269.09 173.38 265.02 173.84 261.00 173.73 C 252.61 173.83 244.21 173.52 235.82 173.88 M 235.41 182.83 C 235.65 183.28 236.15 184.20 236.40 184.65 C 248.56 184.78 260.75 184.90 272.91 184.58 C 272.72 184.11 272.34 183.17 272.14 182.70 C 259.90 182.66 247.64 182.44 235.41 182.83 Z" />
<path fill="#ffffff" opacity="1.00" d=" M 189.95 139.40 C 202.55 139.36 215.15 139.39 227.74 139.39 C 227.75 150.62 227.65 161.85 227.80 173.08 C 225.10 169.11 221.33 165.85 216.65 164.48 C 219.83 158.74 219.66 150.90 215.10 145.93 C 212.92 143.39 209.24 141.99 206.00 143.17 C 203.45 143.87 201.51 145.92 200.14 148.10 C 197.21 153.15 197.50 159.68 200.34 164.70 C 195.97 166.21 192.37 169.29 189.90 173.17 C 189.99 161.91 189.90 150.66 189.95 139.40 Z" />
<path fill="#ffffff" opacity="1.00" d=" M 140.15 140.30 C 149.11 138.27 158.92 142.96 163.22 151.02 C 166.82 157.41 166.70 165.67 162.99 171.99 C 159.22 178.65 151.65 182.97 143.99 182.70 C 136.17 182.65 128.66 177.83 125.25 170.81 C 122.99 166.49 122.58 161.39 123.50 156.66 C 125.21 148.57 132.03 141.86 140.15 140.30 M 157.35 151.99 C 151.25 157.54 145.51 163.49 139.36 169.00 C 136.60 165.99 133.79 163.05 130.96 160.11 C 130.38 160.72 129.04 161.75 130.49 162.46 C 133.32 165.49 136.21 168.47 139.15 171.41 C 145.90 165.26 152.39 158.82 159.02 152.54 C 158.60 152.40 157.76 152.13 157.35 151.99 Z" />
<path fill="#ffffff" opacity="1.00" d=" M 206.20 145.33 C 209.30 143.85 212.76 145.90 214.49 148.51 C 217.65 153.30 217.51 160.29 213.74 164.71 C 211.68 167.33 207.59 168.37 204.83 166.23 C 198.18 161.38 198.53 149.00 206.20 145.33 Z" />
<path fill="#ffffff" opacity="1.00" d=" M 191.70 174.66 C 193.69 170.63 197.51 167.80 201.76 166.51 C 203.78 168.19 206.21 169.79 208.98 169.48 C 211.45 169.46 213.44 167.83 215.26 166.36 C 220.35 167.60 224.85 171.24 226.70 176.19 C 227.85 178.89 227.71 181.86 227.79 184.73 C 215.16 184.75 202.53 184.77 189.90 184.72 C 190.01 181.32 189.99 177.73 191.70 174.66 Z" />
<path fill="#ffffff" opacity="1.00" d=" M 181.99 211.96 C 182.63 211.31 183.26 210.66 183.90 210.02 C 214.30 209.99 244.70 209.98 275.09 210.02 C 275.72 210.66 276.35 211.31 276.98 211.96 C 277.00 214.65 277.00 217.34 276.98 220.04 C 276.35 220.68 275.72 221.33 275.10 221.98 C 244.70 222.02 214.31 222.01 183.91 221.99 C 183.28 221.34 182.64 220.70 182.01 220.06 C 182.01 217.36 182.00 214.66 181.99 211.96 Z" />
<path fill="#ffffff" opacity="1.00" d=" M 140.15 215.30 C 149.11 213.27 158.92 217.96 163.23 226.02 C 166.94 232.62 166.68 241.20 162.63 247.59 C 158.76 253.92 151.41 257.96 143.98 257.70 C 136.61 257.64 129.51 253.38 125.88 246.99 C 121.73 240.00 122.14 230.60 126.89 224.00 C 130.01 219.57 134.81 216.34 140.15 215.30 M 157.46 226.74 C 151.47 232.54 145.51 238.36 139.37 244.00 C 136.67 241.20 134.18 238.18 131.26 235.59 C 130.79 235.62 129.84 235.67 129.37 235.69 C 132.07 239.74 135.86 242.89 139.17 246.43 C 145.85 240.30 152.28 233.89 158.90 227.69 C 158.54 227.45 157.82 226.98 157.46 226.74 Z" />
<path fill="#ffffff" opacity="1.00" d=" M 182.01 234.94 C 182.64 234.29 183.27 233.65 183.90 233.02 C 214.30 232.98 244.69 232.99 275.08 233.02 C 275.71 233.66 276.35 234.31 276.99 234.96 C 277.00 237.65 277.00 240.35 276.98 243.04 C 276.35 243.69 275.72 244.33 275.09 244.99 C 244.70 245.01 214.31 245.02 183.92 244.98 C 183.28 244.35 182.65 243.71 182.01 243.08 C 182.00 240.36 182.00 237.65 182.01 234.94 Z" />
<path fill="#ffffff" opacity="1.00" d=" M 182.01 255.92 C 182.65 255.28 183.28 254.65 183.92 254.02 C 214.31 253.99 244.69 253.99 275.08 254.02 C 275.71 254.66 276.35 255.31 276.99 255.97 C 277.00 258.66 277.00 261.35 276.99 264.04 C 276.35 264.69 275.71 265.33 275.08 265.99 C 244.70 266.01 214.31 266.01 183.92 265.98 C 183.28 265.35 182.65 264.71 182.02 264.08 C 182.00 261.36 182.00 258.64 182.01 255.92 Z" />
</g>
<g id="#192d3eff">
<path fill="#192d3e" opacity="1.00" d=" M 184.36 23.53 C 212.47 21.36 241.10 25.96 267.00 37.13 C 285.60 45.21 302.91 56.37 317.64 70.35 C 343.22 94.15 361.37 125.84 368.82 159.99 C 376.48 194.22 373.53 230.76 360.40 263.29 C 350.83 287.08 335.96 308.73 317.13 326.14 C 297.88 344.16 274.42 357.68 249.20 365.37 C 223.35 373.31 195.64 375.05 168.98 370.60 C 143.89 366.42 119.77 356.65 98.84 342.20 C 69.81 322.24 46.94 293.36 34.49 260.38 C 22.38 228.94 19.86 193.95 26.93 161.05 C 34.29 126.52 52.50 94.39 78.36 70.35 C 106.98 43.27 145.06 26.44 184.36 23.53 M 185.35 30.48 C 155.85 32.62 127.03 42.88 102.74 59.72 C 78.92 76.13 59.43 98.78 46.81 124.81 C 34.89 149.32 29.06 176.78 30.14 204.02 C 31.30 242.01 46.09 279.37 71.12 307.94 C 90.94 330.93 117.14 348.34 145.99 357.75 C 179.17 368.63 215.76 368.74 249.01 358.08 C 276.01 349.41 300.79 333.87 320.16 313.15 C 341.92 290.27 356.94 261.08 362.91 230.08 C 366.26 212.61 366.97 194.61 364.65 176.97 C 360.63 144.02 346.36 112.42 324.42 87.52 C 303.24 63.16 274.87 45.18 243.83 36.36 C 224.88 30.99 204.99 28.99 185.35 30.48 Z" />
<path fill="#192d3e" opacity="1.00" d=" M 98.26 109.41 C 101.12 108.73 104.08 109.07 106.99 109.00 C 167.32 109.00 227.66 109.00 287.99 109.00 C 290.68 109.04 293.39 108.81 296.05 109.25 C 300.54 110.10 304.08 114.37 303.98 118.96 C 304.03 168.64 303.97 218.32 304.01 268.00 C 303.96 270.95 304.35 274.16 302.76 276.81 C 300.87 280.26 296.92 282.32 293.01 282.01 C 228.99 281.98 164.98 282.02 100.96 281.99 C 95.68 282.10 90.89 277.35 91.02 272.06 C 90.97 222.38 91.03 172.69 90.99 123.00 C 91.05 120.34 90.69 117.52 91.84 115.03 C 92.97 112.30 95.44 110.22 98.26 109.41 M 99.24 114.33 C 96.96 115.15 95.74 117.63 96.00 119.97 C 96.03 170.68 95.95 221.40 96.03 272.12 C 95.97 275.17 99.07 277.42 101.97 277.00 C 165.66 277.00 229.34 277.00 293.02 277.00 C 295.92 277.41 299.03 275.19 298.97 272.13 C 299.05 221.41 298.97 170.69 299.00 119.97 C 299.43 117.06 297.17 113.98 294.12 114.03 C 230.75 113.94 167.38 114.04 104.00 113.98 C 102.42 114.05 100.77 113.82 99.24 114.33 Z" />
<path fill="#192d3e" opacity="1.00" d=" M 182.27 130.29 C 183.64 129.31 185.42 129.74 187.00 129.61 C 216.33 129.68 245.66 129.57 274.99 129.67 C 277.74 129.68 279.41 132.45 279.08 134.99 C 279.11 152.66 279.07 170.33 279.10 188.00 C 279.03 189.64 279.15 191.60 277.82 192.82 C 276.59 194.16 274.67 194.17 272.99 194.13 C 243.65 194.08 214.31 194.16 184.97 194.09 C 182.65 194.33 180.24 192.40 180.28 190.02 C 180.18 171.67 180.28 153.33 180.24 134.98 C 180.10 133.21 180.56 131.18 182.27 130.29 M 183.18 132.30 C 181.83 132.98 182.60 134.80 182.34 135.98 C 182.41 153.92 182.28 171.86 182.40 189.79 C 182.20 191.20 183.64 192.08 184.92 191.89 C 214.63 191.93 244.35 191.92 274.06 191.90 C 275.24 192.05 277.00 191.55 276.82 190.04 C 276.94 171.34 276.87 152.64 276.85 133.95 C 277.04 132.38 275.44 131.44 274.03 131.76 C 245.36 131.72 216.68 131.78 188.01 131.73 C 186.43 131.95 184.52 131.25 183.18 132.30 Z" />
<path fill="#192d3e" opacity="1.00" d=" M 187.87 139.96 C 187.74 138.71 188.54 137.09 190.00 137.31 C 202.35 137.21 214.71 137.27 227.07 137.28 C 228.65 136.90 230.10 138.33 229.82 139.92 C 229.86 155.56 229.80 171.21 229.84 186.85 C 215.84 186.85 201.84 186.84 187.84 186.86 C 187.87 171.22 187.82 155.59 187.87 139.96 M 189.95 139.40 C 189.90 150.66 189.99 161.91 189.90 173.17 C 192.37 169.29 195.97 166.21 200.34 164.70 C 197.50 159.68 197.21 153.15 200.14 148.10 C 201.51 145.92 203.45 143.87 206.00 143.17 C 209.24 141.99 212.92 143.39 215.10 145.93 C 219.66 150.90 219.83 158.74 216.65 164.48 C 221.33 165.85 225.10 169.11 227.80 173.08 C 227.65 161.85 227.75 150.62 227.74 139.39 C 215.15 139.39 202.55 139.36 189.95 139.40 M 206.20 145.33 C 198.53 149.00 198.18 161.38 204.83 166.23 C 207.59 168.37 211.68 167.33 213.74 164.71 C 217.51 160.29 217.65 153.30 214.49 148.51 C 212.76 145.90 209.30 143.85 206.20 145.33 M 191.70 174.66 C 189.99 177.73 190.01 181.32 189.90 184.72 C 202.53 184.77 215.16 184.75 227.79 184.73 C 227.71 181.86 227.85 178.89 226.70 176.19 C 224.85 171.24 220.35 167.60 215.26 166.36 C 213.44 167.83 211.45 169.46 208.98 169.48 C 206.21 169.79 203.78 168.19 201.76 166.51 C 197.51 167.80 193.69 170.63 191.70 174.66 Z" />
<path fill="#192d3e" opacity="1.00" d=" M 138.37 138.51 C 147.09 136.01 157.01 139.32 162.66 146.37 C 169.80 154.75 169.70 168.21 162.44 176.49 C 156.46 183.80 145.89 186.72 136.98 183.66 C 126.44 180.35 119.26 168.86 121.10 157.93 C 122.31 148.79 129.41 140.76 138.37 138.51 M 140.15 140.30 C 132.03 141.86 125.21 148.57 123.50 156.66 C 122.58 161.39 122.99 166.49 125.25 170.81 C 128.66 177.83 136.17 182.65 143.99 182.70 C 151.65 182.97 159.22 178.65 162.99 171.99 C 166.70 165.67 166.82 157.41 163.22 151.02 C 158.92 142.96 149.11 138.27 140.15 140.30 Z" />
<path fill="#192d3e" opacity="1.00" d=" M 236.35 139.50 C 248.35 139.31 260.39 139.28 272.40 139.51 C 273.30 140.71 272.27 141.76 270.97 141.49 C 259.96 141.52 248.95 141.51 237.93 141.50 C 236.68 141.92 234.51 140.59 236.35 139.50 Z" />
<path fill="#192d3e" opacity="1.00" d=" M 236.39 147.57 C 248.37 147.35 260.39 147.37 272.37 147.55 C 273.27 148.69 272.30 149.89 270.98 149.54 C 259.45 149.50 247.90 149.72 236.38 149.44 L 235.79 148.98 L 235.79 148.00 L 236.39 147.57 Z" />
<path fill="#192d3e" opacity="1.00" d=" M 157.35 151.99 C 157.76 152.13 158.60 152.40 159.02 152.54 C 152.39 158.82 145.90 165.26 139.15 171.41 C 136.21 168.47 133.32 165.49 130.49 162.46 C 129.04 161.75 130.38 160.72 130.96 160.11 C 133.79 163.05 136.60 165.99 139.36 169.00 C 145.51 163.49 151.25 157.54 157.35 151.99 Z" />
<path fill="#192d3e" opacity="1.00" d=" M 236.47 156.45 C 247.97 156.20 259.49 156.39 270.99 156.36 C 272.34 156.19 273.56 157.24 272.21 158.35 C 264.15 158.63 256.07 158.38 248.00 158.46 C 243.77 158.37 239.51 158.74 235.31 158.15 C 235.60 157.72 236.18 156.87 236.47 156.45 Z" />
<path fill="#192d3e" opacity="1.00" d=" M 235.41 165.86 C 247.65 165.48 259.91 165.69 272.16 165.74 C 272.36 166.20 272.76 167.11 272.95 167.57 C 260.78 167.99 248.57 167.78 236.39 167.69 C 236.14 167.23 235.65 166.32 235.41 165.86 Z" />
<path fill="#192d3e" opacity="1.00" d=" M 235.82 173.88 C 244.21 173.52 252.61 173.83 261.00 173.73 C 265.02 173.84 269.09 173.38 273.08 174.13 C 272.81 174.53 272.26 175.35 271.99 175.76 C 260.08 175.85 248.13 175.95 236.22 175.70 C 236.12 175.25 235.92 174.34 235.82 173.88 Z" />
<path fill="#192d3e" opacity="1.00" d=" M 235.41 182.83 C 247.64 182.44 259.90 182.66 272.14 182.70 C 272.34 183.17 272.72 184.11 272.91 184.58 C 260.75 184.90 248.56 184.78 236.40 184.65 C 236.15 184.20 235.65 183.28 235.41 182.83 Z" />
<path fill="#192d3e" opacity="1.00" d=" M 183.22 208.33 C 184.76 207.82 186.41 208.04 188.00 207.98 C 216.71 208.04 245.41 207.95 274.12 208.03 C 276.69 207.99 279.02 210.31 278.97 212.89 C 279.06 214.96 279.06 217.04 278.97 219.11 C 279.02 221.68 276.70 224.00 274.13 223.97 C 244.75 224.04 215.36 223.97 185.98 224.01 C 183.06 224.43 179.97 222.18 180.03 219.12 C 180.09 215.45 178.85 210.04 183.22 208.33 M 181.99 211.96 C 182.00 214.66 182.01 217.36 182.01 220.06 C 182.64 220.70 183.28 221.34 183.91 221.99 C 214.31 222.01 244.70 222.02 275.10 221.98 C 275.72 221.33 276.35 220.68 276.98 220.04 C 277.00 217.34 277.00 214.65 276.98 211.96 C 276.35 211.31 275.72 210.66 275.09 210.02 C 244.70 209.98 214.30 209.99 183.90 210.02 C 183.26 210.66 182.63 211.31 181.99 211.96 Z" />
<path fill="#192d3e" opacity="1.00" d=" M 138.36 213.51 C 145.90 211.39 154.44 213.48 160.19 218.79 C 165.29 223.33 168.28 230.17 167.93 237.01 C 167.88 245.41 162.70 253.44 155.26 257.23 C 146.94 261.64 135.98 260.40 128.97 254.07 C 122.74 248.74 119.63 239.99 121.26 231.94 C 122.81 223.20 129.74 215.69 138.36 213.51 M 140.15 215.30 C 134.81 216.34 130.01 219.57 126.89 224.00 C 122.14 230.60 121.73 240.00 125.88 246.99 C 129.51 253.38 136.61 257.64 143.98 257.70 C 151.41 257.96 158.76 253.92 162.63 247.59 C 166.68 241.20 166.94 232.62 163.23 226.02 C 158.92 217.96 149.11 213.27 140.15 215.30 Z" />
<path fill="#192d3e" opacity="1.00" d=" M 157.46 226.74 C 157.82 226.98 158.54 227.45 158.90 227.69 C 152.28 233.89 145.85 240.30 139.17 246.43 C 135.86 242.89 132.07 239.74 129.37 235.69 C 129.84 235.67 130.79 235.62 131.26 235.59 C 134.18 238.18 136.67 241.20 139.37 244.00 C 145.51 238.36 151.47 232.54 157.46 226.74 Z" />
<path fill="#192d3e" opacity="1.00" d=" M 183.21 231.33 C 184.75 230.82 186.40 231.04 188.00 230.98 C 216.70 231.04 245.41 230.95 274.12 231.03 C 276.68 230.99 279.01 233.29 278.97 235.87 C 279.06 237.95 279.06 240.03 278.97 242.12 C 279.00 244.69 276.69 247.02 274.11 246.97 C 244.73 247.04 215.35 246.97 185.98 247.01 C 183.06 247.43 179.97 245.19 180.03 242.12 C 180.09 238.45 178.86 233.05 183.21 231.33 M 182.01 234.94 C 182.00 237.65 182.00 240.36 182.01 243.08 C 182.65 243.71 183.28 244.35 183.92 244.98 C 214.31 245.02 244.70 245.01 275.09 244.99 C 275.72 244.33 276.35 243.69 276.98 243.04 C 277.00 240.35 277.00 237.65 276.99 234.96 C 276.35 234.31 275.71 233.66 275.08 233.02 C 244.69 232.99 214.30 232.98 183.90 233.02 C 183.27 233.65 182.64 234.29 182.01 234.94 Z" />
<path fill="#192d3e" opacity="1.00" d=" M 183.22 252.33 C 184.75 251.82 186.41 252.04 188.00 251.98 C 216.71 252.04 245.41 251.95 274.12 252.03 C 276.69 251.98 279.01 254.31 278.97 256.88 C 279.06 258.95 279.06 261.04 278.97 263.12 C 279.01 265.69 276.70 268.01 274.13 267.97 C 244.74 268.05 215.36 267.97 185.98 268.01 C 183.06 268.44 179.96 266.18 180.03 263.11 C 180.10 259.44 178.84 254.03 183.22 252.33 M 182.01 255.92 C 182.00 258.64 182.00 261.36 182.02 264.08 C 182.65 264.71 183.28 265.35 183.92 265.98 C 214.31 266.01 244.70 266.01 275.08 265.99 C 275.71 265.33 276.35 264.69 276.99 264.04 C 277.00 261.35 277.00 258.66 276.99 255.97 C 276.35 255.31 275.71 254.66 275.08 254.02 C 244.69 253.99 214.31 253.99 183.92 254.02 C 183.28 254.65 182.65 255.28 182.01 255.92 Z" />
</g>
</svg>
