<?xml version="1.0" encoding="UTF-8" ?>
<!DOCTYPE svg PUBLIC "-//W3C//DTD SVG 1.1//EN" "http://www.w3.org/Graphics/SVG/1.1/DTD/svg11.dtd">
<svg width="368pt" height="371pt" viewBox="0 0 368 371" version="1.1" xmlns="http://www.w3.org/2000/svg">
<g id="#ffffffff">
<path fill="#ffffff" opacity="1.00" d=" M 0.00 0.00 L 368.00 0.00 L 368.00 371.00 L 0.00 371.00 L 0.00 0.00 M 167.38 14.52 C 128.08 17.44 89.99 34.26 61.36 61.35 C 37.18 83.83 19.68 113.38 11.51 145.37 C 4.07 174.30 4.21 205.14 11.86 234.01 C 19.89 264.31 36.26 292.39 58.80 314.20 C 76.34 331.47 97.65 344.85 120.74 353.34 C 155.85 366.26 195.14 367.49 230.97 356.73 C 272.52 344.56 308.91 316.13 331.10 279.01 C 349.84 248.00 358.43 211.03 355.40 174.95 C 352.77 139.81 338.96 105.66 316.63 78.43 C 297.09 54.42 271.07 35.76 242.06 24.96 C 218.33 16.07 192.63 12.60 167.38 14.52 Z" />
<path fill="#ffffff" opacity="1.00" d=" M 168.35 21.48 C 188.17 19.98 208.25 22.03 227.35 27.51 C 256.15 35.83 282.68 51.95 303.16 73.86 C 320.61 92.21 333.75 114.61 341.31 138.77 C 349.66 165.25 351.21 193.81 345.92 221.05 C 339.95 252.06 324.92 281.26 303.17 304.14 C 283.07 325.63 257.16 341.57 228.99 350.02 C 208.94 355.99 187.77 358.17 166.92 356.41 C 137.93 354.04 109.63 343.87 85.74 327.28 C 56.85 307.41 34.41 278.30 22.69 245.24 C 9.34 207.98 9.82 165.99 24.06 129.06 C 37.80 93.00 64.42 62.03 98.00 43.02 C 119.45 30.69 143.68 23.31 168.35 21.48 M 71.25 119.40 C 67.11 120.56 63.94 124.60 64.01 128.94 C 63.98 171.29 64.02 213.65 63.99 256.00 C 64.02 258.34 63.86 260.71 64.23 263.04 C 65.06 267.53 69.37 271.05 73.94 270.99 C 143.62 271.03 213.31 270.98 283.00 271.01 C 285.66 270.94 288.50 271.33 290.99 270.15 C 294.54 268.64 297.04 264.94 296.98 261.06 C 297.03 218.37 296.97 175.69 297.01 133.00 C 296.96 130.05 297.34 126.86 295.77 124.20 C 293.89 120.74 289.93 118.73 286.03 118.99 C 215.69 119.00 145.34 119.01 74.99 118.99 C 73.72 118.95 72.48 119.09 71.25 119.40 Z" />
<path fill="#ffffff" opacity="1.00" d=" M 72.24 124.33 C 74.09 123.74 76.08 124.07 78.00 123.99 C 147.70 124.03 217.40 123.96 287.09 124.02 C 289.68 123.98 292.02 126.31 291.98 128.91 C 292.04 172.62 291.97 216.33 292.01 260.04 C 292.14 261.87 291.57 263.85 290.02 264.96 C 288.33 266.36 286.02 265.94 284.00 266.02 C 213.97 265.96 143.93 266.04 73.90 265.98 C 71.30 266.01 68.98 263.68 69.02 261.09 C 68.97 217.38 69.03 173.67 68.99 129.96 C 68.73 127.63 69.96 125.14 72.24 124.33 M 82.02 141.90 C 81.97 179.27 82.01 216.63 82.00 254.00 C 115.00 254.00 148.00 254.00 181.00 254.00 C 180.99 216.64 181.03 179.28 180.98 141.92 C 181.02 139.33 178.70 136.97 176.10 137.02 C 146.37 136.99 116.64 136.99 86.91 137.02 C 84.31 136.98 81.98 139.31 82.02 141.90 M 196.22 142.33 C 193.79 143.52 195.23 147.55 197.90 146.99 C 224.97 147.01 252.03 147.01 279.09 146.99 C 280.75 147.23 282.42 145.72 282.01 144.00 C 281.81 142.63 280.37 141.85 279.09 142.01 C 253.06 141.98 227.03 142.03 201.00 141.98 C 199.42 142.09 197.73 141.72 196.22 142.33 M 196.23 161.33 C 193.79 162.51 195.23 166.57 197.92 165.99 C 224.98 166.00 252.04 166.01 279.10 165.99 C 280.76 166.23 282.43 164.72 282.00 162.99 C 281.80 161.63 280.36 160.86 279.09 161.01 C 253.06 160.98 227.03 161.03 201.00 160.98 C 199.41 161.08 197.73 160.73 196.23 161.33 M 196.24 182.33 C 193.79 183.51 195.23 187.57 197.91 186.99 C 224.97 187.00 252.04 187.01 279.10 186.99 C 282.22 187.66 283.19 182.54 280.06 182.08 C 253.71 181.88 227.36 182.08 201.00 181.98 C 199.42 182.08 197.74 181.72 196.24 182.33 M 196.22 204.32 C 193.79 205.54 195.24 209.54 197.91 208.99 C 224.97 209.00 252.03 209.01 279.09 208.99 C 280.75 209.25 282.41 207.70 282.00 206.00 C 281.78 204.65 280.39 203.84 279.09 204.01 C 253.06 203.97 227.03 204.03 201.00 203.98 C 199.41 204.08 197.73 203.73 196.22 204.32 M 196.24 223.34 C 193.77 224.50 195.23 228.57 197.91 227.99 C 224.61 228.03 251.31 227.97 278.02 228.01 C 279.29 228.00 280.98 228.12 281.70 226.79 C 282.85 225.01 281.11 222.66 279.09 223.01 C 253.06 222.97 227.03 223.03 201.00 222.98 C 199.42 223.09 197.74 222.72 196.24 223.34 M 196.24 244.34 C 193.78 245.50 195.23 249.58 197.90 248.99 C 224.61 249.02 251.32 248.97 278.02 249.01 C 279.28 248.99 281.01 249.14 281.70 247.79 C 282.86 246.01 281.11 243.65 279.09 244.01 C 253.06 243.97 227.03 244.03 201.00 243.98 C 199.42 244.09 197.74 243.72 196.24 244.34 Z" />
<path fill="#ffffff" opacity="1.00" d=" M 87.00 142.00 C 116.67 142.00 146.33 142.00 176.00 142.00 C 176.01 168.70 175.99 195.40 176.01 222.09 C 170.49 212.00 160.80 204.14 149.57 201.40 C 156.66 189.65 156.87 174.01 149.85 162.18 C 146.07 155.88 139.68 150.69 132.15 150.07 C 123.95 149.28 116.26 154.30 111.92 160.99 C 104.02 173.03 104.07 189.66 111.73 201.81 C 101.23 205.00 92.22 212.48 86.99 222.10 C 87.02 195.40 86.99 168.70 87.00 142.00 Z" />
<path fill="#ffffff" opacity="1.00" d=" M 127.23 155.38 C 132.77 153.97 138.66 156.45 142.41 160.56 C 148.46 167.05 150.67 176.42 149.82 185.10 C 149.11 191.87 146.48 198.69 141.44 203.41 C 137.91 206.77 132.83 208.71 127.97 207.76 C 122.65 206.81 118.26 202.98 115.54 198.45 C 110.08 189.35 109.59 177.60 113.78 167.92 C 116.27 162.16 120.94 156.89 127.23 155.38 Z" />
<path fill="#ffffff" opacity="1.00" d=" M 88.13 233.03 C 91.24 219.96 102.11 209.26 115.11 206.04 C 119.50 210.54 125.70 213.54 132.09 212.93 C 137.52 212.53 142.44 209.63 146.15 205.76 C 159.94 208.22 171.60 219.42 174.89 233.00 C 176.31 238.21 175.97 243.66 176.00 249.00 C 146.33 249.00 116.67 249.00 87.00 249.00 C 87.03 243.67 86.68 238.23 88.13 233.03 Z" />
</g>
<g id="#192d3eff">
<path fill="#192d3e" opacity="1.00" d=" M 167.38 14.52 C 192.63 12.60 218.33 16.07 242.06 24.96 C 271.07 35.76 297.09 54.42 316.63 78.43 C 338.96 105.66 352.77 139.81 355.40 174.95 C 358.43 211.03 349.84 248.00 331.10 279.01 C 308.91 316.13 272.52 344.56 230.97 356.73 C 195.14 367.49 155.85 366.26 120.74 353.34 C 97.65 344.85 76.34 331.47 58.80 314.20 C 36.26 292.39 19.89 264.31 11.86 234.01 C 4.21 205.14 4.07 174.30 11.51 145.37 C 19.68 113.38 37.18 83.83 61.36 61.35 C 89.99 34.26 128.08 17.44 167.38 14.52 M 168.35 21.48 C 143.68 23.31 119.45 30.69 98.00 43.02 C 64.42 62.03 37.80 93.00 24.06 129.06 C 9.82 165.99 9.34 207.98 22.69 245.24 C 34.41 278.30 56.85 307.41 85.74 327.28 C 109.63 343.87 137.93 354.04 166.92 356.41 C 187.77 358.17 208.94 355.99 228.99 350.02 C 257.16 341.57 283.07 325.63 303.17 304.14 C 324.92 281.26 339.95 252.06 345.92 221.05 C 351.21 193.81 349.66 165.25 341.31 138.77 C 333.75 114.61 320.61 92.21 303.16 73.86 C 282.68 51.95 256.15 35.83 227.35 27.51 C 208.25 22.03 188.17 19.98 168.35 21.48 Z" />
<path fill="#192d3e" opacity="1.00" d=" M 71.25 119.40 C 72.48 119.09 73.72 118.95 74.99 118.99 C 145.34 119.01 215.69 119.00 286.03 118.99 C 289.93 118.73 293.89 120.74 295.77 124.20 C 297.34 126.86 296.96 130.05 297.01 133.00 C 296.97 175.69 297.03 218.37 296.98 261.06 C 297.04 264.94 294.54 268.64 290.99 270.15 C 288.50 271.33 285.66 270.94 283.00 271.01 C 213.31 270.98 143.62 271.03 73.94 270.99 C 69.37 271.05 65.06 267.53 64.23 263.04 C 63.86 260.71 64.02 258.34 63.99 256.00 C 64.02 213.65 63.98 171.29 64.01 128.94 C 63.94 124.60 67.11 120.56 71.25 119.40 M 72.24 124.33 C 69.96 125.14 68.73 127.63 68.99 129.96 C 69.03 173.67 68.97 217.38 69.02 261.09 C 68.98 263.68 71.30 266.01 73.90 265.98 C 143.93 266.04 213.97 265.96 284.00 266.02 C 286.02 265.94 288.33 266.36 290.02 264.96 C 291.57 263.85 292.14 261.87 292.01 260.04 C 291.97 216.33 292.04 172.62 291.98 128.91 C 292.02 126.31 289.68 123.98 287.09 124.02 C 217.40 123.96 147.70 124.03 78.00 123.99 C 76.08 124.07 74.09 123.74 72.24 124.33 Z" />
<path fill="#192d3e" opacity="1.00" d=" M 82.02 141.90 C 81.98 139.31 84.31 136.98 86.91 137.02 C 116.64 136.99 146.37 136.99 176.10 137.02 C 178.70 136.97 181.02 139.33 180.98 141.92 C 181.03 179.28 180.99 216.64 181.00 254.00 C 148.00 254.00 115.00 254.00 82.00 254.00 C 82.01 216.63 81.97 179.27 82.02 141.90 M 87.00 142.00 C 86.99 168.70 87.02 195.40 86.99 222.10 C 92.22 212.48 101.23 205.00 111.73 201.81 C 104.07 189.66 104.02 173.03 111.92 160.99 C 116.26 154.30 123.95 149.28 132.15 150.07 C 139.68 150.69 146.07 155.88 149.85 162.18 C 156.87 174.01 156.66 189.65 149.57 201.40 C 160.80 204.14 170.49 212.00 176.01 222.09 C 175.99 195.40 176.01 168.70 176.00 142.00 C 146.33 142.00 116.67 142.00 87.00 142.00 M 127.23 155.38 C 120.94 156.89 116.27 162.16 113.78 167.92 C 109.59 177.60 110.08 189.35 115.54 198.45 C 118.26 202.98 122.65 206.81 127.97 207.76 C 132.83 208.71 137.91 206.77 141.44 203.41 C 146.48 198.69 149.11 191.87 149.82 185.10 C 150.67 176.42 148.46 167.05 142.41 160.56 C 138.66 156.45 132.77 153.97 127.23 155.38 M 88.13 233.03 C 86.68 238.23 87.03 243.67 87.00 249.00 C 116.67 249.00 146.33 249.00 176.00 249.00 C 175.97 243.66 176.31 238.21 174.89 233.00 C 171.60 219.42 159.94 208.22 146.15 205.76 C 142.44 209.63 137.52 212.53 132.09 212.93 C 125.70 213.54 119.50 210.54 115.11 206.04 C 102.11 209.26 91.24 219.96 88.13 233.03 Z" />
<path fill="#192d3e" opacity="1.00" d=" M 196.22 142.33 C 197.73 141.72 199.42 142.09 201.00 141.98 C 227.03 142.03 253.06 141.98 279.09 142.01 C 280.37 141.85 281.81 142.63 282.01 144.00 C 282.42 145.72 280.75 147.23 279.09 146.99 C 252.03 147.01 224.97 147.01 197.90 146.99 C 195.23 147.55 193.79 143.52 196.22 142.33 Z" />
<path fill="#192d3e" opacity="1.00" d=" M 196.23 161.33 C 197.73 160.73 199.41 161.08 201.00 160.98 C 227.03 161.03 253.06 160.98 279.09 161.01 C 280.36 160.86 281.80 161.63 282.00 162.99 C 282.43 164.72 280.76 166.23 279.10 165.99 C 252.04 166.01 224.98 166.00 197.92 165.99 C 195.23 166.57 193.79 162.51 196.23 161.33 Z" />
<path fill="#192d3e" opacity="1.00" d=" M 196.24 182.33 C 197.74 181.72 199.42 182.08 201.00 181.98 C 227.36 182.08 253.71 181.88 280.06 182.08 C 283.19 182.54 282.22 187.66 279.10 186.99 C 252.04 187.01 224.97 187.00 197.91 186.99 C 195.23 187.57 193.79 183.51 196.24 182.33 Z" />
<path fill="#192d3e" opacity="1.00" d=" M 196.22 204.32 C 197.73 203.73 199.41 204.08 201.00 203.98 C 227.03 204.03 253.06 203.97 279.09 204.01 C 280.39 203.84 281.78 204.65 282.00 206.00 C 282.41 207.70 280.75 209.25 279.09 208.99 C 252.03 209.01 224.97 209.00 197.91 208.99 C 195.24 209.54 193.79 205.54 196.22 204.32 Z" />
<path fill="#192d3e" opacity="1.00" d=" M 196.24 223.34 C 197.74 222.72 199.42 223.09 201.00 222.98 C 227.03 223.03 253.06 222.97 279.09 223.01 C 281.11 222.66 282.85 225.01 281.70 226.79 C 280.98 228.12 279.29 228.00 278.02 228.01 C 251.31 227.97 224.61 228.03 197.91 227.99 C 195.23 228.57 193.77 224.50 196.24 223.34 Z" />
<path fill="#192d3e" opacity="1.00" d=" M 196.24 244.34 C 197.74 243.72 199.42 244.09 201.00 243.98 C 227.03 244.03 253.06 243.97 279.09 244.01 C 281.11 243.65 282.86 246.01 281.70 247.79 C 281.01 249.14 279.28 248.99 278.02 249.01 C 251.32 248.97 224.61 249.02 197.90 248.99 C 195.23 249.58 193.78 245.50 196.24 244.34 Z" />
</g>
</svg>
