<?xml version="1.0" encoding="UTF-8" ?>
<!DOCTYPE svg PUBLIC "-//W3C//DTD SVG 1.1//EN" "http://www.w3.org/Graphics/SVG/1.1/DTD/svg11.dtd">
<svg width="363pt" height="363pt" viewBox="0 0 363 363" version="1.1" xmlns="http://www.w3.org/2000/svg">
<g id="#ffffffff">
<path fill="#ffffff" opacity="1.00" d=" M 0.00 0.00 L 363.00 0.00 L 363.00 363.00 L 0.00 363.00 L 0.00 0.00 M 167.37 8.53 C 128.07 11.44 89.98 28.27 61.36 55.35 C 35.98 78.95 17.93 110.34 10.36 144.17 C 0.41 187.41 7.68 234.38 30.56 272.43 C 52.70 309.83 89.24 338.47 130.97 350.71 C 161.43 359.85 194.41 360.39 225.17 352.36 C 254.21 344.83 281.24 329.64 302.71 308.69 C 332.88 279.75 352.03 239.59 355.33 197.90 C 356.86 180.59 355.72 163.04 352.07 146.05 C 345.02 112.90 327.94 81.97 303.71 58.28 C 281.93 36.73 254.33 21.10 224.64 13.50 C 206.00 8.69 186.56 7.08 167.37 8.53 Z" />
<path fill="#ffffff" opacity="1.00" d=" M 168.35 15.48 C 188.38 13.96 208.68 16.07 227.97 21.69 C 253.35 29.13 276.95 42.64 296.17 60.82 C 315.60 79.16 330.71 102.11 339.50 127.37 C 349.42 155.34 351.57 185.96 345.92 215.08 C 339.94 246.08 324.92 275.27 303.16 298.15 C 282.83 319.89 256.53 335.95 227.97 344.31 C 209.19 349.77 189.46 351.94 169.94 350.63 C 139.90 348.73 110.45 338.45 85.73 321.27 C 59.82 303.43 39.05 278.19 26.64 249.27 C 18.05 229.35 13.38 207.73 13.06 186.03 C 12.42 157.06 19.62 127.99 33.54 102.58 C 46.12 79.58 64.16 59.59 85.74 44.72 C 110.04 27.88 138.86 17.62 168.35 15.48 M 75.25 101.40 C 71.11 102.57 67.93 106.60 68.02 110.95 C 68.00 154.98 67.98 199.02 68.02 243.06 C 67.89 248.36 72.67 253.11 77.96 252.98 C 148.99 253.01 220.01 253.01 291.04 252.99 C 296.34 253.11 301.13 248.34 300.98 243.04 C 301.03 200.69 300.98 158.35 301.01 116.00 C 300.97 113.64 301.16 111.26 300.78 108.93 C 299.91 104.46 295.62 100.99 291.07 101.02 C 220.38 100.96 149.69 101.03 79.00 100.99 C 77.73 100.95 76.48 101.09 75.25 101.40 Z" />
<path fill="#ffffff" opacity="1.00" d=" M 76.22 106.33 C 78.08 105.75 80.08 106.07 82.00 105.99 C 151.34 106.01 220.68 106.00 290.02 105.99 C 292.93 105.56 296.03 107.82 295.97 110.88 C 296.05 154.60 295.97 198.31 296.01 242.02 C 296.44 244.94 294.17 248.03 291.11 247.98 C 220.40 248.04 149.70 247.97 78.99 248.01 C 76.07 248.45 72.96 246.17 73.03 243.10 C 72.95 199.40 73.03 155.69 72.99 111.99 C 72.72 109.65 73.95 107.17 76.22 106.33 M 196.21 119.33 C 193.94 120.16 192.72 122.65 192.99 124.98 C 193.03 160.35 192.96 195.73 193.02 231.09 C 192.97 233.68 195.31 236.03 197.90 235.98 C 207.64 236.01 217.38 236.02 227.11 235.98 C 229.69 236.01 232.02 233.68 231.97 231.10 C 232.04 195.73 231.97 160.36 232.01 124.98 C 232.44 122.06 230.17 118.96 227.11 119.02 C 218.41 118.95 209.71 119.05 201.01 118.98 C 199.41 119.05 197.75 118.79 196.21 119.33 M 152.21 128.34 C 149.93 129.15 148.72 131.65 148.99 133.98 C 149.03 162.69 148.96 191.40 149.03 220.11 C 148.99 222.69 151.31 225.02 153.89 224.97 C 163.63 225.02 173.37 225.02 183.10 224.97 C 185.69 225.02 188.02 222.68 187.98 220.10 C 188.01 191.03 188.02 161.96 187.97 132.89 C 188.02 130.31 185.68 127.98 183.10 128.03 C 174.40 127.94 165.70 128.05 157.01 127.98 C 155.41 128.05 153.75 127.80 152.21 128.34 M 240.21 128.34 C 237.94 129.15 236.72 131.65 236.99 133.98 C 237.03 162.69 236.96 191.41 237.03 220.12 C 236.99 222.69 239.31 225.02 241.88 224.97 C 251.62 225.02 261.37 225.02 271.11 224.97 C 273.69 225.02 276.02 222.68 275.98 220.10 C 276.01 191.03 276.02 161.96 275.98 132.90 C 276.02 130.31 273.68 127.98 271.11 128.03 C 262.40 127.94 253.70 128.05 244.99 127.98 C 243.40 128.05 241.74 127.80 240.21 128.34 M 92.34 137.00 C 93.55 137.07 94.77 137.14 95.98 137.20 C 97.99 141.78 100.17 146.29 102.40 150.77 C 101.39 152.59 100.07 154.32 99.51 156.35 C 99.03 158.47 100.82 160.60 103.03 160.36 C 110.24 160.43 117.45 160.34 124.66 160.39 C 124.67 159.25 124.68 158.10 124.69 156.96 C 117.57 156.86 110.45 156.89 103.33 156.95 C 103.85 155.67 104.55 154.49 105.06 153.21 C 110.07 152.89 115.10 153.33 120.11 152.96 C 121.58 152.09 122.22 150.42 123.03 149.01 C 124.79 145.62 126.74 142.33 128.50 138.94 C 128.17 138.47 127.52 137.52 127.20 137.04 C 118.11 137.02 109.03 137.05 99.95 137.02 C 99.40 135.88 98.85 134.73 98.24 133.62 C 96.28 133.62 94.32 133.62 92.37 133.63 C 92.35 134.75 92.34 135.88 92.34 137.00 M 102.21 162.31 C 99.90 162.89 98.56 165.90 100.09 167.83 C 101.48 170.08 105.35 169.85 106.43 167.43 C 107.90 164.85 104.88 161.33 102.21 162.31 M 117.40 165.35 C 116.86 167.82 119.67 170.01 121.97 169.24 C 124.02 168.95 125.26 166.52 124.47 164.66 C 124.04 163.03 122.28 162.59 121.04 161.79 C 119.64 162.69 117.51 163.38 117.40 165.35 M 106.37 182.51 C 97.74 184.68 90.81 192.21 89.26 200.95 C 87.69 208.75 90.55 217.25 96.45 222.58 C 103.07 228.97 113.61 230.62 121.96 226.85 C 130.08 223.33 135.89 214.90 135.93 206.00 C 136.28 199.17 133.29 192.32 128.19 187.80 C 122.45 182.48 113.91 180.40 106.37 182.51 Z" />
<path fill="#ffffff" opacity="1.00" d=" M 198.00 124.00 C 207.67 124.00 217.33 124.00 227.00 124.00 C 227.00 132.00 227.00 140.00 227.00 148.00 C 217.33 148.00 207.67 148.00 198.00 148.00 C 198.00 140.00 198.00 132.00 198.00 124.00 M 202.01 138.01 C 202.00 140.00 202.00 141.99 202.01 143.99 C 208.34 144.01 214.66 144.01 220.99 143.99 C 220.99 141.99 220.99 140.00 220.99 138.01 C 214.66 137.99 208.34 137.99 202.01 138.01 Z" />
<path fill="#ffffff" opacity="1.00" d=" M 154.00 133.00 C 163.67 133.00 173.33 133.00 183.00 133.00 C 183.01 141.33 182.99 149.67 183.00 158.00 C 173.33 158.00 163.67 158.00 154.00 158.00 C 154.00 149.67 154.00 141.33 154.00 133.00 M 158.01 148.01 C 158.00 150.00 158.00 151.99 158.01 153.99 C 164.34 154.01 170.66 154.01 176.99 153.99 C 176.99 151.99 176.99 150.00 176.99 148.01 C 170.66 147.99 164.34 147.99 158.01 148.01 Z" />
<path fill="#ffffff" opacity="1.00" d=" M 242.00 133.00 C 251.67 133.00 261.33 133.00 271.00 133.00 C 271.01 141.33 270.99 149.67 271.00 158.00 C 261.33 158.00 251.67 158.00 242.00 158.00 C 242.00 149.67 242.00 141.33 242.00 133.00 M 246.01 148.01 C 246.00 150.00 246.00 151.99 246.01 153.99 C 252.33 154.01 258.66 154.01 264.99 153.99 C 264.99 152.00 265.00 150.01 265.00 148.02 C 258.67 147.99 252.34 148.00 246.01 148.01 Z" />
<path fill="#ffffff" opacity="1.00" d=" M 101.77 140.97 C 108.94 141.01 116.10 140.86 123.26 141.07 C 121.47 143.98 119.98 147.06 118.16 149.96 C 114.11 149.86 110.07 149.93 106.03 149.88 C 104.61 146.91 103.19 143.94 101.77 140.97 Z" />
<path fill="#ffffff" opacity="1.00" d=" M 198.00 154.00 C 207.67 154.00 217.33 154.00 227.00 154.00 C 227.00 179.67 227.00 205.33 227.00 231.00 C 217.33 231.00 207.67 231.00 198.00 231.00 C 198.00 205.33 198.00 179.67 198.00 154.00 M 202.01 158.01 C 202.00 160.00 202.00 161.99 202.01 163.99 C 208.33 164.01 214.66 164.01 220.99 163.99 C 220.99 161.99 220.99 160.00 220.99 158.01 C 214.66 157.99 208.34 157.99 202.01 158.01 M 202.01 170.01 C 202.00 172.00 202.00 173.99 202.01 175.99 C 208.34 176.01 214.66 176.00 220.99 175.99 C 220.99 174.00 220.99 172.00 220.99 170.01 C 214.66 169.99 208.34 169.99 202.01 170.01 M 202.01 181.01 C 202.00 183.00 202.00 184.99 202.01 186.99 C 208.34 187.01 214.66 187.01 220.99 186.99 C 220.99 184.99 220.99 183.00 220.99 181.01 C 214.66 180.99 208.34 180.99 202.01 181.01 M 202.01 192.01 C 202.00 194.00 202.00 195.99 202.01 197.99 C 208.34 198.01 214.66 198.01 220.99 197.99 C 220.99 195.99 220.99 194.00 220.99 192.01 C 214.66 192.00 208.34 191.99 202.01 192.01 M 202.01 202.01 C 202.00 204.00 202.00 205.99 202.01 207.99 C 208.34 208.01 214.66 208.00 220.99 207.99 C 220.99 205.99 220.99 204.00 220.99 202.01 C 214.66 201.99 208.34 201.99 202.01 202.01 M 202.01 214.01 C 202.00 216.00 202.00 217.99 202.01 219.99 C 208.33 220.01 214.66 220.01 220.99 219.99 C 220.99 217.99 220.99 216.00 220.99 214.01 C 214.66 213.99 208.33 214.00 202.01 214.01 Z" />
<path fill="#ffffff" opacity="1.00" d=" M 154.00 164.00 C 163.67 164.00 173.33 164.00 183.00 164.00 C 183.00 182.67 183.00 201.33 183.00 220.00 C 173.33 220.00 163.67 220.00 154.00 220.00 C 154.00 201.33 154.00 182.67 154.00 164.00 M 158.01 170.01 C 158.00 172.00 158.00 173.99 158.01 175.99 C 164.34 176.01 170.66 176.00 176.99 175.99 C 176.99 173.99 176.99 172.00 176.99 170.01 C 170.66 169.99 164.34 169.99 158.01 170.01 M 158.01 181.01 C 158.00 183.00 158.00 184.99 158.01 186.99 C 164.34 187.01 170.66 187.01 176.99 186.99 C 176.99 184.99 176.99 183.00 176.99 181.01 C 170.66 180.99 164.34 180.99 158.01 181.01 M 158.01 192.01 C 158.00 194.00 158.00 195.99 158.01 197.99 C 164.34 198.01 170.66 198.01 176.99 197.99 C 176.99 195.99 176.99 194.00 176.99 192.01 C 170.66 191.99 164.34 191.99 158.01 192.01 M 158.01 202.01 C 158.00 204.00 158.00 205.99 158.00 207.98 C 164.33 208.01 170.66 208.00 176.99 207.99 C 176.99 205.99 176.99 204.00 176.99 202.01 C 170.66 201.99 164.34 201.99 158.01 202.01 Z" />
<path fill="#ffffff" opacity="1.00" d=" M 242.00 164.00 C 251.67 164.00 261.33 164.00 271.00 164.00 C 271.00 182.67 271.00 201.33 271.00 220.00 C 261.33 220.00 251.67 220.00 242.00 220.00 C 242.00 201.33 242.00 182.67 242.00 164.00 M 246.01 170.01 C 246.00 172.00 246.00 173.99 246.01 175.99 C 252.34 176.01 258.66 176.00 264.99 175.99 C 264.99 173.99 264.99 172.00 264.99 170.01 C 258.66 169.99 252.34 169.99 246.01 170.01 M 246.01 181.01 C 246.00 183.00 246.00 184.99 246.01 186.99 C 252.33 187.01 258.66 187.01 264.99 186.99 C 264.99 184.99 264.99 183.00 264.99 181.01 C 258.66 180.99 252.33 180.99 246.01 181.01 M 246.01 192.01 C 246.00 194.00 246.00 195.99 246.00 197.98 C 252.33 198.01 258.66 198.00 264.99 197.99 C 264.99 195.99 264.99 194.00 264.99 192.01 C 258.66 191.99 252.34 191.99 246.01 192.01 M 246.01 202.01 C 246.00 204.00 246.00 205.99 246.00 207.98 C 252.33 208.01 258.67 208.01 265.00 207.98 C 264.99 205.99 264.99 204.00 264.99 202.01 C 258.66 201.99 252.34 201.99 246.01 202.01 Z" />
<path fill="#ffffff" opacity="1.00" d=" M 108.16 184.30 C 112.09 183.40 116.24 183.86 119.99 185.25 C 128.37 188.31 134.33 197.07 133.82 206.02 C 133.70 214.90 127.33 223.17 118.86 225.73 C 111.26 228.22 102.37 225.92 96.94 220.05 C 91.60 214.65 89.72 206.28 91.93 199.06 C 94.11 191.68 100.59 185.75 108.16 184.30 M 125.36 195.95 C 119.25 201.53 113.54 207.54 107.30 212.98 C 104.66 210.10 102.07 207.18 99.25 204.50 C 97.94 203.97 97.19 205.86 98.51 206.49 C 101.34 209.49 104.21 212.47 107.12 215.40 C 113.88 209.32 120.33 202.88 126.92 196.61 C 126.53 196.44 125.75 196.11 125.36 195.95 Z" />
</g>
<g id="#192d3eff">
<path fill="#192d3e" opacity="1.00" d=" M 167.37 8.53 C 186.56 7.08 206.00 8.69 224.64 13.50 C 254.33 21.10 281.93 36.73 303.71 58.28 C 327.94 81.97 345.02 112.90 352.07 146.05 C 355.72 163.04 356.86 180.59 355.33 197.90 C 352.03 239.59 332.88 279.75 302.71 308.69 C 281.24 329.64 254.21 344.83 225.17 352.36 C 194.41 360.39 161.43 359.85 130.97 350.71 C 89.24 338.47 52.70 309.83 30.56 272.43 C 7.68 234.38 0.41 187.41 10.36 144.17 C 17.93 110.34 35.98 78.95 61.36 55.35 C 89.98 28.27 128.07 11.44 167.37 8.53 M 168.35 15.48 C 138.86 17.62 110.04 27.88 85.74 44.72 C 64.16 59.59 46.12 79.58 33.54 102.58 C 19.62 127.99 12.42 157.06 13.06 186.03 C 13.38 207.73 18.05 229.35 26.64 249.27 C 39.05 278.19 59.82 303.43 85.73 321.27 C 110.45 338.45 139.90 348.73 169.94 350.63 C 189.46 351.94 209.19 349.77 227.97 344.31 C 256.53 335.95 282.83 319.89 303.16 298.15 C 324.92 275.27 339.94 246.08 345.92 215.08 C 351.57 185.96 349.42 155.34 339.50 127.37 C 330.71 102.11 315.60 79.16 296.17 60.82 C 276.95 42.64 253.35 29.13 227.97 21.69 C 208.68 16.07 188.38 13.96 168.35 15.48 Z" />
<path fill="#192d3e" opacity="1.00" d=" M 75.25 101.40 C 76.48 101.09 77.73 100.95 79.00 100.99 C 149.69 101.03 220.38 100.96 291.07 101.02 C 295.62 100.99 299.91 104.46 300.78 108.93 C 301.16 111.26 300.97 113.64 301.01 116.00 C 300.98 158.35 301.03 200.69 300.98 243.04 C 301.13 248.34 296.34 253.11 291.04 252.99 C 220.01 253.01 148.99 253.01 77.96 252.98 C 72.67 253.11 67.89 248.36 68.02 243.06 C 67.98 199.02 68.00 154.98 68.02 110.95 C 67.93 106.60 71.11 102.57 75.25 101.40 M 76.22 106.33 C 73.95 107.17 72.72 109.65 72.99 111.99 C 73.03 155.69 72.95 199.40 73.03 243.10 C 72.96 246.17 76.07 248.45 78.99 248.01 C 149.70 247.97 220.40 248.04 291.11 247.98 C 294.17 248.03 296.44 244.94 296.01 242.02 C 295.97 198.31 296.05 154.60 295.97 110.88 C 296.03 107.82 292.93 105.56 290.02 105.99 C 220.68 106.00 151.34 106.01 82.00 105.99 C 80.08 106.07 78.08 105.75 76.22 106.33 Z" />
<path fill="#192d3e" opacity="1.00" d=" M 196.21 119.33 C 197.75 118.79 199.41 119.05 201.01 118.98 C 209.71 119.05 218.41 118.95 227.11 119.02 C 230.17 118.96 232.44 122.06 232.01 124.98 C 231.97 160.36 232.04 195.73 231.97 231.10 C 232.02 233.68 229.69 236.01 227.11 235.98 C 217.38 236.02 207.64 236.01 197.90 235.98 C 195.31 236.03 192.97 233.68 193.02 231.09 C 192.96 195.73 193.03 160.35 192.99 124.98 C 192.72 122.65 193.94 120.16 196.21 119.33 M 198.00 124.00 C 198.00 132.00 198.00 140.00 198.00 148.00 C 207.67 148.00 217.33 148.00 227.00 148.00 C 227.00 140.00 227.00 132.00 227.00 124.00 C 217.33 124.00 207.67 124.00 198.00 124.00 M 198.00 154.00 C 198.00 179.67 198.00 205.33 198.00 231.00 C 207.67 231.00 217.33 231.00 227.00 231.00 C 227.00 205.33 227.00 179.67 227.00 154.00 C 217.33 154.00 207.67 154.00 198.00 154.00 Z" />
<path fill="#192d3e" opacity="1.00" d=" M 152.21 128.34 C 153.75 127.80 155.41 128.05 157.01 127.98 C 165.70 128.05 174.40 127.94 183.10 128.03 C 185.68 127.98 188.02 130.31 187.97 132.89 C 188.02 161.96 188.01 191.03 187.98 220.10 C 188.02 222.68 185.69 225.02 183.10 224.97 C 173.37 225.02 163.63 225.02 153.89 224.97 C 151.31 225.02 148.99 222.69 149.03 220.11 C 148.96 191.40 149.03 162.69 148.99 133.98 C 148.72 131.65 149.93 129.15 152.21 128.34 M 154.00 133.00 C 154.00 141.33 154.00 149.67 154.00 158.00 C 163.67 158.00 173.33 158.00 183.00 158.00 C 182.99 149.67 183.01 141.33 183.00 133.00 C 173.33 133.00 163.67 133.00 154.00 133.00 M 154.00 164.00 C 154.00 182.67 154.00 201.33 154.00 220.00 C 163.67 220.00 173.33 220.00 183.00 220.00 C 183.00 201.33 183.00 182.67 183.00 164.00 C 173.33 164.00 163.67 164.00 154.00 164.00 Z" />
<path fill="#192d3e" opacity="1.00" d=" M 240.21 128.34 C 241.74 127.80 243.40 128.05 244.99 127.98 C 253.70 128.05 262.40 127.94 271.11 128.03 C 273.68 127.98 276.02 130.31 275.98 132.90 C 276.02 161.96 276.01 191.03 275.98 220.10 C 276.02 222.68 273.69 225.02 271.11 224.97 C 261.37 225.02 251.62 225.02 241.88 224.97 C 239.31 225.02 236.99 222.69 237.03 220.12 C 236.96 191.41 237.03 162.69 236.99 133.98 C 236.72 131.65 237.94 129.15 240.21 128.34 M 242.00 133.00 C 242.00 141.33 242.00 149.67 242.00 158.00 C 251.67 158.00 261.33 158.00 271.00 158.00 C 270.99 149.67 271.01 141.33 271.00 133.00 C 261.33 133.00 251.67 133.00 242.00 133.00 M 242.00 164.00 C 242.00 182.67 242.00 201.33 242.00 220.00 C 251.67 220.00 261.33 220.00 271.00 220.00 C 271.00 201.33 271.00 182.67 271.00 164.00 C 261.33 164.00 251.67 164.00 242.00 164.00 Z" />
<path fill="#192d3e" opacity="1.00" d=" M 92.34 137.00 C 92.34 135.88 92.35 134.75 92.37 133.63 C 94.32 133.62 96.28 133.62 98.24 133.62 C 98.85 134.73 99.40 135.88 99.95 137.02 C 109.03 137.05 118.11 137.02 127.20 137.04 C 127.52 137.52 128.17 138.47 128.50 138.94 C 126.74 142.33 124.79 145.62 123.03 149.01 C 122.22 150.42 121.58 152.09 120.11 152.96 C 115.10 153.33 110.07 152.89 105.06 153.21 C 104.55 154.49 103.85 155.67 103.33 156.95 C 110.45 156.89 117.57 156.86 124.69 156.96 C 124.68 158.10 124.67 159.25 124.66 160.39 C 117.45 160.34 110.24 160.43 103.03 160.36 C 100.82 160.60 99.03 158.47 99.51 156.35 C 100.07 154.32 101.39 152.59 102.40 150.77 C 100.17 146.29 97.99 141.78 95.98 137.20 C 94.77 137.14 93.55 137.07 92.34 137.00 M 101.77 140.97 C 103.19 143.94 104.61 146.91 106.03 149.88 C 110.07 149.93 114.11 149.86 118.16 149.96 C 119.98 147.06 121.47 143.98 123.26 141.07 C 116.10 140.86 108.94 141.01 101.77 140.97 Z" />
<path fill="#192d3e" opacity="1.00" d=" M 202.01 138.01 C 208.34 137.99 214.66 137.99 220.99 138.01 C 220.99 140.00 220.99 141.99 220.99 143.99 C 214.66 144.01 208.34 144.01 202.01 143.99 C 202.00 141.99 202.00 140.00 202.01 138.01 Z" />
<path fill="#192d3e" opacity="1.00" d=" M 158.01 148.01 C 164.34 147.99 170.66 147.99 176.99 148.01 C 176.99 150.00 176.99 151.99 176.99 153.99 C 170.66 154.01 164.34 154.01 158.01 153.99 C 158.00 151.99 158.00 150.00 158.01 148.01 Z" />
<path fill="#192d3e" opacity="1.00" d=" M 246.01 148.01 C 252.34 148.00 258.67 147.99 265.00 148.02 C 265.00 150.01 264.99 152.00 264.99 153.99 C 258.66 154.01 252.33 154.01 246.01 153.99 C 246.00 151.99 246.00 150.00 246.01 148.01 Z" />
<path fill="#192d3e" opacity="1.00" d=" M 202.01 158.01 C 208.34 157.99 214.66 157.99 220.99 158.01 C 220.99 160.00 220.99 161.99 220.99 163.99 C 214.66 164.01 208.33 164.01 202.01 163.99 C 202.00 161.99 202.00 160.00 202.01 158.01 Z" />
<path fill="#192d3e" opacity="1.00" d=" M 102.21 162.31 C 104.88 161.33 107.90 164.85 106.43 167.43 C 105.35 169.85 101.48 170.08 100.09 167.83 C 98.56 165.90 99.90 162.89 102.21 162.31 Z" />
<path fill="#192d3e" opacity="1.00" d=" M 117.40 165.35 C 117.51 163.38 119.64 162.69 121.04 161.79 C 122.28 162.59 124.04 163.03 124.47 164.66 C 125.26 166.52 124.02 168.95 121.97 169.24 C 119.67 170.01 116.86 167.82 117.40 165.35 Z" />
<path fill="#192d3e" opacity="1.00" d=" M 158.01 170.01 C 164.34 169.99 170.66 169.99 176.99 170.01 C 176.99 172.00 176.99 173.99 176.99 175.99 C 170.66 176.00 164.34 176.01 158.01 175.99 C 158.00 173.99 158.00 172.00 158.01 170.01 Z" />
<path fill="#192d3e" opacity="1.00" d=" M 202.01 170.01 C 208.34 169.99 214.66 169.99 220.99 170.01 C 220.99 172.00 220.99 174.00 220.99 175.99 C 214.66 176.00 208.34 176.01 202.01 175.99 C 202.00 173.99 202.00 172.00 202.01 170.01 Z" />
<path fill="#192d3e" opacity="1.00" d=" M 246.01 170.01 C 252.34 169.99 258.66 169.99 264.99 170.01 C 264.99 172.00 264.99 173.99 264.99 175.99 C 258.66 176.00 252.34 176.01 246.01 175.99 C 246.00 173.99 246.00 172.00 246.01 170.01 Z" />
<path fill="#192d3e" opacity="1.00" d=" M 158.01 181.01 C 164.34 180.99 170.66 180.99 176.99 181.01 C 176.99 183.00 176.99 184.99 176.99 186.99 C 170.66 187.01 164.34 187.01 158.01 186.99 C 158.00 184.99 158.00 183.00 158.01 181.01 Z" />
<path fill="#192d3e" opacity="1.00" d=" M 202.01 181.01 C 208.34 180.99 214.66 180.99 220.99 181.01 C 220.99 183.00 220.99 184.99 220.99 186.99 C 214.66 187.01 208.34 187.01 202.01 186.99 C 202.00 184.99 202.00 183.00 202.01 181.01 Z" />
<path fill="#192d3e" opacity="1.00" d=" M 246.01 181.01 C 252.33 180.99 258.66 180.99 264.99 181.01 C 264.99 183.00 264.99 184.99 264.99 186.99 C 258.66 187.01 252.33 187.01 246.01 186.99 C 246.00 184.99 246.00 183.00 246.01 181.01 Z" />
<path fill="#192d3e" opacity="1.00" d=" M 106.37 182.51 C 113.91 180.40 122.45 182.48 128.19 187.80 C 133.29 192.32 136.28 199.17 135.93 206.00 C 135.89 214.90 130.08 223.33 121.96 226.85 C 113.61 230.62 103.07 228.97 96.45 222.58 C 90.55 217.25 87.69 208.75 89.26 200.95 C 90.81 192.21 97.74 184.68 106.37 182.51 M 108.16 184.30 C 100.59 185.75 94.11 191.68 91.93 199.06 C 89.72 206.28 91.60 214.65 96.94 220.05 C 102.37 225.92 111.26 228.22 118.86 225.73 C 127.33 223.17 133.70 214.90 133.82 206.02 C 134.33 197.07 128.37 188.31 119.99 185.25 C 116.24 183.86 112.09 183.40 108.16 184.30 Z" />
<path fill="#192d3e" opacity="1.00" d=" M 158.01 192.01 C 164.34 191.99 170.66 191.99 176.99 192.01 C 176.99 194.00 176.99 195.99 176.99 197.99 C 170.66 198.01 164.34 198.01 158.01 197.99 C 158.00 195.99 158.00 194.00 158.01 192.01 Z" />
<path fill="#192d3e" opacity="1.00" d=" M 202.01 192.01 C 208.34 191.99 214.66 192.00 220.99 192.01 C 220.99 194.00 220.99 195.99 220.99 197.99 C 214.66 198.01 208.34 198.01 202.01 197.99 C 202.00 195.99 202.00 194.00 202.01 192.01 Z" />
<path fill="#192d3e" opacity="1.00" d=" M 246.01 192.01 C 252.34 191.99 258.66 191.99 264.99 192.01 C 264.99 194.00 264.99 195.99 264.99 197.99 C 258.66 198.00 252.33 198.01 246.00 197.98 C 246.00 195.99 246.00 194.00 246.01 192.01 Z" />
<path fill="#192d3e" opacity="1.00" d=" M 125.36 195.95 C 125.75 196.11 126.53 196.44 126.92 196.61 C 120.33 202.88 113.88 209.32 107.12 215.40 C 104.21 212.47 101.34 209.49 98.51 206.49 C 97.19 205.86 97.94 203.97 99.25 204.50 C 102.07 207.18 104.66 210.10 107.30 212.98 C 113.54 207.54 119.25 201.53 125.36 195.95 Z" />
<path fill="#192d3e" opacity="1.00" d=" M 158.01 202.01 C 164.34 201.99 170.66 201.99 176.99 202.01 C 176.99 204.00 176.99 205.99 176.99 207.99 C 170.66 208.00 164.33 208.01 158.00 207.98 C 158.00 205.99 158.00 204.00 158.01 202.01 Z" />
<path fill="#192d3e" opacity="1.00" d=" M 202.01 202.01 C 208.34 201.99 214.66 201.99 220.99 202.01 C 220.99 204.00 220.99 205.99 220.99 207.99 C 214.66 208.00 208.34 208.01 202.01 207.99 C 202.00 205.99 202.00 204.00 202.01 202.01 Z" />
<path fill="#192d3e" opacity="1.00" d=" M 246.01 202.01 C 252.34 201.99 258.66 201.99 264.99 202.01 C 264.99 204.00 264.99 205.99 265.00 207.98 C 258.67 208.01 252.33 208.01 246.00 207.98 C 246.00 205.99 246.00 204.00 246.01 202.01 Z" />
<path fill="#192d3e" opacity="1.00" d=" M 202.01 214.01 C 208.33 214.00 214.66 213.99 220.99 214.01 C 220.99 216.00 220.99 217.99 220.99 219.99 C 214.66 220.01 208.33 220.01 202.01 219.99 C 202.00 217.99 202.00 216.00 202.01 214.01 Z" />
</g>
</svg>
