<?xml version="1.0" encoding="UTF-8" ?>
<!DOCTYPE svg PUBLIC "-//W3C//DTD SVG 1.1//EN" "http://www.w3.org/Graphics/SVG/1.1/DTD/svg11.dtd">
<svg width="458pt" height="396pt" viewBox="0 0 458 396" version="1.1" xmlns="http://www.w3.org/2000/svg">
<g id="#989898ff">
<path fill="#989898" opacity="1.00" d=" M 0.00 0.00 L 0.19 0.00 C 0.14 0.05 0.05 0.16 0.00 0.21 L 0.00 0.00 Z" />
</g>
<g id="#cdcdcdff">
<path fill="#cdcdcd" opacity="1.00" d=" M 0.19 0.00 L 458.00 0.00 L 458.00 396.00 L 0.00 396.00 L 0.00 0.21 C 0.05 0.16 0.14 0.05 0.19 0.00 M 1.11 1.13 C 0.89 75.06 1.08 149.01 1.02 222.95 C 1.06 280.27 0.93 337.60 1.09 394.93 C 16.05 395.26 31.02 394.99 45.99 395.08 C 182.95 395.02 319.91 395.19 456.87 394.99 C 457.10 384.01 456.90 373.01 456.99 362.02 C 456.88 241.71 457.12 121.40 456.86 1.09 C 422.26 0.90 387.66 1.07 353.06 1.01 C 235.74 1.09 118.43 0.85 1.11 1.13 Z" />
</g>
<g id="#ffffffff">
<path fill="#ffffff" opacity="1.00" d=" M 1.11 1.13 C 118.43 0.85 235.74 1.09 353.06 1.01 C 387.66 1.07 422.26 0.90 456.86 1.09 C 457.12 121.40 456.88 241.71 456.99 362.02 C 456.90 373.01 457.10 384.01 456.87 394.99 C 319.91 395.19 182.95 395.02 45.99 395.08 C 31.02 394.99 16.05 395.26 1.09 394.93 C 0.93 337.60 1.06 280.27 1.02 222.95 C 1.08 149.01 0.89 75.06 1.11 1.13 M 145.03 40.48 C 130.38 44.08 116.67 52.63 108.37 65.42 C 98.39 80.62 96.72 99.67 98.60 117.34 C 96.52 120.65 96.19 124.66 95.54 128.42 C 95.03 133.93 94.76 139.56 95.82 145.03 C 96.50 149.36 99.24 152.90 101.61 156.45 C 103.66 159.72 107.52 161.22 109.72 164.34 C 111.13 166.99 111.18 170.10 111.86 172.97 C 114.82 185.92 120.69 198.00 127.94 209.07 C 129.25 211.37 132.11 213.12 131.71 216.08 C 131.53 221.71 128.59 226.74 127.12 232.09 C 123.90 239.74 120.59 247.67 114.72 253.72 C 111.76 256.51 108.42 258.97 104.70 260.66 C 82.38 263.66 59.99 274.00 46.78 292.83 C 33.62 311.13 30.39 334.42 30.88 356.44 C 119.88 356.38 208.87 356.45 297.87 356.40 C 297.87 340.93 297.47 325.26 293.59 310.19 C 307.96 310.14 322.36 310.57 336.71 310.08 C 337.54 311.08 338.49 311.98 339.42 312.89 C 340.53 316.02 343.07 318.25 344.77 321.01 C 343.72 332.92 341.80 344.78 341.23 356.72 C 354.83 356.88 368.44 356.65 382.05 356.79 C 383.78 356.73 385.60 356.89 387.26 356.29 C 387.73 354.92 387.64 353.45 387.69 352.04 C 387.57 342.90 387.99 333.76 388.50 324.63 C 394.68 322.99 399.78 318.54 402.81 312.98 C 404.09 311.43 404.66 308.60 407.01 308.45 C 409.88 307.88 413.41 307.95 415.29 305.28 C 418.64 298.74 415.44 290.30 420.38 284.43 C 423.88 280.05 424.86 274.01 423.39 268.66 C 421.90 264.67 424.51 260.97 425.36 257.18 C 426.93 251.04 425.67 244.63 423.37 238.86 C 423.34 233.76 424.63 228.07 421.41 223.58 C 418.93 220.18 416.24 216.12 411.91 215.06 C 403.12 215.63 394.48 217.56 385.97 219.76 C 386.14 213.77 385.69 207.78 386.15 201.80 L 385.75 201.22 C 386.08 188.07 386.06 174.92 386.18 161.77 C 385.57 157.20 388.07 151.41 384.02 147.95 C 382.54 146.19 380.03 146.82 378.03 146.71 C 367.78 147.09 357.50 146.57 347.27 147.45 C 330.51 147.10 313.74 147.38 296.97 147.39 C 295.20 147.40 293.39 147.41 291.69 147.96 C 289.19 147.07 286.43 147.66 283.84 147.62 C 277.56 147.58 271.28 147.39 265.01 147.60 C 263.40 147.57 262.00 148.37 260.59 149.01 C 259.68 149.27 258.64 149.23 257.90 149.89 C 257.64 153.46 257.96 157.03 257.94 160.60 C 257.85 177.04 258.06 193.49 258.05 209.93 C 257.97 213.25 257.78 216.56 257.68 219.88 C 254.74 220.89 253.44 224.04 253.38 226.94 C 252.92 239.20 254.06 251.53 252.34 263.73 C 245.10 261.13 237.41 260.14 229.79 259.38 C 229.48 259.70 228.85 260.34 228.53 260.67 C 226.31 256.85 221.78 255.25 219.74 251.30 C 213.16 242.05 209.07 231.38 205.01 220.87 C 204.38 218.92 203.29 216.61 204.56 214.68 C 207.99 208.74 212.17 203.23 215.05 196.96 C 218.52 190.68 220.44 183.73 222.79 176.99 C 224.32 172.72 224.23 168.03 225.84 163.82 C 228.58 160.58 232.01 157.92 234.27 154.26 C 241.50 144.92 240.07 132.15 237.85 121.34 C 239.39 108.94 239.09 96.28 236.60 84.02 C 238.86 81.39 241.00 78.67 243.12 75.92 C 241.35 73.73 239.44 71.65 237.42 69.69 C 244.13 63.20 248.57 54.51 249.57 45.20 C 247.72 48.10 245.65 51.24 242.21 52.37 C 238.23 53.63 233.94 52.79 230.06 51.60 C 220.71 48.64 211.71 44.41 201.98 42.84 C 197.43 42.06 193.12 40.30 188.56 39.63 C 174.19 37.18 159.24 36.94 145.03 40.48 Z" />
<path fill="#ffffff" opacity="1.00" d=" M 258.15 228.19 C 258.79 228.21 260.05 228.25 260.69 228.27 C 270.62 228.56 280.56 228.45 290.49 228.28 C 295.12 228.39 299.76 228.42 304.40 228.14 C 309.10 228.47 313.81 228.37 318.52 228.24 C 322.74 228.24 326.97 228.34 331.19 228.20 C 341.46 228.58 351.75 228.20 362.03 228.50 C 361.45 233.70 362.43 238.88 364.33 243.73 C 357.62 246.96 355.52 256.18 358.59 262.58 C 361.13 265.48 365.32 265.94 368.78 267.20 C 367.29 271.87 363.83 277.09 367.05 281.82 C 369.15 286.87 375.05 287.21 379.73 287.66 C 378.45 290.38 376.68 292.99 376.34 296.04 C 376.44 299.18 378.03 302.00 379.20 304.85 C 350.18 304.84 321.18 305.28 292.17 305.05 C 283.78 304.89 275.38 304.99 267.00 305.04 C 264.59 304.98 261.76 305.05 260.04 303.05 C 258.04 301.29 257.90 298.50 257.92 296.04 C 257.95 285.82 257.95 275.61 257.92 265.39 C 258.24 252.99 257.92 240.59 258.15 228.19 M 314.57 235.04 C 315.05 235.37 316.02 236.01 316.51 236.34 C 315.15 237.21 313.76 238.05 312.53 239.10 C 313.29 238.91 314.82 238.52 315.59 238.33 C 316.83 238.03 318.08 237.77 319.34 237.50 C 318.67 237.31 317.33 236.95 316.66 236.77 C 316.73 236.31 316.87 235.40 316.94 234.95 C 316.35 234.97 315.16 235.02 314.57 235.04 M 305.23 236.17 C 304.86 236.39 304.11 236.84 303.74 237.06 C 302.53 238.20 304.87 238.25 305.44 237.76 C 306.32 237.10 308.57 237.57 308.71 236.25 C 307.59 235.68 306.43 235.65 305.23 236.17 M 327.20 236.18 C 326.62 236.32 324.45 237.59 325.90 238.04 C 327.53 237.79 329.25 237.37 330.72 236.63 C 330.44 235.27 328.14 235.87 327.20 236.18 M 288.84 242.45 C 288.25 241.63 287.69 240.79 287.14 239.96 C 285.87 239.98 284.61 240.00 283.36 240.02 C 281.21 241.23 278.93 242.46 277.79 244.78 C 278.36 246.18 278.92 247.59 279.46 249.01 C 280.33 248.91 281.21 248.82 282.09 248.72 C 281.55 248.26 280.47 247.33 279.93 246.87 C 279.43 244.13 281.19 242.38 283.47 241.24 C 283.09 242.48 283.06 245.33 285.08 245.05 C 286.82 245.40 287.77 243.74 288.85 242.69 C 288.12 245.74 291.30 244.72 292.87 245.21 C 293.69 243.86 294.52 242.51 295.33 241.15 C 294.82 241.10 293.82 241.02 293.31 240.98 C 292.99 242.66 291.94 243.97 290.19 244.29 C 290.54 242.00 292.03 240.16 292.81 238.03 L 294.04 238.00 L 293.92 236.55 C 291.53 237.82 289.75 239.90 288.84 242.45 M 300.30 239.89 C 299.50 241.03 297.45 241.91 298.08 243.61 C 299.60 245.93 302.74 244.87 305.07 244.98 C 308.32 243.86 311.53 245.34 314.84 245.11 C 315.64 243.83 316.43 242.54 317.21 241.25 C 316.76 241.19 315.86 241.06 315.42 240.99 C 315.02 242.44 314.18 243.69 312.81 244.37 C 312.93 243.41 313.16 241.48 313.28 240.52 C 312.04 241.64 311.02 242.97 310.07 244.34 C 310.17 242.80 310.43 241.20 309.66 239.79 C 308.94 241.37 307.91 242.76 306.72 244.00 C 304.29 243.99 301.86 244.00 299.44 243.95 C 299.89 240.98 302.90 240.93 305.28 240.54 C 303.66 240.04 301.97 239.94 300.30 239.89 M 322.29 239.88 C 320.74 241.14 318.61 243.49 321.37 244.88 C 324.37 245.16 327.57 245.40 330.41 244.17 C 333.74 245.96 337.81 244.67 341.45 244.93 C 343.12 243.82 345.43 243.33 346.36 241.38 C 345.89 241.52 344.94 241.79 344.46 241.93 C 344.06 241.45 343.25 240.48 342.84 240.00 C 341.30 239.66 340.54 241.22 339.56 242.06 C 337.40 239.89 333.44 240.78 332.09 243.47 C 332.22 242.19 332.09 240.94 331.72 239.72 C 330.98 241.33 329.94 242.75 328.70 244.00 C 326.28 244.00 323.87 244.00 321.46 243.96 C 321.94 242.96 322.49 242.00 323.11 241.08 C 324.55 241.05 325.98 240.82 327.35 240.35 C 325.67 240.07 323.98 239.97 322.29 239.88 M 310.30 247.17 C 309.78 248.80 310.33 249.37 311.95 248.88 C 312.46 247.23 311.91 246.66 310.30 247.17 M 341.06 247.11 C 341.35 250.39 344.03 245.48 341.06 247.11 M 294.41 250.37 C 292.68 251.16 290.80 251.57 289.00 252.18 L 289.00 253.21 C 290.21 253.06 291.39 252.80 292.56 252.44 C 294.70 251.40 296.86 250.41 298.96 249.30 C 297.67 246.80 295.92 249.44 294.41 250.37 M 313.07 254.10 C 313.28 257.38 316.09 252.53 313.07 254.10 M 276.12 259.05 C 277.10 260.12 278.16 261.10 279.24 262.07 C 281.05 262.00 282.87 262.00 284.69 262.02 C 285.62 261.31 286.58 260.62 287.55 259.95 C 288.10 260.60 288.59 261.30 289.02 262.05 C 290.70 262.02 292.39 262.00 294.08 261.98 L 293.92 259.43 C 294.73 260.27 295.52 261.13 296.31 262.00 C 298.21 262.00 300.10 262.01 302.00 262.05 C 303.33 260.88 304.33 259.44 304.14 257.56 C 302.19 258.24 301.95 260.73 299.94 261.33 C 300.13 260.07 300.36 258.82 300.63 257.58 C 299.14 258.60 298.03 260.02 296.89 261.38 C 296.71 258.81 298.94 257.11 299.19 254.66 C 297.39 255.84 296.14 257.60 295.39 259.60 C 294.55 259.00 293.73 258.39 292.93 257.75 C 291.57 258.36 291.10 259.96 289.88 260.75 C 289.97 258.67 290.07 256.59 289.96 254.51 C 288.21 255.73 288.50 258.44 286.51 259.39 C 284.15 260.97 280.10 262.24 278.07 259.59 C 277.73 257.17 281.24 256.60 282.46 254.87 C 279.62 254.82 277.42 256.70 276.12 259.05 M 315.89 258.37 C 316.16 259.53 315.50 261.50 317.01 261.97 C 318.76 262.10 320.51 261.99 322.27 261.95 L 321.67 260.01 C 322.08 259.97 322.88 259.87 323.29 259.83 C 323.52 260.35 323.99 261.39 324.23 261.91 C 327.82 262.41 332.20 262.30 334.36 258.86 C 331.09 259.51 328.30 261.78 324.76 261.01 C 325.10 258.71 326.83 256.97 327.20 254.70 C 325.82 255.89 323.61 257.05 324.15 259.29 C 323.05 258.94 321.57 258.99 321.13 257.64 C 319.77 258.83 318.38 260.00 316.97 261.13 C 317.71 259.01 318.87 257.10 319.98 255.16 C 318.01 255.27 317.06 257.09 315.89 258.37 M 342.86 256.55 C 343.18 257.89 343.66 259.20 343.88 260.57 C 342.41 261.82 340.61 262.56 338.85 263.30 C 340.09 261.50 341.36 259.72 342.39 257.79 C 341.93 257.91 341.00 258.14 340.53 258.26 C 338.55 261.43 335.87 264.08 333.91 267.25 C 335.68 266.40 337.12 265.07 338.47 263.68 C 341.03 264.66 343.22 262.67 344.98 261.10 C 345.44 259.08 344.98 257.23 342.86 256.55 M 311.97 261.14 C 311.65 260.60 311.03 259.54 310.72 259.00 C 309.58 258.99 308.44 258.97 307.30 258.96 C 305.52 260.36 303.70 263.02 306.69 264.26 C 306.75 262.10 307.50 259.98 309.91 259.73 C 309.94 260.29 309.98 261.43 310.01 262.00 C 310.77 262.01 312.28 262.05 313.04 262.07 C 314.17 260.79 315.14 259.37 315.22 257.59 C 313.49 258.07 312.93 259.84 311.97 261.14 M 296.98 265.20 L 297.00 265.91 C 299.10 265.93 301.16 266.33 303.11 267.12 C 302.98 266.68 302.72 265.78 302.59 265.34 C 303.31 265.03 304.76 264.43 305.48 264.13 C 302.57 263.64 299.69 264.11 296.98 265.20 M 277.99 272.96 C 271.69 274.41 265.06 275.92 259.94 280.12 C 259.96 280.83 260.00 282.25 260.02 282.96 C 263.12 284.47 266.56 284.99 269.98 284.98 C 277.33 284.97 284.92 285.85 291.45 289.45 C 288.24 291.97 283.25 290.27 280.49 293.27 C 284.77 292.98 288.98 292.14 293.11 290.98 C 294.30 292.89 295.36 294.94 297.05 296.48 C 296.71 294.42 296.23 292.40 295.87 290.36 C 302.00 288.73 308.49 287.36 313.68 283.51 C 315.54 282.34 314.88 279.91 315.15 278.09 C 310.92 273.26 304.15 272.23 298.08 271.97 C 291.38 272.21 284.58 271.35 277.99 272.96 M 309.01 287.70 C 309.11 290.50 309.71 293.24 310.15 296.00 C 310.62 296.00 311.55 296.01 312.02 296.01 C 311.26 293.17 311.50 289.72 309.01 287.70 M 311.75 287.67 C 312.70 290.33 313.73 292.96 314.37 295.72 C 314.78 295.86 315.59 296.14 316.00 296.28 C 315.61 294.52 315.18 292.77 314.75 291.03 C 315.55 291.02 317.16 291.01 317.96 291.00 L 318.25 289.36 C 318.88 290.21 319.46 291.10 319.98 292.04 C 320.68 292.03 322.07 292.01 322.76 292.00 C 323.19 293.32 323.64 294.65 324.09 295.98 C 325.30 295.92 326.52 295.89 327.74 295.88 C 328.32 294.32 328.96 292.77 329.63 291.24 C 330.18 292.82 330.72 294.41 331.23 296.00 C 331.72 296.01 332.70 296.01 333.20 296.02 C 332.20 293.55 331.30 290.99 329.70 288.84 C 327.44 289.97 327.49 293.50 326.06 295.48 C 324.92 292.72 324.40 289.45 321.60 287.82 C 320.35 289.35 318.60 290.30 317.21 288.35 C 317.05 288.72 316.72 289.47 316.56 289.84 C 316.20 289.55 315.47 288.97 315.10 288.68 L 314.90 290.12 C 313.87 289.28 312.83 288.45 311.75 287.67 M 333.72 297.22 C 334.22 297.12 335.23 296.90 335.74 296.80 C 337.45 293.96 338.75 290.81 339.17 287.51 C 335.90 289.60 335.58 294.05 333.72 297.22 M 344.83 287.70 C 345.67 290.53 347.03 293.17 348.22 295.86 C 348.65 295.90 349.51 295.98 349.94 296.02 C 349.35 294.42 348.71 292.83 348.04 291.27 C 350.04 291.12 351.08 289.73 351.28 287.82 C 350.19 288.55 349.14 289.33 348.03 290.02 C 346.93 289.29 345.90 288.46 344.83 287.70 M 355.19 288.25 C 353.44 291.03 352.48 294.24 351.15 297.24 C 355.11 296.34 355.32 290.98 356.58 287.74 C 356.23 287.87 355.54 288.12 355.19 288.25 M 362.01 287.69 C 362.10 290.50 362.71 293.25 363.15 296.02 C 363.62 296.01 364.56 296.00 365.03 295.99 C 364.27 293.15 364.47 289.74 362.01 287.69 M 340.45 292.46 C 338.78 293.92 342.60 296.45 343.36 294.27 C 344.74 292.75 341.55 290.84 340.45 292.46 M 359.74 294.80 C 360.46 294.42 360.71 293.84 360.49 293.05 C 360.22 292.84 359.68 292.42 359.41 292.21 C 356.77 291.66 357.51 295.55 359.74 294.80 Z" />
<path fill="#ffffff" opacity="1.00" d=" M 285.15 243.81 C 284.13 242.82 285.42 240.49 286.78 241.30 C 287.81 242.28 286.53 244.69 285.15 243.81 Z" />
<path fill="#ffffff" opacity="1.00" d=" M 334.05 243.84 C 333.83 242.47 334.41 241.89 335.81 242.11 C 336.01 243.47 335.43 244.05 334.05 243.84 Z" />
<path fill="#ffffff" opacity="1.00" d=" M 337.25 242.25 C 337.84 242.84 337.84 242.84 337.25 242.25 Z" />
<path fill="#ffffff" opacity="1.00" d=" M 292.26 260.19 C 292.79 260.80 292.79 260.80 292.26 260.19 Z" />
<path fill="#ffffff" opacity="1.00" d=" M 320.25 260.20 C 320.82 260.78 320.82 260.78 320.25 260.20 Z" />
<path fill="#ffffff" opacity="1.00" d=" M 266.64 277.69 C 279.45 272.88 293.73 271.34 307.09 274.75 C 309.99 275.59 313.31 276.90 314.30 280.06 C 314.31 281.49 312.95 282.33 311.95 283.08 C 306.90 286.19 301.07 287.57 295.40 289.08 C 294.35 286.42 293.14 283.71 290.91 281.82 C 291.46 284.69 293.14 287.16 294.18 289.86 C 290.84 287.43 287.10 285.53 283.02 284.76 C 275.70 282.88 267.71 284.78 260.66 281.72 C 262.40 280.04 264.34 278.52 266.64 277.69 Z" />
</g>
<g id="#6c5042ff">
<path fill="#6c5042" opacity="1.00" d=" M 145.03 40.48 C 159.24 36.94 174.19 37.18 188.56 39.63 C 193.12 40.30 197.43 42.06 201.98 42.84 C 211.71 44.41 220.71 48.64 230.06 51.60 C 233.94 52.79 238.23 53.63 242.21 52.37 C 245.65 51.24 247.72 48.10 249.57 45.20 C 248.57 54.51 244.13 63.20 237.42 69.69 C 239.44 71.65 241.35 73.73 243.12 75.92 C 241.00 78.67 238.86 81.39 236.60 84.02 C 239.09 96.28 239.39 108.94 237.85 121.34 C 236.21 119.27 234.04 117.72 231.83 116.32 C 229.39 126.19 227.39 136.15 225.14 146.05 C 222.85 130.48 221.20 114.82 219.18 99.22 C 204.24 108.64 186.59 113.24 168.99 113.39 C 151.35 113.69 133.85 110.12 117.16 104.57 C 115.41 119.01 113.81 133.48 111.92 147.90 C 108.69 137.75 105.59 127.55 102.16 117.46 C 101.08 118.25 100.00 119.05 98.93 119.85 C 98.84 119.22 98.68 117.97 98.60 117.34 C 96.72 99.67 98.39 80.62 108.37 65.42 C 116.67 52.63 130.38 44.08 145.03 40.48 Z" />
<path fill="#6c5042" opacity="1.00" d=" M 272.42 211.45 C 273.73 210.42 275.22 212.74 273.99 213.69 C 272.65 214.71 271.21 212.39 272.42 211.45 Z" />
</g>
<g id="#fcebd4ff">
<path fill="#fcebd4" opacity="1.00" d=" M 168.99 113.39 C 186.59 113.24 204.24 108.64 219.18 99.22 C 221.20 114.82 222.85 130.48 225.14 146.05 C 227.39 136.15 229.39 126.19 231.83 116.32 C 234.04 117.72 236.21 119.27 237.85 121.34 C 240.07 132.15 241.50 144.92 234.27 154.26 C 232.01 157.92 228.58 160.58 225.84 163.82 C 224.23 168.03 224.32 172.72 222.79 176.99 C 220.44 183.73 218.52 190.68 215.05 196.96 C 212.17 203.23 207.99 208.74 204.56 214.68 C 203.29 216.61 204.38 218.92 205.01 220.87 C 209.07 231.38 213.16 242.05 219.74 251.30 C 221.78 255.25 226.31 256.85 228.53 260.67 C 217.34 270.93 202.54 276.49 187.83 279.43 C 163.56 284.22 138.12 279.60 116.05 268.84 C 111.90 266.70 107.50 264.56 104.70 260.66 C 108.42 258.97 111.76 256.51 114.72 253.72 C 120.59 247.67 123.90 239.74 127.12 232.09 C 128.59 226.74 131.53 221.71 131.71 216.08 C 132.11 213.12 129.25 211.37 127.94 209.07 C 120.69 198.00 114.82 185.92 111.86 172.97 C 111.18 170.10 111.13 166.99 109.72 164.34 C 107.52 161.22 103.66 159.72 101.61 156.45 C 99.24 152.90 96.50 149.36 95.82 145.03 C 94.76 139.56 95.03 133.93 95.54 128.42 C 96.19 124.66 96.52 120.65 98.60 117.34 C 98.68 117.97 98.84 119.22 98.93 119.85 C 100.00 119.05 101.08 118.25 102.16 117.46 C 105.59 127.55 108.69 137.75 111.92 147.90 C 113.81 133.48 115.41 119.01 117.16 104.57 C 133.85 110.12 151.35 113.69 168.99 113.39 Z" />
</g>
<g id="#9cd3efff">
<path fill="#9cd3ef" opacity="1.00" d=" M 291.69 147.96 C 293.39 147.41 295.20 147.40 296.97 147.39 C 313.74 147.38 330.51 147.10 347.27 147.45 C 345.83 147.61 344.40 147.78 342.96 147.91 C 339.63 148.19 336.28 148.23 332.94 148.29 C 336.00 149.10 342.18 148.54 341.56 153.20 C 341.86 156.54 338.89 160.46 341.98 163.16 C 335.14 162.79 328.29 163.02 321.45 162.77 C 321.42 162.54 321.37 162.08 321.34 161.85 C 323.85 160.69 323.57 158.04 323.51 155.74 C 321.47 156.93 319.47 158.23 317.30 159.18 C 314.67 160.46 311.58 159.15 308.93 160.41 L 308.92 160.41 C 309.80 158.46 310.08 156.34 308.53 154.67 C 308.15 156.38 307.81 158.11 307.48 159.84 C 306.59 159.65 305.71 159.46 304.83 159.27 C 305.23 160.29 305.63 161.31 306.04 162.33 C 305.80 162.30 305.33 162.25 305.09 162.22 C 302.22 161.22 299.21 160.61 296.17 161.01 C 295.59 159.30 294.94 157.62 294.27 155.95 C 295.10 155.74 295.93 155.52 296.77 155.31 C 297.70 153.95 298.63 152.58 299.57 151.21 C 297.94 151.06 296.31 150.89 294.70 150.70 C 296.49 149.88 298.40 149.22 300.41 149.40 C 305.97 149.65 311.49 148.91 317.02 148.42 C 311.35 148.23 305.68 148.45 300.02 148.19 C 297.38 147.98 294.79 148.53 292.32 149.37 C 292.16 149.02 291.85 148.31 291.69 147.96 M 323.28 152.18 C 321.76 152.23 321.50 154.91 323.14 154.97 C 324.69 154.97 324.93 152.20 323.28 152.18 M 315.37 155.00 C 315.57 158.34 318.32 153.41 315.37 155.00 M 330.79 160.84 C 331.85 161.18 332.91 161.53 333.98 161.89 C 334.93 159.55 335.93 157.24 337.01 154.96 C 334.51 156.43 332.39 158.42 330.79 160.84 M 327.13 156.34 C 326.56 157.94 327.11 158.49 328.77 157.99 C 329.33 156.38 328.78 155.83 327.13 156.34 M 324.02 160.05 C 324.30 160.55 324.87 161.53 325.15 162.02 C 327.09 161.74 329.30 161.68 330.52 159.87 C 328.35 159.86 326.18 159.95 324.02 160.05 Z" />
</g>
<g id="#cdcde4ff">
<path fill="#cdcde4" opacity="1.00" d=" M 347.27 147.45 C 357.50 146.57 367.78 147.09 378.03 146.71 C 380.03 146.82 382.54 146.19 384.02 147.95 C 388.07 151.41 385.57 157.20 386.18 161.77 C 382.62 159.25 377.99 160.87 374.10 159.20 C 374.12 158.41 374.15 156.83 374.16 156.04 C 374.80 156.97 375.45 157.90 376.11 158.82 C 376.45 156.31 375.53 154.20 373.55 152.71 C 373.22 154.66 372.89 156.62 372.52 158.56 C 372.22 156.15 372.10 153.72 371.95 151.31 C 369.49 152.79 370.18 156.03 369.58 158.44 C 369.31 156.52 369.06 154.61 368.79 152.70 C 367.92 153.54 367.02 154.35 366.25 155.28 C 365.53 156.80 366.88 158.17 367.44 159.48 C 360.87 160.60 353.98 160.59 347.60 158.52 C 347.32 154.51 346.61 150.28 342.96 147.91 C 344.40 147.78 345.83 147.61 347.27 147.45 Z" />
</g>
<g id="#d2cde3ff">
<path fill="#d2cde3" opacity="1.00" d=" M 260.59 149.01 C 262.00 148.37 263.40 147.57 265.01 147.60 C 271.28 147.39 277.56 147.58 283.84 147.62 C 283.39 151.28 283.31 154.99 282.61 158.62 C 280.97 160.16 278.60 159.45 276.64 159.24 L 275.52 159.07 C 275.63 158.63 275.86 157.74 275.97 157.30 C 276.15 156.34 276.30 155.37 276.41 154.40 C 274.80 152.85 272.52 153.68 270.57 153.71 C 269.11 152.76 267.50 152.10 265.79 151.77 C 266.38 153.42 267.03 155.06 267.73 156.68 C 268.07 157.59 268.61 158.36 269.34 159.00 L 267.80 158.86 C 268.19 159.82 268.60 160.78 269.02 161.74 C 265.71 159.51 261.66 160.13 257.94 160.60 C 257.96 157.03 257.64 153.46 257.90 149.89 C 258.64 149.23 259.68 149.27 260.59 149.01 Z" />
</g>
<g id="#bfd6ecff">
<path fill="#bfd6ec" opacity="1.00" d=" M 283.84 147.62 C 286.43 147.66 289.19 147.07 291.69 147.96 C 291.85 148.31 292.16 149.02 292.32 149.37 C 294.79 148.53 297.38 147.98 300.02 148.19 C 305.68 148.45 311.35 148.23 317.02 148.42 C 311.49 148.91 305.97 149.65 300.41 149.40 C 298.40 149.22 296.49 149.88 294.70 150.70 C 296.31 150.89 297.94 151.06 299.57 151.21 C 298.63 152.58 297.70 153.95 296.77 155.31 C 295.93 155.52 295.10 155.74 294.27 155.95 C 294.94 157.62 295.59 159.30 296.17 161.01 C 296.03 161.44 295.76 162.30 295.62 162.73 C 294.81 162.33 294.00 161.94 293.19 161.55 C 292.20 161.85 291.21 162.15 290.22 162.45 C 288.38 161.56 286.46 160.09 284.33 161.06 C 282.80 161.54 281.30 162.11 279.79 162.63 C 279.49 162.29 278.89 161.61 278.59 161.28 C 278.10 160.77 277.12 159.75 276.64 159.24 C 278.60 159.45 280.97 160.16 282.61 158.62 C 283.31 154.99 283.39 151.28 283.84 147.62 Z" />
</g>
<g id="#b1dff1ff">
<path fill="#b1dff1" opacity="1.00" d=" M 332.94 148.29 C 336.28 148.23 339.63 148.19 342.96 147.91 C 346.61 150.28 347.32 154.51 347.60 158.52 C 353.98 160.59 360.87 160.60 367.44 159.48 C 367.87 159.43 368.75 159.33 369.18 159.29 C 369.47 160.42 369.60 161.58 369.57 162.75 C 366.90 162.80 363.72 161.61 361.51 163.62 C 362.64 163.54 363.77 163.46 364.90 163.37 C 365.95 163.74 367.01 164.13 368.06 164.51 C 369.74 163.86 371.43 163.22 373.12 162.59 C 373.26 163.10 373.55 164.13 373.69 164.65 C 376.11 163.93 378.48 163.01 380.59 161.59 C 377.29 162.75 373.79 162.98 370.40 162.07 C 371.61 161.09 372.85 160.13 374.10 159.20 C 377.99 160.87 382.62 159.25 386.18 161.77 C 386.06 174.92 386.08 188.07 385.75 201.22 C 384.07 198.54 381.81 196.31 379.32 194.39 C 379.89 191.59 381.35 189.14 383.07 186.91 C 380.50 186.53 377.91 186.55 375.35 186.92 C 374.53 183.42 373.83 179.90 373.23 176.36 C 375.05 176.40 376.88 176.46 378.71 176.53 C 378.48 175.57 378.25 174.60 378.03 173.64 C 378.55 173.53 379.59 173.32 380.11 173.21 L 380.94 173.08 C 380.36 172.10 379.78 171.12 379.21 170.15 C 378.91 170.55 378.30 171.34 378.00 171.74 L 377.43 171.52 C 374.97 170.08 372.10 169.80 369.45 170.89 L 368.28 171.28 C 366.55 170.11 364.85 168.87 362.96 167.95 C 360.00 166.58 356.57 166.77 353.64 165.34 C 352.51 164.12 352.18 162.40 351.50 160.93 C 349.91 162.05 348.32 163.16 346.73 164.25 C 345.15 163.87 343.56 163.50 341.98 163.16 C 338.89 160.46 341.86 156.54 341.56 153.20 C 342.18 148.54 336.00 149.10 332.94 148.29 Z" />
</g>
<g id="#47a88bff">
<path fill="#47a88b" opacity="1.00" d=" M 265.79 151.77 C 267.50 152.10 269.11 152.76 270.57 153.71 C 272.52 153.68 274.80 152.85 276.41 154.40 C 276.30 155.37 276.15 156.34 275.97 157.30 C 275.19 157.16 273.63 156.87 272.85 156.73 C 272.44 156.74 271.63 156.76 271.22 156.77 C 270.05 156.64 268.89 156.61 267.73 156.68 C 267.03 155.06 266.38 153.42 265.79 151.77 Z" />
<path fill="#47a88b" opacity="1.00" d=" M 369.58 158.44 C 370.18 156.03 369.49 152.79 371.95 151.31 C 372.10 153.72 372.22 156.15 372.52 158.56 C 372.89 156.62 373.22 154.66 373.55 152.71 C 375.53 154.20 376.45 156.31 376.11 158.82 C 375.45 157.90 374.80 156.97 374.16 156.04 C 374.15 156.83 374.12 158.41 374.10 159.20 C 372.85 160.13 371.61 161.09 370.40 162.07 C 373.79 162.98 377.29 162.75 380.59 161.59 C 378.48 163.01 376.11 163.93 373.69 164.65 C 373.55 164.13 373.26 163.10 373.12 162.59 C 371.43 163.22 369.74 163.86 368.06 164.51 C 367.01 164.13 365.95 163.74 364.90 163.37 C 363.77 163.46 362.64 163.54 361.51 163.62 C 363.72 161.61 366.90 162.80 369.57 162.75 C 369.60 161.58 369.47 160.42 369.18 159.29 C 368.75 159.33 367.87 159.43 367.44 159.48 C 366.88 158.17 365.53 156.80 366.25 155.28 C 367.02 154.35 367.92 153.54 368.79 152.70 C 369.06 154.61 369.31 156.52 369.58 158.44 Z" />
<path fill="#47a88b" opacity="1.00" d=" M 378.00 171.74 C 378.30 171.34 378.91 170.55 379.21 170.15 C 379.78 171.12 380.36 172.10 380.94 173.08 L 380.11 173.21 C 377.80 173.08 375.12 173.42 373.39 171.57 C 374.73 171.51 376.08 171.50 377.43 171.52 L 378.00 171.74 Z" />
<path fill="#47a88b" opacity="1.00" d=" M 363.09 173.23 C 364.81 172.55 366.53 171.88 368.28 171.28 L 369.45 170.89 C 369.28 171.37 368.92 172.32 368.74 172.80 C 367.24 173.39 365.71 173.92 364.20 174.47 C 363.92 174.16 363.36 173.54 363.09 173.23 Z" />
<path fill="#47a88b" opacity="1.00" d=" M 363.45 189.38 C 365.44 188.82 367.49 188.48 369.56 188.39 C 370.27 188.40 371.68 188.40 372.39 188.40 C 374.18 188.50 375.94 188.82 377.71 189.09 C 377.05 189.22 375.71 189.47 375.05 189.60 C 374.34 189.63 372.92 189.71 372.21 189.75 C 370.49 189.75 368.78 189.71 367.07 189.64 C 366.16 189.57 364.36 189.45 363.45 189.38 Z" />
<path fill="#47a88b" opacity="1.00" d=" M 362.75 196.90 C 363.97 196.70 365.20 196.54 366.45 196.42 C 367.82 196.50 369.19 196.65 370.57 196.70 C 371.51 196.50 372.44 196.27 373.37 196.00 C 373.39 196.31 373.43 196.93 373.45 197.24 C 370.59 198.47 368.44 200.71 366.57 203.15 C 366.54 203.68 366.48 204.74 366.44 205.28 C 362.23 206.49 358.18 208.18 354.05 209.62 C 359.95 207.16 368.52 204.62 368.99 197.04 C 368.38 197.33 367.14 197.91 366.53 198.20 C 365.26 197.77 364.00 197.34 362.75 196.90 Z" />
</g>
<g id="#a98ba9ff">
<path fill="#a98ba9" opacity="1.00" d=" M 323.28 152.18 C 324.93 152.20 324.69 154.97 323.14 154.97 C 321.50 154.91 321.76 152.23 323.28 152.18 Z" />
</g>
<g id="#aa84a3ff">
<path fill="#aa84a3" opacity="1.00" d=" M 308.53 154.67 C 310.08 156.34 309.80 158.46 308.92 160.41 C 307.97 161.07 307.01 161.72 306.04 162.33 C 305.63 161.31 305.23 160.29 304.83 159.27 C 305.71 159.46 306.59 159.65 307.48 159.84 C 307.81 158.11 308.15 156.38 308.53 154.67 Z" />
</g>
<g id="#a598b7ff">
<path fill="#a598b7" opacity="1.00" d=" M 315.37 155.00 C 318.32 153.41 315.57 158.34 315.37 155.00 Z" />
</g>
<g id="#a58aa9ff">
<path fill="#a58aa9" opacity="1.00" d=" M 330.79 160.84 C 332.39 158.42 334.51 156.43 337.01 154.96 C 335.93 157.24 334.93 159.55 333.98 161.89 C 332.91 161.53 331.85 161.18 330.79 160.84 Z" />
</g>
<g id="#ab80a0ff">
<path fill="#ab80a0" opacity="1.00" d=" M 317.30 159.18 C 319.47 158.23 321.47 156.93 323.51 155.74 C 323.57 158.04 323.85 160.69 321.34 161.85 C 321.28 161.12 321.15 159.66 321.08 158.93 C 317.37 160.80 312.77 163.65 308.93 160.41 C 311.58 159.15 314.67 160.46 317.30 159.18 Z" />
</g>
<g id="#ad8eaeff">
<path fill="#ad8eae" opacity="1.00" d=" M 327.13 156.34 C 328.78 155.83 329.33 156.38 328.77 157.99 C 327.11 158.49 326.56 157.94 327.13 156.34 Z" />
</g>
<g id="#f1e8eaff">
<path fill="#f1e8ea" opacity="1.00" d=" M 267.73 156.68 C 268.89 156.61 270.05 156.64 271.22 156.77 C 270.95 157.35 270.43 158.50 270.16 159.08 L 269.34 159.00 C 268.61 158.36 268.07 157.59 267.73 156.68 Z" />
</g>
<g id="#e54c6aff">
<path fill="#e54c6a" opacity="1.00" d=" M 271.22 156.77 C 271.63 156.76 272.44 156.74 272.85 156.73 C 272.17 158.38 274.23 159.16 275.52 159.07 L 276.64 159.24 C 277.12 159.75 278.10 160.77 278.59 161.28 C 277.33 164.94 273.14 161.91 270.61 161.55 C 270.50 160.93 270.28 159.70 270.16 159.08 C 270.43 158.50 270.95 157.35 271.22 156.77 Z" />
</g>
<g id="#f3e8e8ff">
<path fill="#f3e8e8" opacity="1.00" d=" M 272.85 156.73 C 273.63 156.87 275.19 157.16 275.97 157.30 C 275.86 157.74 275.63 158.63 275.52 159.07 C 274.23 159.16 272.17 158.38 272.85 156.73 Z" />
</g>
<g id="#c6a3bbff">
<path fill="#c6a3bb" opacity="1.00" d=" M 267.80 158.86 L 269.34 159.00 L 270.16 159.08 C 270.28 159.70 270.50 160.93 270.61 161.55 C 273.14 161.91 277.33 164.94 278.59 161.28 C 278.89 161.61 279.49 162.29 279.79 162.63 C 276.69 163.86 273.31 163.88 270.03 163.87 C 269.77 163.33 269.27 162.27 269.02 161.74 C 268.60 160.78 268.19 159.82 267.80 158.86 Z" />
</g>
<g id="#bae4f5ff">
<path fill="#bae4f5" opacity="1.00" d=" M 308.93 160.41 C 312.77 163.65 317.37 160.80 321.08 158.93 C 321.15 159.66 321.28 161.12 321.34 161.85 C 321.37 162.08 321.42 162.54 321.45 162.77 C 328.29 163.02 335.14 162.79 341.98 163.16 C 343.56 163.50 345.15 163.87 346.73 164.25 C 346.98 166.20 347.25 168.14 347.53 170.08 C 346.04 170.11 344.57 170.14 343.10 170.17 C 343.19 170.41 343.39 170.89 343.49 171.13 C 343.67 171.61 344.03 172.56 344.22 173.04 L 345.15 172.47 C 345.02 173.31 344.77 174.98 344.64 175.81 C 343.52 176.62 342.38 177.42 341.25 178.22 C 341.69 182.41 345.95 183.85 348.35 186.73 C 348.79 187.36 349.66 188.61 350.09 189.24 C 349.19 189.34 347.39 189.53 346.49 189.63 C 345.99 188.41 345.39 187.24 344.69 186.14 C 341.28 185.53 337.80 185.76 334.36 185.72 C 334.24 184.42 334.13 183.12 334.06 181.82 C 334.96 178.70 334.32 175.59 332.73 172.82 C 334.33 172.53 335.95 172.27 337.57 172.05 C 337.67 172.46 337.89 173.30 338.00 173.71 C 338.51 173.16 339.03 172.60 339.55 172.05 C 340.56 173.92 342.52 173.62 344.28 173.39 C 343.20 172.17 341.83 171.41 340.32 170.91 C 337.62 170.77 334.92 170.68 332.22 170.67 C 331.80 168.45 331.05 166.31 330.11 164.27 C 329.27 168.33 330.16 173.04 327.26 176.43 C 327.36 177.97 327.49 179.51 327.66 181.05 C 327.75 182.56 327.79 184.08 327.85 185.59 C 325.95 185.74 324.05 185.90 322.16 186.06 C 321.98 187.50 321.82 188.95 321.69 190.40 C 321.29 188.78 320.82 187.20 320.33 185.61 C 318.87 185.12 317.18 184.93 316.02 183.84 C 314.64 178.90 316.35 173.70 315.08 168.71 C 312.60 171.08 309.80 173.42 308.59 176.74 C 307.88 179.22 307.83 181.83 307.63 184.39 C 307.21 184.37 306.37 184.33 305.95 184.30 C 305.17 185.11 304.40 185.93 303.63 186.74 C 302.95 186.44 302.27 186.14 301.59 185.85 C 301.40 184.42 301.22 183.00 301.06 181.57 C 301.00 181.14 300.95 180.72 300.91 180.29 C 300.76 177.51 302.80 174.03 300.08 171.96 C 299.06 171.04 297.69 170.70 296.46 170.20 C 296.42 169.06 296.40 167.92 296.38 166.79 C 295.40 167.60 294.43 168.42 293.47 169.24 C 293.11 167.63 292.71 166.04 292.29 164.46 C 289.31 164.18 286.16 163.71 284.33 161.06 C 286.46 160.09 288.38 161.56 290.22 162.45 C 291.21 162.15 292.20 161.85 293.19 161.55 C 294.00 161.94 294.81 162.33 295.62 162.73 C 295.76 162.30 296.03 161.44 296.17 161.01 C 299.21 160.61 302.22 161.22 305.09 162.22 C 305.33 162.25 305.80 162.30 306.04 162.33 C 307.01 161.72 307.97 161.07 308.92 160.41 L 308.93 160.41 Z" />
</g>
<g id="#b7e2f3ff">
<path fill="#b7e2f3" opacity="1.00" d=" M 257.94 160.60 C 261.66 160.13 265.71 159.51 269.02 161.74 C 269.27 162.27 269.77 163.33 270.03 163.87 C 269.74 164.59 269.46 165.33 269.18 166.06 C 266.14 167.96 264.14 170.96 262.30 173.95 C 262.54 174.27 263.00 174.91 263.23 175.22 C 260.39 180.23 262.30 185.77 263.03 191.04 C 263.20 193.08 264.58 194.64 265.72 196.24 C 265.62 196.83 265.42 198.02 265.33 198.62 L 265.12 199.42 C 264.10 202.42 264.50 205.62 264.59 208.73 C 264.59 208.94 264.59 209.37 264.60 209.59 C 262.42 209.77 260.23 209.84 258.05 209.93 C 258.06 193.49 257.85 177.04 257.94 160.60 Z" />
</g>
<g id="#ac7697ff">
<path fill="#ac7697" opacity="1.00" d=" M 324.02 160.05 C 326.18 159.95 328.35 159.86 330.52 159.87 C 329.30 161.68 327.09 161.74 325.15 162.02 C 324.87 161.53 324.30 160.55 324.02 160.05 Z" />
</g>
<g id="#cae9f4ff">
<path fill="#cae9f4" opacity="1.00" d=" M 279.79 162.63 C 281.30 162.11 282.80 161.54 284.33 161.06 C 286.16 163.71 289.31 164.18 292.29 164.46 C 292.71 166.04 293.11 167.63 293.47 169.24 C 294.43 168.42 295.40 167.60 296.38 166.79 C 296.40 167.92 296.42 169.06 296.46 170.20 C 297.69 170.70 299.06 171.04 300.08 171.96 C 302.80 174.03 300.76 177.51 300.91 180.29 C 300.95 180.72 301.00 181.14 301.06 181.57 C 301.22 183.00 301.40 184.42 301.59 185.85 C 302.27 186.14 302.95 186.44 303.63 186.74 C 304.40 185.93 305.17 185.11 305.95 184.30 C 306.37 184.33 307.21 184.37 307.63 184.39 C 307.83 181.83 307.88 179.22 308.59 176.74 C 309.80 173.42 312.60 171.08 315.08 168.71 C 316.35 173.70 314.64 178.90 316.02 183.84 C 317.18 184.93 318.87 185.12 320.33 185.61 C 320.82 187.20 321.29 188.78 321.69 190.40 C 321.34 194.14 323.45 199.34 320.09 202.04 C 319.86 198.11 320.45 194.09 319.63 190.22 C 318.16 187.66 315.09 186.69 312.98 184.76 C 312.46 182.59 313.24 180.37 313.53 178.21 C 313.25 177.92 312.69 177.32 312.40 177.03 C 312.35 179.64 312.45 182.28 311.99 184.86 C 310.12 186.41 307.83 187.35 306.00 188.95 C 305.02 190.84 305.27 193.11 304.95 195.17 C 304.75 197.48 304.48 199.79 304.09 202.08 C 301.90 200.40 301.28 197.71 300.58 195.20 C 298.97 196.42 297.35 197.64 295.74 198.85 C 294.78 198.19 293.79 197.60 292.78 197.03 C 296.17 194.64 296.09 190.29 296.56 186.60 C 297.27 181.00 294.36 175.87 292.65 170.72 C 292.04 170.73 290.82 170.75 290.22 170.76 C 289.36 170.15 288.54 169.48 287.71 168.86 C 287.25 168.78 286.33 168.62 285.86 168.54 C 282.61 168.35 279.35 168.41 276.10 168.53 C 275.30 169.37 274.49 170.22 273.69 171.07 C 272.83 171.99 271.96 172.91 271.15 173.87 C 266.50 180.48 267.03 189.41 269.93 196.62 C 268.35 197.19 266.82 197.88 265.33 198.62 C 265.42 198.02 265.62 196.83 265.72 196.24 C 264.58 194.64 263.20 193.08 263.03 191.04 C 262.30 185.77 260.39 180.23 263.23 175.22 C 263.00 174.91 262.54 174.27 262.30 173.95 C 264.14 170.96 266.14 167.96 269.18 166.06 C 269.46 165.33 269.74 164.59 270.03 163.87 C 273.31 163.88 276.69 163.86 279.79 162.63 Z" />
</g>
<g id="#91d4e7ff">
<path fill="#91d4e7" opacity="1.00" d=" M 346.73 164.25 C 348.32 163.16 349.91 162.05 351.50 160.93 C 352.18 162.40 352.51 164.12 353.64 165.34 C 356.57 166.77 360.00 166.58 362.96 167.95 C 364.85 168.87 366.55 170.11 368.28 171.28 C 366.53 171.88 364.81 172.55 363.09 173.23 C 363.36 173.54 363.92 174.16 364.20 174.47 C 365.71 173.92 367.24 173.39 368.74 172.80 C 368.47 174.08 368.19 175.36 367.90 176.64 C 366.54 176.51 365.18 176.38 363.83 176.27 C 364.50 177.57 365.19 178.86 365.88 180.17 C 363.87 178.44 360.31 181.94 363.93 182.38 C 365.19 182.73 366.47 183.06 367.68 183.58 C 368.83 184.90 368.92 186.81 369.56 188.39 C 367.49 188.48 365.44 188.82 363.45 189.38 C 364.36 189.45 366.16 189.57 367.07 189.64 C 367.00 190.62 366.93 191.60 366.87 192.59 C 365.20 190.86 363.03 190.17 360.69 190.76 C 362.88 192.35 365.12 193.97 366.45 196.42 C 365.20 196.54 363.97 196.70 362.75 196.90 C 362.75 196.34 362.76 195.20 362.77 194.63 C 361.05 194.44 359.33 194.24 357.62 194.02 C 358.40 192.08 359.17 190.15 359.91 188.20 C 358.88 188.57 357.85 188.96 356.84 189.36 C 356.80 188.78 356.74 187.61 356.71 187.02 C 358.37 185.64 359.97 184.17 361.32 182.48 C 360.35 182.58 359.38 182.69 358.42 182.80 C 358.96 181.19 359.49 179.58 360.01 177.97 C 359.11 178.78 358.21 179.60 357.32 180.41 C 355.46 180.38 353.60 180.35 351.75 180.29 C 351.62 178.08 351.56 175.86 352.01 173.68 C 352.20 173.44 352.57 172.97 352.76 172.73 C 354.61 173.29 356.31 172.52 357.90 171.64 C 360.11 171.50 362.33 171.69 364.54 171.85 C 360.75 167.43 354.15 169.98 349.95 166.20 C 350.17 167.94 350.39 169.67 350.53 171.42 C 348.18 171.56 345.81 171.48 343.49 171.13 C 343.39 170.89 343.19 170.41 343.10 170.17 C 344.57 170.14 346.04 170.11 347.53 170.08 C 347.25 168.14 346.98 166.20 346.73 164.25 Z" />
</g>
<g id="#7dd0e7ff">
<path fill="#7dd0e7" opacity="1.00" d=" M 330.11 164.27 C 331.05 166.31 331.80 168.45 332.22 170.67 C 332.35 171.21 332.60 172.29 332.73 172.82 C 334.32 175.59 334.96 178.70 334.06 181.82 C 333.59 183.61 333.06 185.38 332.55 187.16 C 332.11 186.03 331.68 184.90 331.25 183.78 C 330.58 183.63 329.91 183.49 329.25 183.35 C 328.71 182.59 328.18 181.82 327.66 181.05 C 327.49 179.51 327.36 177.97 327.26 176.43 C 330.16 173.04 329.27 168.33 330.11 164.27 M 330.13 171.27 C 328.54 174.25 333.43 171.48 330.13 171.27 Z" />
<path fill="#7dd0e7" opacity="1.00" d=" M 325.22 188.16 C 331.37 188.29 337.55 188.40 343.68 189.01 C 344.30 191.11 344.98 193.19 345.65 195.27 L 345.93 196.22 C 344.46 196.86 344.49 197.44 346.04 197.95 C 345.86 198.96 345.71 199.97 345.60 200.99 L 345.53 201.99 C 344.57 202.78 343.60 203.56 342.66 204.37 L 342.46 204.54 L 342.30 204.78 L 341.95 205.30 C 340.84 206.97 339.80 208.68 338.92 210.48 L 338.67 211.31 C 337.49 210.30 336.33 209.30 335.17 208.30 C 334.74 209.22 334.33 210.15 333.93 211.08 C 333.46 211.06 332.52 211.02 332.05 211.00 L 330.79 211.13 L 329.90 211.22 C 329.88 210.23 329.86 209.25 329.83 208.27 C 329.00 208.95 328.18 209.63 327.36 210.32 C 323.90 209.84 320.05 210.54 316.86 209.23 C 316.90 207.15 317.04 205.08 317.17 203.00 C 319.22 203.01 321.28 203.03 323.33 203.09 C 322.82 205.00 322.15 206.87 321.34 208.67 C 322.14 208.61 322.94 208.56 323.75 208.51 C 324.11 202.07 323.31 195.57 324.17 189.17 C 324.43 188.92 324.95 188.41 325.22 188.16 M 325.96 190.07 C 325.95 191.23 325.94 192.39 325.94 193.55 C 331.22 192.75 336.57 193.49 341.85 192.88 C 341.91 192.24 342.02 190.95 342.07 190.31 C 336.70 190.24 331.33 190.03 325.96 190.07 M 331.19 196.66 C 331.20 196.86 331.23 197.27 331.24 197.48 C 332.82 197.34 334.40 197.22 335.99 197.12 C 336.80 197.82 337.65 198.46 338.58 199.00 C 338.56 198.38 338.52 197.14 338.50 196.52 C 336.06 196.47 333.62 196.63 331.19 196.66 M 339.96 196.34 C 338.49 199.36 343.31 196.44 339.96 196.34 M 343.25 196.14 C 342.10 196.24 341.17 198.63 342.75 198.74 C 343.92 198.66 344.84 196.23 343.25 196.14 Z" />
</g>
<g id="#c4cee4ff">
<path fill="#c4cee4" opacity="1.00" d=" M 349.95 166.20 C 354.15 169.98 360.75 167.43 364.54 171.85 C 362.33 171.69 360.11 171.50 357.90 171.64 C 356.68 171.68 355.47 171.73 354.26 171.78 C 353.88 171.32 353.12 170.42 352.74 169.97 C 352.70 170.68 352.63 172.10 352.59 172.81 C 352.08 172.46 351.05 171.77 350.53 171.42 C 350.39 169.67 350.17 167.94 349.95 166.20 Z" />
</g>
<g id="#24242aff">
<path fill="#24242a" opacity="1.00" d=" M 273.69 171.07 C 274.49 170.22 275.30 169.37 276.10 168.53 C 279.35 168.41 282.61 168.35 285.86 168.54 C 286.78 169.93 287.68 171.33 288.56 172.74 C 284.35 172.93 280.13 172.95 275.92 173.22 C 275.85 173.66 275.71 174.56 275.65 175.01 C 275.56 175.75 275.39 177.24 275.30 177.99 C 274.77 177.82 273.72 177.47 273.19 177.30 C 273.34 175.22 273.50 173.15 273.69 171.07 Z" />
<path fill="#24242a" opacity="1.00" d=" M 346.93 211.63 C 346.99 211.61 347.13 211.58 347.20 211.56 C 347.91 211.53 348.63 211.50 349.35 211.46 C 350.71 211.50 352.07 211.53 353.43 211.57 C 353.22 211.82 352.80 212.31 352.59 212.56 C 351.81 212.45 351.03 212.37 350.25 212.34 C 350.10 212.65 349.80 213.26 349.65 213.56 C 348.47 213.63 347.29 213.70 346.12 213.78 C 346.32 213.24 346.72 212.17 346.93 211.63 Z" />
</g>
<g id="#807d7dff">
<path fill="#807d7d" opacity="1.00" d=" M 285.86 168.54 C 286.33 168.62 287.25 168.78 287.71 168.86 C 288.54 169.48 289.36 170.15 290.22 170.76 C 290.43 171.20 290.86 172.09 291.07 172.54 C 291.49 174.35 291.95 176.15 292.12 178.01 C 291.32 180.36 289.56 182.22 287.87 183.98 C 287.89 182.61 287.92 181.24 287.95 179.88 C 286.66 179.88 285.37 179.89 284.08 179.89 C 285.56 179.67 287.02 179.36 288.50 179.09 C 288.34 177.20 288.17 175.31 288.00 173.43 C 283.86 173.79 279.74 174.33 275.65 175.01 C 275.71 174.56 275.85 173.66 275.92 173.22 C 280.13 172.95 284.35 172.93 288.56 172.74 C 287.68 171.33 286.78 169.93 285.86 168.54 Z" />
</g>
<g id="#f5f7f4ff">
<path fill="#f5f7f4" opacity="1.00" d=" M 290.22 170.76 C 290.82 170.75 292.04 170.73 292.65 170.72 C 294.36 175.87 297.27 181.00 296.56 186.60 C 296.09 190.29 296.17 194.64 292.78 197.03 C 292.14 196.83 290.85 196.44 290.20 196.24 C 290.77 190.14 292.36 184.19 292.90 178.10 C 293.35 175.99 292.11 174.22 291.07 172.54 C 290.86 172.09 290.43 171.20 290.22 170.76 Z" />
</g>
<g id="#29292dff">
<path fill="#29292d" opacity="1.00" d=" M 352.59 172.81 C 352.63 172.10 352.70 170.68 352.74 169.97 C 353.12 170.42 353.88 171.32 354.26 171.78 C 355.47 171.73 356.68 171.68 357.90 171.64 C 356.31 172.52 354.61 173.29 352.76 172.73 C 352.57 172.97 352.20 173.44 352.01 173.68 C 350.89 173.14 349.77 172.61 348.62 172.15 C 348.46 172.56 348.14 173.39 347.98 173.80 C 347.53 173.31 346.62 172.34 346.17 171.85 L 345.15 172.47 L 344.22 173.04 C 344.03 172.56 343.67 171.61 343.49 171.13 C 345.81 171.48 348.18 171.56 350.53 171.42 C 351.05 171.77 352.08 172.46 352.59 172.81 Z" />
<path fill="#29292d" opacity="1.00" d=" M 332.22 170.67 C 334.92 170.68 337.62 170.77 340.32 170.91 C 341.83 171.41 343.20 172.17 344.28 173.39 C 342.52 173.62 340.56 173.92 339.55 172.05 C 339.03 172.60 338.51 173.16 338.00 173.71 C 337.89 173.30 337.67 172.46 337.57 172.05 C 335.95 172.27 334.33 172.53 332.73 172.82 C 332.60 172.29 332.35 171.21 332.22 170.67 Z" />
<path fill="#29292d" opacity="1.00" d=" M 348.36 179.67 C 348.73 179.78 349.46 180.01 349.83 180.13 C 350.31 180.17 351.27 180.25 351.75 180.29 C 353.60 180.35 355.46 180.38 357.32 180.41 C 356.98 180.72 356.30 181.34 355.97 181.65 C 353.51 181.61 351.06 181.64 348.62 181.53 C 348.27 181.45 347.57 181.31 347.22 181.24 C 347.51 180.84 348.08 180.06 348.36 179.67 Z" />
<path fill="#29292d" opacity="1.00" d=" M 276.23 192.88 C 278.22 194.47 280.12 197.05 282.99 196.55 C 285.10 196.29 286.59 194.66 287.78 193.04 C 287.66 194.40 287.58 195.76 287.53 197.13 C 287.51 197.66 287.46 198.72 287.44 199.25 C 286.19 199.68 284.94 200.09 283.74 200.61 C 282.73 201.23 281.91 202.07 281.27 203.12 C 279.63 201.15 277.59 199.57 275.60 197.98 C 275.62 201.09 275.71 204.20 275.86 207.31 L 275.37 207.36 C 275.51 204.60 274.89 201.93 273.05 199.82 C 272.98 199.17 272.84 197.89 272.77 197.24 C 273.57 197.27 275.17 197.32 275.98 197.34 C 276.06 195.85 276.15 194.37 276.23 192.88 Z" />
</g>
<g id="#89c7d2ff">
<path fill="#89c7d2" opacity="1.00" d=" M 369.45 170.89 C 372.10 169.80 374.97 170.08 377.43 171.52 C 376.08 171.50 374.73 171.51 373.39 171.57 C 375.12 173.42 377.80 173.08 380.11 173.21 C 379.59 173.32 378.55 173.53 378.03 173.64 C 375.95 174.10 373.86 174.55 371.76 174.95 C 371.85 174.43 372.02 173.37 372.11 172.84 C 373.19 170.73 369.40 171.03 371.23 172.84 C 370.61 172.83 369.36 172.81 368.74 172.80 C 368.92 172.32 369.28 171.37 369.45 170.89 Z" />
</g>
<g id="#bbb7b5ff">
<path fill="#bbb7b5" opacity="1.00" d=" M 271.15 173.87 C 271.96 172.91 272.83 171.99 273.69 171.07 C 273.50 173.15 273.34 175.22 273.19 177.30 C 273.72 177.47 274.77 177.82 275.30 177.99 C 276.93 178.53 278.55 179.12 280.20 179.64 C 278.61 179.55 277.03 179.49 275.45 179.45 C 275.45 180.43 275.45 182.39 275.45 183.37 C 276.09 183.56 277.36 183.94 277.99 184.13 C 277.99 184.46 277.99 185.13 277.98 185.46 C 277.90 185.97 277.73 186.99 277.64 187.49 C 276.63 187.93 275.62 188.35 274.61 188.76 C 274.57 191.10 274.57 193.44 274.42 195.78 L 273.42 195.98 C 273.34 193.74 273.26 191.48 272.54 189.35 C 270.74 184.39 271.47 179.03 271.15 173.87 Z" />
</g>
<g id="#45656eff">
<path fill="#45656e" opacity="1.00" d=" M 330.13 171.27 C 333.43 171.48 328.54 174.25 330.13 171.27 Z" />
</g>
<g id="#4da593ff">
<path fill="#4da593" opacity="1.00" d=" M 371.23 172.84 C 369.40 171.03 373.19 170.73 372.11 172.84 L 371.23 172.84 Z" />
</g>
<g id="#c4c1c0ff">
<path fill="#c4c1c0" opacity="1.00" d=" M 291.07 172.54 C 292.11 174.22 293.35 175.99 292.90 178.10 C 292.36 184.19 290.77 190.14 290.20 196.24 L 288.98 195.78 C 288.69 193.40 288.56 191.01 288.45 188.62 C 285.52 186.09 281.73 185.52 277.98 185.46 C 277.99 185.13 277.99 184.46 277.99 184.13 C 280.00 184.06 282.00 183.84 284.01 183.80 C 285.29 183.86 286.58 183.92 287.87 183.98 C 289.56 182.22 291.32 180.36 292.12 178.01 C 291.95 176.15 291.49 174.35 291.07 172.54 Z" />
</g>
<g id="#8ad1e8ff">
<path fill="#8ad1e8" opacity="1.00" d=" M 345.15 172.47 L 346.17 171.85 C 346.62 172.34 347.53 173.31 347.98 173.80 C 347.15 176.03 346.13 178.19 345.05 180.31 C 345.59 180.54 346.68 181.01 347.22 181.24 C 347.57 181.31 348.27 181.45 348.62 181.53 C 349.45 183.31 350.32 185.08 351.06 186.91 L 350.99 189.10 C 350.09 188.32 349.22 187.54 348.35 186.73 C 345.95 183.85 341.69 182.41 341.25 178.22 C 342.38 177.42 343.52 176.62 344.64 175.81 C 344.77 174.98 345.02 173.31 345.15 172.47 Z" />
</g>
<g id="#c7d6ebff">
<path fill="#c7d6eb" opacity="1.00" d=" M 347.98 173.80 C 348.14 173.39 348.46 172.56 348.62 172.15 C 349.77 172.61 350.89 173.14 352.01 173.68 C 351.56 175.86 351.62 178.08 351.75 180.29 C 351.27 180.25 350.31 180.17 349.83 180.13 C 349.46 180.01 348.73 179.78 348.36 179.67 C 348.08 180.06 347.51 180.84 347.22 181.24 C 346.68 181.01 345.59 180.54 345.05 180.31 C 346.13 178.19 347.15 176.03 347.98 173.80 Z" />
</g>
<g id="#cdcbe2ff">
<path fill="#cdcbe2" opacity="1.00" d=" M 368.74 172.80 C 369.36 172.81 370.61 172.83 371.23 172.84 L 372.11 172.84 C 372.02 173.37 371.85 174.43 371.76 174.95 C 371.58 175.54 371.21 176.73 371.02 177.32 C 371.75 180.97 372.24 184.67 372.39 188.40 C 371.68 188.40 370.27 188.40 369.56 188.39 C 368.92 186.81 368.83 184.90 367.68 183.58 C 366.47 183.06 365.19 182.73 363.93 182.38 C 364.49 181.98 365.62 181.17 366.19 180.77 L 365.88 180.17 C 365.19 178.86 364.50 177.57 363.83 176.27 C 365.18 176.38 366.54 176.51 367.90 176.64 C 368.19 175.36 368.47 174.08 368.74 172.80 Z" />
</g>
<g id="#f6f8f4ff">
<path fill="#f6f8f4" opacity="1.00" d=" M 269.93 196.62 C 267.03 189.41 266.50 180.48 271.15 173.87 C 271.47 179.03 270.74 184.39 272.54 189.35 C 273.26 191.48 273.34 193.74 273.42 195.98 C 272.55 196.14 270.80 196.46 269.93 196.62 Z" />
</g>
<g id="#c5c1bfff">
<path fill="#c5c1bf" opacity="1.00" d=" M 275.65 175.01 C 279.74 174.33 283.86 173.79 288.00 173.43 C 288.17 175.31 288.34 177.20 288.50 179.09 C 287.02 179.36 285.56 179.67 284.08 179.89 L 282.82 180.03 C 282.16 179.94 280.85 179.74 280.20 179.64 C 278.55 179.12 276.93 178.53 275.30 177.99 C 275.39 177.24 275.56 175.75 275.65 175.01 Z" />
</g>
<g id="#8ad1e7ff">
<path fill="#8ad1e7" opacity="1.00" d=" M 371.76 174.95 C 373.86 174.55 375.95 174.10 378.03 173.64 C 378.25 174.60 378.48 175.57 378.71 176.53 C 376.88 176.46 375.05 176.40 373.23 176.36 C 373.83 179.90 374.53 183.42 375.35 186.92 C 377.91 186.55 380.50 186.53 383.07 186.91 C 381.35 189.14 379.89 191.59 379.32 194.39 C 381.81 196.31 384.07 198.54 385.75 201.22 L 386.15 201.80 C 385.48 202.44 384.82 203.08 384.16 203.72 C 383.11 202.66 382.07 201.60 380.99 200.57 C 381.53 200.63 382.60 200.73 383.14 200.78 C 381.49 198.54 379.18 197.01 376.41 196.56 C 377.00 194.07 377.56 191.59 378.12 189.10 L 377.71 189.09 C 375.94 188.82 374.18 188.50 372.39 188.40 C 372.24 184.67 371.75 180.97 371.02 177.32 C 371.21 176.73 371.58 175.54 371.76 174.95 Z" />
</g>
<g id="#70cde6ff">
<path fill="#70cde6" opacity="1.00" d=" M 312.40 177.03 C 312.69 177.32 313.25 177.92 313.53 178.21 C 313.24 180.37 312.46 182.59 312.98 184.76 C 315.09 186.69 318.16 187.66 319.63 190.22 C 320.45 194.09 319.86 198.11 320.09 202.04 C 318.86 201.96 317.64 201.86 316.42 201.76 C 316.12 200.65 315.82 199.55 315.52 198.45 C 312.84 198.34 310.17 198.17 307.51 197.83 C 310.13 196.31 313.15 195.93 316.09 195.44 C 312.48 194.09 308.64 194.44 304.95 195.17 C 305.27 193.11 305.02 190.84 306.00 188.95 C 307.83 187.35 310.12 186.41 311.99 184.86 C 312.45 182.28 312.35 179.64 312.40 177.03 M 307.48 192.46 C 309.83 192.71 312.18 192.37 314.53 192.23 C 315.22 188.91 311.96 186.53 308.92 187.61 C 307.83 188.90 305.58 190.89 307.48 192.46 Z" />
</g>
<g id="#ccd4e9ff">
<path fill="#ccd4e9" opacity="1.00" d=" M 357.32 180.41 C 358.21 179.60 359.11 178.78 360.01 177.97 C 359.49 179.58 358.96 181.19 358.42 182.80 C 359.38 182.69 360.35 182.58 361.32 182.48 C 359.97 184.17 358.37 185.64 356.71 187.02 C 356.04 186.74 355.37 186.49 354.69 186.27 L 356.34 188.28 C 354.97 188.79 353.61 189.30 352.25 189.82 C 351.85 188.85 351.45 187.88 351.06 186.91 C 350.32 185.08 349.45 183.31 348.62 181.53 C 351.06 181.64 353.51 181.61 355.97 181.65 C 356.30 181.34 356.98 180.72 357.32 180.41 Z" />
</g>
<g id="#646263ff">
<path fill="#646263" opacity="1.00" d=" M 275.45 179.45 C 277.03 179.49 278.61 179.55 280.20 179.64 C 280.85 179.74 282.16 179.94 282.82 180.03 L 284.08 179.89 C 284.06 181.19 284.03 182.49 284.01 183.80 C 282.00 183.84 280.00 184.06 277.99 184.13 C 277.36 183.94 276.09 183.56 275.45 183.37 C 275.45 182.39 275.45 180.43 275.45 179.45 Z" />
</g>
<g id="#5a595aff">
<path fill="#5a595a" opacity="1.00" d=" M 284.08 179.89 C 285.37 179.89 286.66 179.88 287.95 179.88 C 287.92 181.24 287.89 182.61 287.87 183.98 C 286.58 183.92 285.29 183.86 284.01 183.80 C 284.03 182.49 284.06 181.19 284.08 179.89 Z" />
<path fill="#5a595a" opacity="1.00" d=" M 349.62 198.72 C 350.65 196.51 352.93 196.14 355.15 196.12 C 354.79 196.58 354.07 197.49 353.72 197.95 C 353.38 197.72 352.69 197.27 352.35 197.04 C 351.45 197.61 350.54 198.17 349.62 198.72 Z" />
<path fill="#5a595a" opacity="1.00" d=" M 338.67 211.31 L 338.92 210.48 C 339.15 211.18 339.61 212.56 339.85 213.26 C 340.27 212.83 341.13 211.96 341.56 211.53 C 342.39 211.61 343.23 211.69 344.07 211.77 L 345.86 211.95 C 345.40 212.14 344.47 212.51 344.00 212.70 C 343.64 212.63 342.91 212.49 342.55 212.42 C 341.17 213.03 339.71 213.38 338.25 213.66 C 338.35 213.07 338.56 211.90 338.67 211.31 Z" />
</g>
<g id="#65b2aaff">
<path fill="#65b2aa" opacity="1.00" d=" M 363.93 182.38 C 360.31 181.94 363.87 178.44 365.88 180.17 L 366.19 180.77 C 365.62 181.17 364.49 181.98 363.93 182.38 Z" />
</g>
<g id="#a5dbebff">
<path fill="#a5dbeb" opacity="1.00" d=" M 327.66 181.05 C 328.18 181.82 328.71 182.59 329.25 183.35 C 329.91 183.49 330.58 183.63 331.25 183.78 C 331.68 184.90 332.11 186.03 332.55 187.16 C 333.06 185.38 333.59 183.61 334.06 181.82 C 334.13 183.12 334.24 184.42 334.36 185.72 C 337.80 185.76 341.28 185.53 344.69 186.14 C 345.39 187.24 345.99 188.41 346.49 189.63 C 346.11 189.67 345.34 189.77 344.96 189.81 C 345.26 190.27 345.87 191.19 346.18 191.65 C 346.04 192.55 345.78 194.37 345.65 195.27 C 344.98 193.19 344.30 191.11 343.68 189.01 C 337.55 188.40 331.37 188.29 325.22 188.16 C 324.95 188.41 324.43 188.92 324.17 189.17 C 323.31 195.57 324.11 202.07 323.75 208.51 C 322.94 208.56 322.14 208.61 321.34 208.67 C 322.15 206.87 322.82 205.00 323.33 203.09 C 321.28 203.03 319.22 203.01 317.17 203.00 C 317.04 205.08 316.90 207.15 316.86 209.23 C 316.34 208.01 315.88 206.76 315.48 205.49 C 315.41 204.98 315.29 203.94 315.22 203.42 C 312.60 203.35 309.97 203.34 307.35 203.37 C 307.41 205.39 307.47 207.41 307.49 209.43 C 308.21 209.65 309.64 210.08 310.36 210.30 C 308.95 210.83 307.57 211.41 306.17 211.96 C 305.48 211.57 304.79 211.19 304.09 210.83 C 304.92 208.60 306.23 206.18 305.36 203.76 C 304.22 202.57 302.27 203.04 300.80 202.60 C 301.11 205.12 301.39 207.66 301.97 210.14 C 301.24 210.07 299.79 209.93 299.06 209.87 C 299.08 209.29 299.11 208.13 299.13 207.56 C 298.89 205.39 299.99 202.51 298.07 200.91 C 297.31 200.20 296.53 199.51 295.74 198.85 C 297.35 197.64 298.97 196.42 300.58 195.20 C 301.28 197.71 301.90 200.40 304.09 202.08 C 304.48 199.79 304.75 197.48 304.95 195.17 C 308.64 194.44 312.48 194.09 316.09 195.44 C 313.15 195.93 310.13 196.31 307.51 197.83 C 310.17 198.17 312.84 198.34 315.52 198.45 C 315.82 199.55 316.12 200.65 316.42 201.76 C 317.64 201.86 318.86 201.96 320.09 202.04 C 323.45 199.34 321.34 194.14 321.69 190.40 C 321.82 188.95 321.98 187.50 322.16 186.06 C 324.05 185.90 325.95 185.74 327.85 185.59 C 327.79 184.08 327.75 182.56 327.66 181.05 M 309.25 199.16 C 307.96 199.96 309.03 202.59 310.48 201.43 C 311.79 200.63 310.70 197.98 309.25 199.16 Z" />
</g>
<g id="#888686ff">
<path fill="#888686" opacity="1.00" d=" M 277.98 185.46 C 281.73 185.52 285.52 186.09 288.45 188.62 C 288.56 191.01 288.69 193.40 288.98 195.78 L 290.20 196.24 C 290.85 196.44 292.14 196.83 292.78 197.03 C 293.79 197.60 294.78 198.19 295.74 198.85 C 296.53 199.51 297.31 200.20 298.07 200.91 C 294.46 199.90 291.26 197.74 287.53 197.13 C 287.58 195.76 287.66 194.40 287.78 193.04 L 287.93 191.96 C 286.88 192.56 285.84 193.16 284.80 193.77 C 284.38 191.84 283.96 189.90 283.56 187.97 C 280.90 187.70 278.46 188.65 276.37 190.24 C 276.34 190.90 276.27 192.22 276.23 192.88 C 276.15 194.37 276.06 195.85 275.98 197.34 C 275.17 197.32 273.57 197.27 272.77 197.24 L 272.21 197.47 C 270.01 198.63 267.58 199.21 265.12 199.42 L 265.33 198.62 C 266.82 197.88 268.35 197.19 269.93 196.62 C 270.80 196.46 272.55 196.14 273.42 195.98 L 274.42 195.78 C 274.57 193.44 274.57 191.10 274.61 188.76 C 275.62 188.35 276.63 187.93 277.64 187.49 C 277.73 186.99 277.90 185.97 277.98 185.46 Z" />
</g>
<g id="#44405cff">
<path fill="#44405c" opacity="1.00" d=" M 354.69 186.27 C 355.37 186.49 356.04 186.74 356.71 187.02 C 356.74 187.61 356.80 188.78 356.84 189.36 C 355.40 191.00 353.96 193.19 351.45 192.63 C 351.57 191.46 351.70 190.30 351.82 189.14 C 349.93 189.97 348.07 190.83 346.18 191.65 C 345.87 191.19 345.26 190.27 344.96 189.81 C 345.34 189.77 346.11 189.67 346.49 189.63 C 347.39 189.53 349.19 189.34 350.09 189.24 C 349.66 188.61 348.79 187.36 348.35 186.73 C 349.22 187.54 350.09 188.32 350.99 189.10 L 351.06 186.91 C 351.45 187.88 351.85 188.85 352.25 189.82 C 353.61 189.30 354.97 188.79 356.34 188.28 L 354.69 186.27 Z" />
<path fill="#44405c" opacity="1.00" d=" M 350.45 208.39 C 349.45 206.87 349.92 205.16 350.30 203.54 C 352.52 203.96 354.74 204.40 356.96 204.80 C 356.57 205.52 356.18 206.24 355.77 206.95 C 353.97 206.64 352.29 205.89 350.51 205.53 C 350.81 206.12 351.42 207.29 351.72 207.88 C 351.40 208.01 350.77 208.26 350.45 208.39 Z" />
<path fill="#44405c" opacity="1.00" d=" M 254.57 264.43 C 255.68 264.76 256.80 265.08 257.92 265.39 C 257.95 275.61 257.95 285.82 257.92 296.04 C 257.90 298.50 258.04 301.29 260.04 303.05 C 261.76 305.05 264.59 304.98 267.00 305.04 C 275.38 304.99 283.78 304.89 292.17 305.05 C 292.30 305.52 292.57 306.45 292.70 306.92 C 292.87 307.52 293.20 308.72 293.36 309.32 C 284.91 309.37 276.45 309.24 268.00 309.41 C 264.30 309.43 260.03 309.73 257.28 306.74 C 253.23 303.43 253.72 297.72 253.66 293.03 C 254.03 283.50 252.91 273.88 254.57 264.43 Z" />
</g>
<g id="#616061ff">
<path fill="#616061" opacity="1.00" d=" M 276.37 190.24 C 278.46 188.65 280.90 187.70 283.56 187.97 C 283.96 189.90 284.38 191.84 284.80 193.77 C 285.84 193.16 286.88 192.56 287.93 191.96 L 287.78 193.04 C 286.59 194.66 285.10 196.29 282.99 196.55 C 280.12 197.05 278.22 194.47 276.23 192.88 C 276.27 192.22 276.34 190.90 276.37 190.24 Z" />
</g>
<g id="#aedfeeff">
<path fill="#aedfee" opacity="1.00" d=" M 307.48 192.46 C 305.58 190.89 307.83 188.90 308.92 187.61 C 311.96 186.53 315.22 188.91 314.53 192.23 C 312.18 192.37 309.83 192.71 307.48 192.46 Z" />
</g>
<g id="#b3e1f3ff">
<path fill="#b3e1f3" opacity="1.00" d=" M 356.84 189.36 C 357.85 188.96 358.88 188.57 359.91 188.20 C 359.17 190.15 358.40 192.08 357.62 194.02 C 359.33 194.24 361.05 194.44 362.77 194.63 C 362.76 195.20 362.75 196.34 362.75 196.90 C 362.54 196.85 362.13 196.75 361.92 196.71 C 361.26 196.89 360.61 197.09 359.96 197.31 C 359.51 197.18 358.61 196.93 358.16 196.80 C 357.57 196.62 356.38 196.24 355.79 196.05 L 355.15 196.12 C 352.93 196.14 350.65 196.51 349.62 198.72 C 350.54 198.17 351.45 197.61 352.35 197.04 C 352.69 197.27 353.38 197.72 353.72 197.95 C 354.65 198.81 355.54 199.73 356.43 200.65 C 352.82 200.87 349.21 200.94 345.60 200.99 C 345.71 199.97 345.86 198.96 346.04 197.95 C 346.01 197.52 345.95 196.65 345.93 196.22 L 345.65 195.27 C 345.78 194.37 346.04 192.55 346.18 191.65 C 348.07 190.83 349.93 189.97 351.82 189.14 C 351.70 190.30 351.57 191.46 351.45 192.63 C 353.96 193.19 355.40 191.00 356.84 189.36 M 348.18 196.34 C 346.66 199.35 351.49 196.47 348.18 196.34 Z" />
</g>
<g id="#d1cfe5ff">
<path fill="#d1cfe5" opacity="1.00" d=" M 377.71 189.09 L 378.12 189.10 C 377.56 191.59 377.00 194.07 376.41 196.56 C 379.18 197.01 381.49 198.54 383.14 200.78 C 382.60 200.73 381.53 200.63 380.99 200.57 C 377.25 199.50 373.85 201.64 371.17 204.02 C 369.59 202.89 367.40 204.39 367.89 206.27 C 364.21 208.63 360.07 210.19 355.77 210.97 C 355.38 211.06 354.59 211.25 354.20 211.34 L 353.43 211.57 C 352.07 211.53 350.71 211.50 349.35 211.46 C 348.63 211.50 347.91 211.53 347.20 211.56 C 347.13 211.58 346.99 211.61 346.93 211.63 L 345.86 211.95 L 344.07 211.77 C 346.17 210.60 348.25 209.38 350.45 208.39 C 350.77 208.26 351.40 208.01 351.72 207.88 C 351.42 207.29 350.81 206.12 350.51 205.53 C 352.29 205.89 353.97 206.64 355.77 206.95 C 356.18 206.24 356.57 205.52 356.96 204.80 C 357.65 203.22 358.25 201.60 358.84 199.99 C 359.79 201.26 360.73 202.54 361.65 203.85 C 363.49 202.16 365.08 200.23 366.53 198.20 C 367.14 197.91 368.38 197.33 368.99 197.04 C 368.52 204.62 359.95 207.16 354.05 209.62 C 358.18 208.18 362.23 206.49 366.44 205.28 C 366.48 204.74 366.54 203.68 366.57 203.15 C 368.44 200.71 370.59 198.47 373.45 197.24 C 373.43 196.93 373.39 196.31 373.37 196.00 C 373.57 193.78 374.26 191.66 375.05 189.60 C 375.71 189.47 377.05 189.22 377.71 189.09 Z" />
</g>
<g id="#9dd8eaff">
<path fill="#9dd8ea" opacity="1.00" d=" M 325.96 190.07 C 331.33 190.03 336.70 190.24 342.07 190.31 C 342.02 190.95 341.91 192.24 341.85 192.88 C 336.57 193.49 331.22 192.75 325.94 193.55 C 325.94 192.39 325.95 191.23 325.96 190.07 Z" />
</g>
<g id="#d4d0e6ff">
<path fill="#d4d0e6" opacity="1.00" d=" M 360.69 190.76 C 363.03 190.17 365.20 190.86 366.87 192.59 C 366.93 191.60 367.00 190.62 367.07 189.64 C 368.78 189.71 370.49 189.75 372.21 189.75 C 371.66 192.06 371.12 194.38 370.57 196.70 C 369.19 196.65 367.82 196.50 366.45 196.42 C 365.12 193.97 362.88 192.35 360.69 190.76 Z" />
</g>
<g id="#97d2e6ff">
<path fill="#97d2e6" opacity="1.00" d=" M 372.21 189.75 C 372.92 189.71 374.34 189.63 375.05 189.60 C 374.26 191.66 373.57 193.78 373.37 196.00 C 372.44 196.27 371.51 196.50 370.57 196.70 C 371.12 194.38 371.66 192.06 372.21 189.75 Z" />
</g>
<g id="#12141bff">
<path fill="#12141b" opacity="1.00" d=" M 331.19 196.66 C 333.62 196.63 336.06 196.47 338.50 196.52 C 338.52 197.14 338.56 198.38 338.58 199.00 C 337.65 198.46 336.80 197.82 335.99 197.12 C 334.40 197.22 332.82 197.34 331.24 197.48 C 331.23 197.27 331.20 196.86 331.19 196.66 Z" />
<path fill="#12141b" opacity="1.00" d=" M 287.44 199.25 C 287.46 198.72 287.51 197.66 287.53 197.13 C 291.26 197.74 294.46 199.90 298.07 200.91 C 299.99 202.51 298.89 205.39 299.13 207.56 C 294.89 207.42 290.64 207.52 286.41 207.08 C 286.55 204.72 286.68 202.36 286.81 200.00 C 286.04 200.15 284.50 200.46 283.74 200.61 C 284.94 200.09 286.19 199.68 287.44 199.25 Z" />
</g>
<g id="#385f65ff">
<path fill="#385f65" opacity="1.00" d=" M 339.96 196.34 C 343.31 196.44 338.49 199.36 339.96 196.34 Z" />
</g>
<g id="#5b8d98ff">
<path fill="#5b8d98" opacity="1.00" d=" M 343.25 196.14 C 344.84 196.23 343.92 198.66 342.75 198.74 C 341.17 198.63 342.10 196.24 343.25 196.14 Z" />
</g>
<g id="#60838fff">
<path fill="#60838f" opacity="1.00" d=" M 346.04 197.95 C 344.49 197.44 344.46 196.86 345.93 196.22 C 345.95 196.65 346.01 197.52 346.04 197.95 Z" />
</g>
<g id="#73858fff">
<path fill="#73858f" opacity="1.00" d=" M 348.18 196.34 C 351.49 196.47 346.66 199.35 348.18 196.34 Z" />
</g>
<g id="#9bd8eaff">
<path fill="#9bd8ea" opacity="1.00" d=" M 355.15 196.12 L 355.79 196.05 C 354.98 197.88 357.43 198.17 358.16 196.80 C 358.61 196.93 359.51 197.18 359.96 197.31 C 360.61 197.09 361.26 196.89 361.92 196.71 C 362.13 196.75 362.54 196.85 362.75 196.90 C 364.00 197.34 365.26 197.77 366.53 198.20 C 365.08 200.23 363.49 202.16 361.65 203.85 C 360.73 202.54 359.79 201.26 358.84 199.99 C 358.25 201.60 357.65 203.22 356.96 204.80 C 354.74 204.40 352.52 203.96 350.30 203.54 C 349.92 205.16 349.45 206.87 350.45 208.39 C 348.25 209.38 346.17 210.60 344.07 211.77 C 343.23 211.69 342.39 211.61 341.56 211.53 C 341.13 211.96 340.27 212.83 339.85 213.26 C 339.61 212.56 339.15 211.18 338.92 210.48 C 339.80 208.68 340.84 206.97 341.95 205.30 C 344.35 206.53 348.57 206.84 349.31 203.50 C 348.04 203.01 346.78 202.51 345.53 201.99 L 345.60 200.99 C 349.21 200.94 352.82 200.87 356.43 200.65 C 355.54 199.73 354.65 198.81 353.72 197.95 C 354.07 197.49 354.79 196.58 355.15 196.12 Z" />
</g>
<g id="#5a7279ff">
<path fill="#5a7279" opacity="1.00" d=" M 355.79 196.05 C 356.38 196.24 357.57 196.62 358.16 196.80 C 357.43 198.17 354.98 197.88 355.79 196.05 Z" />
</g>
<g id="#101016ff">
<path fill="#101016" opacity="1.00" d=" M 272.21 197.47 L 272.77 197.24 C 272.84 197.89 272.98 199.17 273.05 199.82 C 274.89 201.93 275.51 204.60 275.37 207.36 C 271.97 207.60 268.56 207.43 265.16 207.28 C 265.20 204.66 265.24 202.04 265.12 199.42 C 267.58 199.21 270.01 198.63 272.21 197.47 Z" />
</g>
<g id="#86a5b3ff">
<path fill="#86a5b3" opacity="1.00" d=" M 264.59 208.73 C 264.50 205.62 264.10 202.42 265.12 199.42 C 265.24 202.04 265.20 204.66 265.16 207.28 C 268.56 207.43 271.97 207.60 275.37 207.36 L 275.86 207.31 C 277.19 207.11 278.51 206.89 279.84 206.66 C 282.03 206.70 284.22 206.88 286.41 207.08 C 290.64 207.52 294.89 207.42 299.13 207.56 C 299.11 208.13 299.08 209.29 299.06 209.87 C 296.31 209.79 293.56 209.88 290.82 209.77 C 285.67 209.09 280.13 206.08 275.28 209.52 C 271.70 209.66 268.10 209.45 264.59 208.73 Z" />
</g>
<g id="#8f9195ff">
<path fill="#8f9195" opacity="1.00" d=" M 275.60 197.98 C 277.59 199.57 279.63 201.15 281.27 203.12 C 281.56 203.64 282.13 204.70 282.42 205.22 C 281.57 205.71 280.71 206.19 279.84 206.66 C 278.51 206.89 277.19 207.11 275.86 207.31 C 275.71 204.20 275.62 201.09 275.60 197.98 Z" />
</g>
<g id="#d1eaf2ff">
<path fill="#d1eaf2" opacity="1.00" d=" M 309.25 199.16 C 310.70 197.98 311.79 200.63 310.48 201.43 C 309.03 202.59 307.96 199.96 309.25 199.16 Z" />
</g>
<g id="#9bd7e8ff">
<path fill="#9bd7e8" opacity="1.00" d=" M 371.17 204.02 C 373.85 201.64 377.25 199.50 380.99 200.57 C 382.07 201.60 383.11 202.66 384.16 203.72 C 384.82 203.08 385.48 202.44 386.15 201.80 C 385.69 207.78 386.14 213.77 385.97 219.76 C 385.29 219.91 383.93 220.20 383.25 220.35 C 382.39 220.36 380.66 220.37 379.80 220.37 C 380.02 216.97 380.39 213.58 380.99 210.23 C 380.00 210.74 379.02 211.25 378.04 211.76 C 375.57 210.12 373.05 208.55 370.53 207.00 C 370.46 207.86 370.40 208.73 370.35 209.60 C 369.90 210.00 369.02 210.82 368.57 211.22 C 366.84 211.22 365.12 211.29 363.40 211.36 C 363.31 211.89 363.12 212.95 363.02 213.48 C 364.34 213.39 365.66 213.31 366.99 213.27 C 366.91 214.18 366.83 215.09 366.74 216.01 C 365.18 216.77 363.64 217.61 361.99 218.16 C 358.55 217.82 355.49 216.02 352.32 214.80 C 351.65 214.49 350.32 213.87 349.65 213.56 C 349.80 213.26 350.10 212.65 350.25 212.34 C 351.03 212.37 351.81 212.45 352.59 212.56 C 352.80 212.31 353.22 211.82 353.43 211.57 L 354.20 211.34 C 353.70 212.54 354.02 213.38 355.18 213.85 C 356.39 213.22 356.59 212.26 355.77 210.97 C 360.07 210.19 364.21 208.63 367.89 206.27 C 369.40 206.49 370.95 205.62 371.17 204.02 Z" />
</g>
<g id="#abacadff">
<path fill="#abacad" opacity="1.00" d=" M 281.27 203.12 C 281.91 202.07 282.73 201.23 283.74 200.61 C 284.50 200.46 286.04 200.15 286.81 200.00 C 286.68 202.36 286.55 204.72 286.41 207.08 C 284.22 206.88 282.03 206.70 279.84 206.66 C 280.71 206.19 281.57 205.71 282.42 205.22 C 282.13 204.70 281.56 203.64 281.27 203.12 Z" />
</g>
<g id="#5c8790ff">
<path fill="#5c8790" opacity="1.00" d=" M 342.66 204.37 C 343.60 203.56 344.57 202.78 345.53 201.99 C 346.78 202.51 348.04 203.01 349.31 203.50 C 348.57 206.84 344.35 206.53 341.95 205.30 L 342.30 204.78 C 342.39 204.68 342.57 204.47 342.66 204.37 Z" />
</g>
<g id="#7ed0e6ff">
<path fill="#7ed0e6" opacity="1.00" d=" M 300.80 202.60 C 302.27 203.04 304.22 202.57 305.36 203.76 C 306.23 206.18 304.92 208.60 304.09 210.83 L 303.46 210.62 L 301.97 210.14 C 301.39 207.66 301.11 205.12 300.80 202.60 Z" />
</g>
<g id="#70cde7ff">
<path fill="#70cde7" opacity="1.00" d=" M 307.35 203.37 C 309.97 203.34 312.60 203.35 315.22 203.42 C 315.29 203.94 315.41 204.98 315.48 205.49 C 315.07 206.95 314.66 208.40 314.25 209.85 C 312.95 210.00 311.65 210.15 310.36 210.30 C 309.64 210.08 308.21 209.65 307.49 209.43 C 307.47 207.41 307.41 205.39 307.35 203.37 Z" />
</g>
<g id="#384349ff">
<path fill="#384349" opacity="1.00" d=" M 342.46 204.54 L 342.66 204.37 C 342.57 204.47 342.39 204.68 342.30 204.78 L 342.46 204.54 Z" />
</g>
<g id="#77b5b2ff">
<path fill="#77b5b2" opacity="1.00" d=" M 367.89 206.27 C 367.40 204.39 369.59 202.89 371.17 204.02 C 370.95 205.62 369.40 206.49 367.89 206.27 Z" />
</g>
<g id="#98d5efff">
<path fill="#98d5ef" opacity="1.00" d=" M 314.25 209.85 C 314.66 208.40 315.07 206.95 315.48 205.49 C 315.88 206.76 316.34 208.01 316.86 209.23 C 320.05 210.54 323.90 209.84 327.36 210.32 C 328.18 209.63 329.00 208.95 329.83 208.27 C 329.86 209.25 329.88 210.23 329.90 211.22 C 329.00 213.46 332.49 212.90 330.79 211.13 L 332.05 211.00 C 330.98 213.27 334.01 213.18 333.93 211.08 C 334.33 210.15 334.74 209.22 335.17 208.30 C 336.33 209.30 337.49 210.30 338.67 211.31 C 338.56 211.90 338.35 213.07 338.25 213.66 C 339.71 213.38 341.17 213.03 342.55 212.42 C 342.91 212.49 343.64 212.63 344.00 212.70 C 344.47 212.51 345.40 212.14 345.86 211.95 L 346.93 211.63 C 346.72 212.17 346.32 213.24 346.12 213.78 C 342.53 214.48 339.15 215.91 335.94 217.65 C 338.26 217.57 340.63 217.49 342.88 218.21 C 342.89 220.89 338.97 220.46 337.18 221.54 C 337.29 222.83 337.42 224.13 337.55 225.43 C 335.07 225.40 332.44 225.69 331.19 228.20 C 326.97 228.34 322.74 228.24 318.52 228.24 C 317.62 226.03 315.93 225.02 313.73 226.12 C 312.37 225.93 311.03 225.67 309.69 225.38 C 309.22 223.45 308.74 221.52 308.31 219.58 C 311.17 217.93 312.16 214.84 312.65 211.76 C 310.42 212.60 308.28 213.65 306.22 214.85 C 306.61 215.65 307.01 216.45 307.41 217.26 C 307.04 218.17 306.67 219.08 306.31 220.00 C 306.85 221.09 307.40 222.19 307.95 223.29 C 306.43 223.57 304.91 223.88 303.40 224.20 C 302.05 223.86 300.70 223.53 299.34 223.21 C 301.47 219.28 300.33 214.56 297.32 211.44 C 299.41 211.71 301.54 211.57 303.46 210.62 L 304.09 210.83 C 304.79 211.19 305.48 211.57 306.17 211.96 C 307.57 211.41 308.95 210.83 310.36 210.30 C 311.65 210.15 312.95 210.00 314.25 209.85 M 335.08 211.35 C 334.55 212.96 335.12 213.51 336.77 212.99 C 337.27 211.38 336.71 210.83 335.08 211.35 Z" />
</g>
<g id="#d0cce3ff">
<path fill="#d0cce3" opacity="1.00" d=" M 370.53 207.00 C 373.05 208.55 375.57 210.12 378.04 211.76 C 379.02 211.25 380.00 210.74 380.99 210.23 C 380.39 213.58 380.02 216.97 379.80 220.37 C 380.66 220.37 382.39 220.36 383.25 220.35 C 379.86 221.10 376.45 221.73 373.06 222.45 C 373.36 222.01 373.97 221.15 374.27 220.71 C 375.10 220.56 375.93 220.41 376.77 220.26 C 377.03 217.96 376.47 215.73 375.47 213.67 C 375.45 212.94 375.43 212.21 375.43 211.48 C 373.14 211.36 370.86 211.25 368.57 211.22 C 369.02 210.82 369.90 210.00 370.35 209.60 C 370.40 208.73 370.46 207.86 370.53 207.00 Z" />
</g>
<g id="#d3cee4ff">
<path fill="#d3cee4" opacity="1.00" d=" M 264.59 208.73 C 268.10 209.45 271.70 209.66 275.28 209.52 C 277.93 210.22 280.66 210.48 283.38 210.78 C 284.14 214.95 283.14 219.34 284.57 223.40 C 286.01 225.55 288.50 226.70 290.49 228.28 C 280.56 228.45 270.62 228.56 260.69 228.27 C 259.66 226.85 258.65 225.43 257.66 224.00 C 257.66 222.62 257.66 221.25 257.68 219.88 C 257.78 216.56 257.97 213.25 258.05 209.93 C 260.23 209.84 262.42 209.77 264.60 209.59 C 264.59 209.37 264.59 208.94 264.59 208.73 M 272.42 211.45 C 271.21 212.39 272.65 214.71 273.99 213.69 C 275.22 212.74 273.73 210.42 272.42 211.45 M 270.02 212.53 C 268.42 215.49 273.36 212.74 270.02 212.53 M 275.14 213.06 C 275.35 216.45 278.05 211.35 275.14 213.06 M 267.69 214.28 C 267.66 215.92 267.33 217.54 266.66 219.04 C 267.35 218.99 268.73 218.90 269.42 218.85 C 269.42 218.30 269.41 217.22 269.41 216.67 C 270.26 218.49 270.80 220.78 272.90 221.57 C 274.15 221.28 275.35 220.83 276.50 220.24 C 276.51 218.81 276.51 217.39 276.49 215.97 C 275.88 215.59 274.66 214.83 274.05 214.44 C 271.97 215.56 269.62 216.00 267.69 214.28 M 277.18 214.86 C 277.34 218.22 280.16 213.26 277.18 214.86 M 277.36 217.17 C 276.34 218.50 278.67 219.95 279.60 218.71 C 280.64 217.37 278.29 215.91 277.36 217.17 M 267.61 220.21 C 266.31 221.66 268.97 222.61 269.76 221.33 C 271.22 219.85 268.38 218.78 267.61 220.21 M 277.23 220.26 C 277.50 223.61 280.17 218.62 277.23 220.26 M 270.17 222.08 C 268.68 225.11 273.52 222.12 270.17 222.08 M 272.94 222.58 C 271.51 225.67 276.27 222.58 272.94 222.58 M 275.22 222.03 C 275.31 225.43 278.20 220.58 275.22 222.03 Z" />
</g>
<g id="#c3d2eaff">
<path fill="#c3d2ea" opacity="1.00" d=" M 275.28 209.52 C 280.13 206.08 285.67 209.09 290.82 209.77 C 291.11 212.08 290.96 214.40 290.57 216.69 C 291.45 216.26 292.33 215.84 293.21 215.43 C 294.19 218.83 293.61 222.25 291.27 224.96 C 295.68 225.88 300.08 226.85 304.40 228.14 C 299.76 228.42 295.12 228.39 290.49 228.28 C 288.50 226.70 286.01 225.55 284.57 223.40 C 283.14 219.34 284.14 214.95 283.38 210.78 C 280.66 210.48 277.93 210.22 275.28 209.52 Z" />
</g>
<g id="#afd9f1ff">
<path fill="#afd9f1" opacity="1.00" d=" M 290.82 209.77 C 293.56 209.88 296.31 209.79 299.06 209.87 C 299.79 209.93 301.24 210.07 301.97 210.14 L 303.46 210.62 C 301.54 211.57 299.41 211.71 297.32 211.44 C 300.33 214.56 301.47 219.28 299.34 223.21 C 300.70 223.53 302.05 223.86 303.40 224.20 C 304.91 223.88 306.43 223.57 307.95 223.29 C 307.40 222.19 306.85 221.09 306.31 220.00 C 306.67 219.08 307.04 218.17 307.41 217.26 C 307.01 216.45 306.61 215.65 306.22 214.85 C 308.28 213.65 310.42 212.60 312.65 211.76 C 312.16 214.84 311.17 217.93 308.31 219.58 C 308.74 221.52 309.22 223.45 309.69 225.38 C 311.03 225.67 312.37 225.93 313.73 226.12 C 315.93 225.02 317.62 226.03 318.52 228.24 C 313.81 228.37 309.10 228.47 304.40 228.14 C 300.08 226.85 295.68 225.88 291.27 224.96 C 293.61 222.25 294.19 218.83 293.21 215.43 C 292.33 215.84 291.45 216.26 290.57 216.69 C 290.96 214.40 291.11 212.08 290.82 209.77 Z" />
</g>
<g id="#627d8bff">
<path fill="#627d8b" opacity="1.00" d=" M 329.90 211.22 L 330.79 211.13 C 332.49 212.90 329.00 213.46 329.90 211.22 Z" />
</g>
<g id="#394d57ff">
<path fill="#394d57" opacity="1.00" d=" M 332.05 211.00 C 332.52 211.02 333.46 211.06 333.93 211.08 C 334.01 213.18 330.98 213.27 332.05 211.00 Z" />
</g>
<g id="#618593ff">
<path fill="#618593" opacity="1.00" d=" M 335.08 211.35 C 336.71 210.83 337.27 211.38 336.77 212.99 C 335.12 213.51 334.55 212.96 335.08 211.35 Z" />
</g>
<g id="#83a8b5ff">
<path fill="#83a8b5" opacity="1.00" d=" M 354.20 211.34 C 354.59 211.25 355.38 211.06 355.77 210.97 C 356.59 212.26 356.39 213.22 355.18 213.85 C 354.02 213.38 353.70 212.54 354.20 211.34 Z" />
</g>
<g id="#86bbbaff">
<path fill="#86bbba" opacity="1.00" d=" M 363.40 211.36 C 365.12 211.29 366.84 211.22 368.57 211.22 C 370.86 211.25 373.14 211.36 375.43 211.48 C 375.43 212.21 375.45 212.94 375.47 213.67 C 372.65 213.48 369.82 213.22 366.99 213.27 C 365.66 213.31 364.34 213.39 363.02 213.48 C 363.12 212.95 363.31 211.89 363.40 211.36 Z" />
</g>
<g id="#7b5e4aff">
<path fill="#7b5e4a" opacity="1.00" d=" M 270.02 212.53 C 273.36 212.74 268.42 215.49 270.02 212.53 Z" />
</g>
<g id="#7e6250ff">
<path fill="#7e6250" opacity="1.00" d=" M 275.14 213.06 C 278.05 211.35 275.35 216.45 275.14 213.06 Z" />
</g>
<g id="#b4e0f2ff">
<path fill="#b4e0f2" opacity="1.00" d=" M 366.99 213.27 C 369.82 213.22 372.65 213.48 375.47 213.67 C 376.47 215.73 377.03 217.96 376.77 220.26 C 375.93 220.41 375.10 220.56 374.27 220.71 C 373.97 221.15 373.36 222.01 373.06 222.45 C 368.91 223.50 365.28 225.78 362.03 228.50 C 351.75 228.20 341.46 228.58 331.19 228.20 C 332.44 225.69 335.07 225.40 337.55 225.43 C 337.42 224.13 337.29 222.83 337.18 221.54 C 338.97 220.46 342.89 220.89 342.88 218.21 C 340.63 217.49 338.26 217.57 335.94 217.65 C 339.15 215.91 342.53 214.48 346.12 213.78 C 347.29 213.70 348.47 213.63 349.65 213.56 C 350.32 213.87 351.65 214.49 352.32 214.80 C 349.80 214.95 347.31 215.22 344.82 215.53 C 346.44 217.38 348.20 219.09 349.98 220.80 C 349.40 219.07 348.80 217.35 348.20 215.64 C 350.38 216.67 353.00 217.45 354.27 219.69 C 354.72 220.99 354.63 222.40 354.75 223.76 C 355.68 223.68 356.62 223.61 357.56 223.53 C 358.42 224.36 359.29 225.20 360.16 226.04 C 360.29 224.52 360.44 223.01 360.61 221.51 C 362.19 221.25 364.00 221.43 365.29 220.30 C 366.63 219.31 366.43 217.46 366.74 216.01 C 366.83 215.09 366.91 214.18 366.99 213.27 Z" />
</g>
<g id="#785540ff">
<path fill="#785540" opacity="1.00" d=" M 267.69 214.28 C 269.62 216.00 271.97 215.56 274.05 214.44 C 274.66 214.83 275.88 215.59 276.49 215.97 C 276.51 217.39 276.51 218.81 276.50 220.24 C 275.35 220.83 274.15 221.28 272.90 221.57 C 270.80 220.78 270.26 218.49 269.41 216.67 C 269.41 217.22 269.42 218.30 269.42 218.85 C 268.73 218.90 267.35 218.99 266.66 219.04 C 267.33 217.54 267.66 215.92 267.69 214.28 Z" />
<path fill="#785540" opacity="1.00" d=" M 267.61 220.21 C 268.38 218.78 271.22 219.85 269.76 221.33 C 268.97 222.61 266.31 221.66 267.61 220.21 Z" />
</g>
<g id="#7b5d47ff">
<path fill="#7b5d47" opacity="1.00" d=" M 277.18 214.86 C 280.16 213.26 277.34 218.22 277.18 214.86 Z" />
</g>
<g id="#d3d2e8ff">
<path fill="#d3d2e8" opacity="1.00" d=" M 344.82 215.53 C 347.31 215.22 349.80 214.95 352.32 214.80 C 355.49 216.02 358.55 217.82 361.99 218.16 C 363.64 217.61 365.18 216.77 366.74 216.01 C 366.43 217.46 366.63 219.31 365.29 220.30 C 364.00 221.43 362.19 221.25 360.61 221.51 C 360.44 223.01 360.29 224.52 360.16 226.04 C 359.29 225.20 358.42 224.36 357.56 223.53 C 356.62 223.61 355.68 223.68 354.75 223.76 C 354.63 222.40 354.72 220.99 354.27 219.69 C 353.00 217.45 350.38 216.67 348.20 215.64 C 348.80 217.35 349.40 219.07 349.98 220.80 C 348.20 219.09 346.44 217.38 344.82 215.53 Z" />
</g>
<g id="#fcecd5ff">
<path fill="#fcecd5" opacity="1.00" d=" M 385.97 219.76 C 394.48 217.56 403.12 215.63 411.91 215.06 C 416.24 216.12 418.93 220.18 421.41 223.58 C 424.63 228.07 423.34 233.76 423.37 238.86 C 425.67 244.63 426.93 251.04 425.36 257.18 C 424.51 260.97 421.90 264.67 423.39 268.66 C 424.86 274.01 423.88 280.05 420.38 284.43 C 415.44 290.30 418.64 298.74 415.29 305.28 C 413.41 307.95 409.88 307.88 407.01 308.45 C 404.66 308.60 404.09 311.43 402.81 312.98 C 399.78 318.54 394.68 322.99 388.50 324.63 C 387.99 333.76 387.57 342.90 387.69 352.04 C 387.64 353.45 387.73 354.92 387.26 356.29 C 385.60 356.89 383.78 356.73 382.05 356.79 C 368.44 356.65 354.83 356.88 341.23 356.72 C 341.80 344.78 343.72 332.92 344.77 321.01 C 343.07 318.25 340.53 316.02 339.42 312.89 C 341.55 312.27 343.72 311.65 345.96 311.67 C 355.61 311.63 365.26 311.92 374.91 311.54 C 379.28 311.47 383.21 309.39 386.48 306.63 C 385.25 305.92 383.99 305.26 382.63 304.88 C 381.77 304.87 380.05 304.86 379.20 304.85 C 378.03 302.00 376.44 299.18 376.34 296.04 C 376.68 292.99 378.45 290.38 379.73 287.66 C 375.05 287.21 369.15 286.87 367.05 281.82 C 363.83 277.09 367.29 271.87 368.78 267.20 C 365.32 265.94 361.13 265.48 358.59 262.58 C 355.52 256.18 357.62 246.96 364.33 243.73 C 362.43 238.88 361.45 233.70 362.03 228.50 C 365.28 225.78 368.91 223.50 373.06 222.45 C 376.45 221.73 379.86 221.10 383.25 220.35 C 383.93 220.20 385.29 219.91 385.97 219.76 M 367.12 229.16 C 366.70 232.75 367.31 236.57 369.46 239.54 C 371.22 240.67 374.24 240.20 375.04 238.05 C 376.16 235.51 377.58 232.01 375.17 229.74 C 372.99 227.47 369.75 228.60 367.12 229.16 M 364.68 249.75 C 363.42 253.36 364.19 257.29 364.17 261.04 C 366.92 261.13 370.85 260.99 371.60 257.65 C 373.28 253.73 368.90 247.39 364.68 249.75 M 371.40 272.37 C 369.72 275.35 369.87 278.88 371.23 281.94 C 373.96 281.61 376.73 280.74 378.68 278.71 C 380.39 274.46 375.30 270.26 371.40 272.37 M 380.61 300.38 C 383.13 302.44 389.08 301.29 387.99 297.14 C 386.59 294.86 384.19 293.55 381.91 292.34 C 380.38 294.66 378.88 297.73 380.61 300.38 Z" />
</g>
<g id="#937f77ff">
<path fill="#937f77" opacity="1.00" d=" M 277.36 217.17 C 278.29 215.91 280.64 217.37 279.60 218.71 C 278.67 219.95 276.34 218.50 277.36 217.17 Z" />
</g>
<g id="#d0d0d0ff">
<path fill="#d0d0d0" opacity="1.00" d=" M 253.38 226.94 C 253.44 224.04 254.74 220.89 257.68 219.88 C 257.66 221.25 257.66 222.62 257.66 224.00 C 258.65 225.43 259.66 226.85 260.69 228.27 C 260.05 228.25 258.79 228.21 258.15 228.19 C 257.92 240.59 258.24 252.99 257.92 265.39 C 256.80 265.08 255.68 264.76 254.57 264.43 C 253.82 264.20 253.07 263.97 252.34 263.73 C 254.06 251.53 252.92 239.20 253.38 226.94 Z" />
</g>
<g id="#795c45ff">
<path fill="#795c45" opacity="1.00" d=" M 277.23 220.26 C 280.17 218.62 277.50 223.61 277.23 220.26 Z" />
</g>
<g id="#806451ff">
<path fill="#806451" opacity="1.00" d=" M 270.17 222.08 C 273.52 222.12 268.68 225.11 270.17 222.08 Z" />
</g>
<g id="#7b5e47ff">
<path fill="#7b5e47" opacity="1.00" d=" M 272.94 222.58 C 276.27 222.58 271.51 225.67 272.94 222.58 Z" />
</g>
<g id="#816754ff">
<path fill="#816754" opacity="1.00" d=" M 275.22 222.03 C 278.20 220.58 275.31 225.43 275.22 222.03 Z" />
</g>
<g id="#f7dfbeff">
<path fill="#f7dfbe" opacity="1.00" d=" M 367.12 229.16 C 369.75 228.60 372.99 227.47 375.17 229.74 C 377.58 232.01 376.16 235.51 375.04 238.05 C 374.24 240.20 371.22 240.67 369.46 239.54 C 367.31 236.57 366.70 232.75 367.12 229.16 Z" />
</g>
<g id="#5763feff">
<path fill="#5763fe" opacity="1.00" d=" M 314.57 235.04 C 315.16 235.02 316.35 234.97 316.94 234.95 C 316.87 235.40 316.73 236.31 316.66 236.77 C 317.33 236.95 318.67 237.31 319.34 237.50 C 318.08 237.77 316.83 238.03 315.59 238.33 C 314.82 238.52 313.29 238.91 312.53 239.10 C 313.76 238.05 315.15 237.21 316.51 236.34 C 316.02 236.01 315.05 235.37 314.57 235.04 Z" />
</g>
<g id="#4755fdff">
<path fill="#4755fd" opacity="1.00" d=" M 305.23 236.17 C 306.43 235.65 307.59 235.68 308.71 236.25 C 308.57 237.57 306.32 237.10 305.44 237.76 C 304.87 238.25 302.53 238.20 303.74 237.06 C 304.11 236.84 304.86 236.39 305.23 236.17 Z" />
<path fill="#4755fd" opacity="1.00" d=" M 327.20 236.18 C 328.14 235.87 330.44 235.27 330.72 236.63 C 329.25 237.37 327.53 237.79 325.90 238.04 C 324.45 237.59 326.62 236.32 327.20 236.18 Z" />
</g>
<g id="#5461fdff">
<path fill="#5461fd" opacity="1.00" d=" M 288.84 242.45 C 289.75 239.90 291.53 237.82 293.92 236.55 L 294.04 238.00 L 292.81 238.03 C 292.03 240.16 290.54 242.00 290.19 244.29 C 291.94 243.97 292.99 242.66 293.31 240.98 C 293.82 241.02 294.82 241.10 295.33 241.15 C 294.52 242.51 293.69 243.86 292.87 245.21 C 291.30 244.72 288.12 245.74 288.85 242.69 C 287.77 243.74 286.82 245.40 285.08 245.05 C 283.06 245.33 283.09 242.48 283.47 241.24 C 281.19 242.38 279.43 244.13 279.93 246.87 C 280.47 247.33 281.55 248.26 282.09 248.72 C 281.21 248.82 280.33 248.91 279.46 249.01 C 278.92 247.59 278.36 246.18 277.79 244.78 C 278.93 242.46 281.21 241.23 283.36 240.02 C 284.61 240.00 285.87 239.98 287.14 239.96 C 287.69 240.79 288.25 241.63 288.84 242.45 M 285.15 243.81 C 286.53 244.69 287.81 242.28 286.78 241.30 C 285.42 240.49 284.13 242.82 285.15 243.81 Z" />
</g>
<g id="#3543fdff">
<path fill="#3543fd" opacity="1.00" d=" M 300.30 239.89 C 301.97 239.94 303.66 240.04 305.28 240.54 C 302.90 240.93 299.89 240.98 299.44 243.95 C 301.86 244.00 304.29 243.99 306.72 244.00 C 307.91 242.76 308.94 241.37 309.66 239.79 C 310.43 241.20 310.17 242.80 310.07 244.34 C 311.02 242.97 312.04 241.64 313.28 240.52 C 313.16 241.48 312.93 243.41 312.81 244.37 C 314.18 243.69 315.02 242.44 315.42 240.99 C 315.86 241.06 316.76 241.19 317.21 241.25 C 316.43 242.54 315.64 243.83 314.84 245.11 C 311.53 245.34 308.32 243.86 305.07 244.98 C 302.74 244.87 299.60 245.93 298.08 243.61 C 297.45 241.91 299.50 241.03 300.30 239.89 Z" />
<path fill="#3543fd" opacity="1.00" d=" M 322.29 239.88 C 323.98 239.97 325.67 240.07 327.35 240.35 C 325.98 240.82 324.55 241.05 323.11 241.08 C 322.49 242.00 321.94 242.96 321.46 243.96 C 323.87 244.00 326.28 244.00 328.70 244.00 C 329.94 242.75 330.98 241.33 331.72 239.72 C 332.09 240.94 332.22 242.19 332.09 243.47 C 333.44 240.78 337.40 239.89 339.56 242.06 C 340.54 241.22 341.30 239.66 342.84 240.00 C 343.25 240.48 344.06 241.45 344.46 241.93 C 344.94 241.79 345.89 241.52 346.36 241.38 C 345.43 243.33 343.12 243.82 341.45 244.93 C 337.81 244.67 333.74 245.96 330.41 244.17 C 327.57 245.40 324.37 245.16 321.37 244.88 C 318.61 243.49 320.74 241.14 322.29 239.88 M 341.03 242.98 C 337.93 241.50 340.54 246.19 341.03 242.98 C 342.48 243.38 343.10 242.88 342.90 241.49 C 341.58 241.12 340.95 241.61 341.03 242.98 M 334.05 243.84 C 335.43 244.05 336.01 243.47 335.81 242.11 C 334.41 241.89 333.83 242.47 334.05 243.84 M 337.25 242.25 C 337.84 242.84 337.84 242.84 337.25 242.25 Z" />
</g>
<g id="#eaebffff">
<path fill="#eaebff" opacity="1.00" d=" M 341.03 242.98 C 340.95 241.61 341.58 241.12 342.90 241.49 C 343.10 242.88 342.48 243.38 341.03 242.98 Z" />
</g>
<g id="#e0e2ffff">
<path fill="#e0e2ff" opacity="1.00" d=" M 341.03 242.98 C 340.54 246.19 337.93 241.50 341.03 242.98 Z" />
</g>
<g id="#6873feff">
<path fill="#6873fe" opacity="1.00" d=" M 310.30 247.17 C 311.91 246.66 312.46 247.23 311.95 248.88 C 310.33 249.37 309.78 248.80 310.30 247.17 Z" />
</g>
<g id="#515dfeff">
<path fill="#515dfe" opacity="1.00" d=" M 341.06 247.11 C 344.03 245.48 341.35 250.39 341.06 247.11 Z" />
<path fill="#515dfe" opacity="1.00" d=" M 313.07 254.10 C 316.09 252.53 313.28 257.38 313.07 254.10 Z" />
</g>
<g id="#4a57fdff">
<path fill="#4a57fd" opacity="1.00" d=" M 294.41 250.37 C 295.92 249.44 297.67 246.80 298.96 249.30 C 296.86 250.41 294.70 251.40 292.56 252.44 C 291.39 252.80 290.21 253.06 289.00 253.21 L 289.00 252.18 C 290.80 251.57 292.68 251.16 294.41 250.37 Z" />
</g>
<g id="#f5dfbfff">
<path fill="#f5dfbf" opacity="1.00" d=" M 364.68 249.75 C 368.90 247.39 373.28 253.73 371.60 257.65 C 370.85 260.99 366.92 261.13 364.17 261.04 C 364.19 257.29 363.42 253.36 364.68 249.75 Z" />
</g>
<g id="#4956fdff">
<path fill="#4956fd" opacity="1.00" d=" M 276.12 259.05 C 277.42 256.70 279.62 254.82 282.46 254.87 C 281.24 256.60 277.73 257.17 278.07 259.59 C 280.10 262.24 284.15 260.97 286.51 259.39 C 288.50 258.44 288.21 255.73 289.96 254.51 C 290.07 256.59 289.97 258.67 289.88 260.75 C 291.10 259.96 291.57 258.36 292.93 257.75 C 293.73 258.39 294.55 259.00 295.39 259.60 C 296.14 257.60 297.39 255.84 299.19 254.66 C 298.94 257.11 296.71 258.81 296.89 261.38 C 298.03 260.02 299.14 258.60 300.63 257.58 C 300.36 258.82 300.13 260.07 299.94 261.33 C 301.95 260.73 302.19 258.24 304.14 257.56 C 304.33 259.44 303.33 260.88 302.00 262.05 C 300.10 262.01 298.21 262.00 296.31 262.00 C 295.52 261.13 294.73 260.27 293.92 259.43 L 294.08 261.98 C 292.39 262.00 290.70 262.02 289.02 262.05 C 288.59 261.30 288.10 260.60 287.55 259.95 C 286.58 260.62 285.62 261.31 284.69 262.02 C 282.87 262.00 281.05 262.00 279.24 262.07 C 278.16 261.10 277.10 260.12 276.12 259.05 M 292.26 260.19 C 292.79 260.80 292.79 260.80 292.26 260.19 Z" />
<path fill="#4956fd" opacity="1.00" d=" M 315.89 258.37 C 317.06 257.09 318.01 255.27 319.98 255.16 C 318.87 257.10 317.71 259.01 316.97 261.13 C 318.38 260.00 319.77 258.83 321.13 257.64 C 321.57 258.99 323.05 258.94 324.15 259.29 C 323.61 257.05 325.82 255.89 327.20 254.70 C 326.83 256.97 325.10 258.71 324.76 261.01 C 328.30 261.78 331.09 259.51 334.36 258.86 C 332.20 262.30 327.82 262.41 324.23 261.91 C 323.99 261.39 323.52 260.35 323.29 259.83 C 322.88 259.87 322.08 259.97 321.67 260.01 L 322.27 261.95 C 320.51 261.99 318.76 262.10 317.01 261.97 C 315.50 261.50 316.16 259.53 315.89 258.37 M 320.25 260.20 C 320.82 260.78 320.82 260.78 320.25 260.20 Z" />
</g>
<g id="#5e69feff">
<path fill="#5e69fe" opacity="1.00" d=" M 342.86 256.55 C 344.98 257.23 345.44 259.08 344.98 261.10 C 343.22 262.67 341.03 264.66 338.47 263.68 C 337.12 265.07 335.68 266.40 333.91 267.25 C 335.87 264.08 338.55 261.43 340.53 258.26 C 341.00 258.14 341.93 257.91 342.39 257.79 C 341.36 259.72 340.09 261.50 338.85 263.30 C 340.61 262.56 342.41 261.82 343.88 260.57 C 343.66 259.20 343.18 257.89 342.86 256.55 Z" />
</g>
<g id="#4653fdff">
<path fill="#4653fd" opacity="1.00" d=" M 311.97 261.14 C 312.93 259.84 313.49 258.07 315.22 257.59 C 315.14 259.37 314.17 260.79 313.04 262.07 C 312.28 262.05 310.77 262.01 310.01 262.00 C 309.98 261.43 309.94 260.29 309.91 259.73 C 307.50 259.98 306.75 262.10 306.69 264.26 C 303.70 263.02 305.52 260.36 307.30 258.96 C 308.44 258.97 309.58 258.99 310.72 259.00 C 311.03 259.54 311.65 260.60 311.97 261.14 Z" />
</g>
<g id="#1f1645ff">
<path fill="#1f1645" opacity="1.00" d=" M 228.53 260.67 C 228.85 260.34 229.48 259.70 229.79 259.38 C 237.41 260.14 245.10 261.13 252.34 263.73 C 253.07 263.97 253.82 264.20 254.57 264.43 C 252.91 273.88 254.03 283.50 253.66 293.03 C 253.72 297.72 253.23 303.43 257.28 306.74 C 260.03 309.73 264.30 309.43 268.00 309.41 C 276.45 309.24 284.91 309.37 293.36 309.32 C 293.42 309.54 293.53 309.97 293.59 310.19 C 297.47 325.26 297.87 340.93 297.87 356.40 C 208.87 356.45 119.88 356.38 30.88 356.44 C 30.39 334.42 33.62 311.13 46.78 292.83 C 59.99 274.00 82.38 263.66 104.70 260.66 C 107.50 264.56 111.90 266.70 116.05 268.84 C 138.12 279.60 163.56 284.22 187.83 279.43 C 202.54 276.49 217.34 270.93 228.53 260.67 Z" />
</g>
<g id="#4451fdff">
<path fill="#4451fd" opacity="1.00" d=" M 296.98 265.20 C 299.69 264.11 302.57 263.64 305.48 264.13 C 304.76 264.43 303.31 265.03 302.59 265.34 C 302.72 265.78 302.98 266.68 303.11 267.12 C 301.16 266.33 299.10 265.93 297.00 265.91 L 296.98 265.20 Z" />
</g>
<g id="#7ea1e6ff">
<path fill="#7ea1e6" opacity="1.00" d=" M 277.99 272.96 C 284.58 271.35 291.38 272.21 298.08 271.97 C 304.15 272.23 310.92 273.26 315.15 278.09 C 314.88 279.91 315.54 282.34 313.68 283.51 C 308.49 287.36 302.00 288.73 295.87 290.36 C 296.23 292.40 296.71 294.42 297.05 296.48 C 295.36 294.94 294.30 292.89 293.11 290.98 C 288.98 292.14 284.77 292.98 280.49 293.27 C 283.25 290.27 288.24 291.97 291.45 289.45 C 284.92 285.85 277.33 284.97 269.98 284.98 C 266.56 284.99 263.12 284.47 260.02 282.96 C 260.00 282.25 259.96 280.83 259.94 280.12 C 265.06 275.92 271.69 274.41 277.99 272.96 M 266.64 277.69 C 264.34 278.52 262.40 280.04 260.66 281.72 C 267.71 284.78 275.70 282.88 283.02 284.76 C 287.10 285.53 290.84 287.43 294.18 289.86 C 293.14 287.16 291.46 284.69 290.91 281.82 C 293.14 283.71 294.35 286.42 295.40 289.08 C 301.07 287.57 306.90 286.19 311.95 283.08 C 312.95 282.33 314.31 281.49 314.30 280.06 C 313.31 276.90 309.99 275.59 307.09 274.75 C 293.73 271.34 279.45 272.88 266.64 277.69 Z" />
</g>
<g id="#f8debeff">
<path fill="#f8debe" opacity="1.00" d=" M 371.40 272.37 C 375.30 270.26 380.39 274.46 378.68 278.71 C 376.73 280.74 373.96 281.61 371.23 281.94 C 369.87 278.88 369.72 275.35 371.40 272.37 Z" />
</g>
<g id="#5b67feff">
<path fill="#5b67fe" opacity="1.00" d=" M 309.01 287.70 C 311.50 289.72 311.26 293.17 312.02 296.01 C 311.55 296.01 310.62 296.00 310.15 296.00 C 309.71 293.24 309.11 290.50 309.01 287.70 Z" />
<path fill="#5b67fe" opacity="1.00" d=" M 362.01 287.69 C 364.47 289.74 364.27 293.15 365.03 295.99 C 364.56 296.00 363.62 296.01 363.15 296.02 C 362.71 293.25 362.10 290.50 362.01 287.69 Z" />
</g>
<g id="#4e5afdff">
<path fill="#4e5afd" opacity="1.00" d=" M 311.75 287.67 C 312.83 288.45 313.87 289.28 314.90 290.12 L 315.10 288.68 C 315.47 288.97 316.20 289.55 316.56 289.84 C 316.72 289.47 317.05 288.72 317.21 288.35 C 318.60 290.30 320.35 289.35 321.60 287.82 C 324.40 289.45 324.92 292.72 326.06 295.48 C 327.49 293.50 327.44 289.97 329.70 288.84 C 331.30 290.99 332.20 293.55 333.20 296.02 C 332.70 296.01 331.72 296.01 331.23 296.00 C 330.72 294.41 330.18 292.82 329.63 291.24 C 328.96 292.77 328.32 294.32 327.74 295.88 C 326.52 295.89 325.30 295.92 324.09 295.98 C 323.64 294.65 323.19 293.32 322.76 292.00 C 322.07 292.01 320.68 292.03 319.98 292.04 C 319.46 291.10 318.88 290.21 318.25 289.36 L 317.96 291.00 C 317.16 291.01 315.55 291.02 314.75 291.03 C 315.18 292.77 315.61 294.52 316.00 296.28 C 315.59 296.14 314.78 295.86 314.37 295.72 C 313.73 292.96 312.70 290.33 311.75 287.67 M 321.03 290.08 C 321.37 293.35 323.97 288.42 321.03 290.08 Z" />
</g>
<g id="#5561fdff">
<path fill="#5561fd" opacity="1.00" d=" M 333.72 297.22 C 335.58 294.05 335.90 289.60 339.17 287.51 C 338.75 290.81 337.45 293.96 335.74 296.80 C 335.23 296.90 334.22 297.12 333.72 297.22 Z" />
</g>
<g id="#4e5bfdff">
<path fill="#4e5bfd" opacity="1.00" d=" M 344.83 287.70 C 345.90 288.46 346.93 289.29 348.03 290.02 C 349.14 289.33 350.19 288.55 351.28 287.82 C 351.08 289.73 350.04 291.12 348.04 291.27 C 348.71 292.83 349.35 294.42 349.94 296.02 C 349.51 295.98 348.65 295.90 348.22 295.86 C 347.03 293.17 345.67 290.53 344.83 287.70 Z" />
</g>
<g id="#505cfdff">
<path fill="#505cfd" opacity="1.00" d=" M 355.19 288.25 C 355.54 288.12 356.23 287.87 356.58 287.74 C 355.32 290.98 355.11 296.34 351.15 297.24 C 352.48 294.24 353.44 291.03 355.19 288.25 Z" />
</g>
<g id="#c7cbffff">
<path fill="#c7cbff" opacity="1.00" d=" M 321.03 290.08 C 323.97 288.42 321.37 293.35 321.03 290.08 Z" />
</g>
<g id="#3b49fdff">
<path fill="#3b49fd" opacity="1.00" d=" M 340.45 292.46 C 341.55 290.84 344.74 292.75 343.36 294.27 C 342.60 296.45 338.78 293.92 340.45 292.46 Z" />
</g>
<g id="#3140fdff">
<path fill="#3140fd" opacity="1.00" d=" M 359.74 294.80 C 357.51 295.55 356.77 291.66 359.41 292.21 C 359.68 292.42 360.22 292.84 360.49 293.05 C 360.71 293.84 360.46 294.42 359.74 294.80 Z" />
</g>
<g id="#f7debeff">
<path fill="#f7debe" opacity="1.00" d=" M 380.61 300.38 C 378.88 297.73 380.38 294.66 381.91 292.34 C 384.19 293.55 386.59 294.86 387.99 297.14 C 389.08 301.29 383.13 302.44 380.61 300.38 Z" />
</g>
<g id="#c5bdb2ff">
<path fill="#c5bdb2" opacity="1.00" d=" M 292.17 305.05 C 321.18 305.28 350.18 304.84 379.20 304.85 C 380.05 304.86 381.77 304.87 382.63 304.88 C 376.51 309.88 368.26 308.03 361.02 308.29 C 353.06 308.02 345.04 308.89 337.13 307.84 C 334.13 307.16 331.08 306.61 327.99 306.74 C 316.23 306.98 304.46 306.57 292.70 306.92 C 292.57 306.45 292.30 305.52 292.17 305.05 Z" />
</g>
<g id="#e6d6c7ff">
<path fill="#e6d6c7" opacity="1.00" d=" M 382.63 304.88 C 383.99 305.26 385.25 305.92 386.48 306.63 C 383.21 309.39 379.28 311.47 374.91 311.54 C 365.26 311.92 355.61 311.63 345.96 311.67 C 343.72 311.65 341.55 312.27 339.42 312.89 C 338.49 311.98 337.54 311.08 336.71 310.08 C 336.82 309.52 337.03 308.40 337.13 307.84 C 345.04 308.89 353.06 308.02 361.02 308.29 C 368.26 308.03 376.51 309.88 382.63 304.88 Z" />
</g>
<g id="#d9d9d9ff">
<path fill="#d9d9d9" opacity="1.00" d=" M 292.70 306.92 C 304.46 306.57 316.23 306.98 327.99 306.74 C 331.08 306.61 334.13 307.16 337.13 307.84 C 337.03 308.40 336.82 309.52 336.71 310.08 C 322.36 310.57 307.96 310.14 293.59 310.19 C 293.53 309.97 293.42 309.54 293.36 309.32 C 293.20 308.72 292.87 307.52 292.70 306.92 Z" />
</g>
</svg>
